<svg width="30" height="30" viewBox="0 0 30 30" fill="none" xmlns="http://www.w3.org/2000/svg">
<path d="M15 27.5C9.1075 27.5 6.16125 27.5 4.33 25.6688C2.5 23.84 2.5 20.8925 2.5 15C2.5 9.1075 2.5 6.16125 4.33 4.33C6.1625 2.5 9.1075 2.5 15 2.5C20.8925 2.5 23.8387 2.5 25.6688 4.33C27.5 6.1625 27.5 9.1075 27.5 15C27.5 20.8925 27.5 23.8388 25.6688 25.6688C23.84 27.5 20.8925 27.5 15 27.5Z" fill="#DEB14E"/>
<path d="M23.4375 10C23.4375 10.2486 23.3387 10.4871 23.1629 10.6629C22.9871 10.8387 22.7486 10.9375 22.5 10.9375H7.5C7.25136 10.9375 7.0129 10.8387 6.83709 10.6629C6.66127 10.4871 6.5625 10.2486 6.5625 10C6.5625 9.75136 6.66127 9.5129 6.83709 9.33709C7.0129 9.16127 7.25136 9.0625 7.5 9.0625H22.5C22.7486 9.0625 22.9871 9.16127 23.1629 9.33709C23.3387 9.5129 23.4375 9.75136 23.4375 10ZM23.4375 15C23.4375 15.2486 23.3387 15.4871 23.1629 15.6629C22.9871 15.8387 22.7486 15.9375 22.5 15.9375H7.5C7.25136 15.9375 7.0129 15.8387 6.83709 15.6629C6.66127 15.4871 6.5625 15.2486 6.5625 15C6.5625 14.7514 6.66127 14.5129 6.83709 14.3371C7.0129 14.1613 7.25136 14.0625 7.5 14.0625H22.5C22.7486 14.0625 22.9871 14.1613 23.1629 14.3371C23.3387 14.5129 23.4375 14.7514 23.4375 15ZM23.4375 20C23.4375 20.2486 23.3387 20.4871 23.1629 20.6629C22.9871 20.8387 22.7486 20.9375 22.5 20.9375H7.5C7.25136 20.9375 7.0129 20.8387 6.83709 20.6629C6.66127 20.4871 6.5625 20.2486 6.5625 20C6.5625 19.7514 6.66127 19.5129 6.83709 19.3371C7.0129 19.1613 7.25136 19.0625 7.5 19.0625H22.5C22.7486 19.0625 22.9871 19.1613 23.1629 19.3371C23.3387 19.5129 23.4375 19.7514 23.4375 20Z" fill="white"/>
</svg>
