<svg width="310" height="33" viewBox="0 0 310 33" fill="none" xmlns="http://www.w3.org/2000/svg">
<path d="M170.1 17.6655C170.753 17.0832 171.083 16.6287 171.093 16.6131C171.139 16.5477 171.139 16.4574 171.093 16.392C171.08 16.3733 170.56 15.6541 169.518 14.857C170.346 14.2312 171.369 13.3469 171.233 12.8768C171.117 12.4844 170.187 12.0081 169.369 11.6531C169.727 11.1798 169.994 10.7004 170.025 10.3049C170.044 10.0714 169.982 9.87213 169.845 9.71334C169.515 9.33971 168.93 9.14355 168.308 9.04391C168.501 8.02577 168.659 6.69003 168.245 6.43471C167.959 6.26035 167.225 6.41292 166.5 6.63398C166.55 5.75906 166.459 5.20484 166.456 5.18616C166.441 5.1052 166.378 5.04293 166.298 5.02736C166.279 5.02425 165.401 4.88102 164.101 5.05538C164.244 4.02789 164.34 2.6797 163.911 2.44618C163.553 2.25002 162.557 2.57073 161.73 2.90077C161.649 2.3123 161.499 1.7861 161.241 1.48408C161.089 1.30349 160.905 1.20697 160.697 1.19451C160.199 1.16338 159.648 1.43737 159.138 1.80789C158.556 0.951651 157.725 -0.103861 157.252 0.00822839C156.925 0.0860685 156.515 0.715017 156.16 1.38444C155.578 0.730585 155.124 0.400543 155.108 0.391202C155.043 0.344498 154.953 0.344498 154.887 0.391202C154.869 0.403656 154.15 0.923629 153.353 1.96669C152.728 1.13847 151.841 0.114091 151.374 0.25109C150.982 0.366293 150.506 1.29726 150.151 2.11614C149.678 1.75808 149.199 1.4903 148.804 1.45917C148.571 1.44049 148.372 1.50276 148.213 1.63976C147.839 1.9698 147.643 2.55516 147.544 3.17788C146.526 2.98484 145.191 2.82604 144.936 3.24015C144.762 3.5266 144.915 4.26453 145.135 4.98689C144.261 4.93707 143.707 5.02736 143.689 5.03048C143.608 5.04604 143.545 5.10832 143.53 5.18927C143.527 5.21106 143.384 6.08599 143.561 7.38748C142.534 7.24425 141.184 7.14773 140.95 7.57429C140.754 7.93236 141.075 8.92871 141.405 9.75693C140.816 9.83788 140.291 9.98734 139.989 10.2458C139.811 10.3983 139.712 10.582 139.699 10.7906C139.668 11.2888 139.942 11.8399 140.316 12.3506C139.46 12.9328 138.405 13.7641 138.517 14.2374C138.595 14.5643 139.223 14.9753 139.892 15.3334C139.239 15.9156 138.909 16.3702 138.9 16.3858C138.853 16.4512 138.853 16.5415 138.9 16.6069C138.912 16.6255 139.432 17.3448 140.474 18.1388C139.647 18.7646 138.623 19.6489 138.76 20.119C138.875 20.5113 139.805 20.9877 140.624 21.3427C140.266 21.8159 139.998 22.2954 139.967 22.6908C139.948 22.9244 140.011 23.1236 140.147 23.2824C140.477 23.6561 141.062 23.8522 141.685 23.9519C141.492 24.97 141.333 26.3057 141.747 26.5611C141.834 26.614 141.962 26.6389 142.12 26.6389C142.481 26.6389 142.988 26.5175 143.492 26.3649C143.443 27.2398 143.533 27.7941 143.536 27.8127C143.552 27.8937 143.614 27.956 143.695 27.9715C143.707 27.9715 144.049 28.0307 144.616 28.0307C144.964 28.0307 145.397 28.0089 145.892 27.9435C145.748 28.971 145.652 30.3223 146.078 30.5558C146.153 30.5963 146.259 30.615 146.383 30.615C146.85 30.615 147.606 30.3628 148.259 30.1012C148.34 30.6897 148.49 31.2159 148.748 31.5179C148.9 31.6985 149.084 31.795 149.293 31.8075C149.317 31.8075 149.342 31.8075 149.37 31.8075C149.846 31.8075 150.369 31.5428 150.855 31.191C151.408 32.0036 152.186 33 152.669 33C152.694 33 152.718 33 152.743 32.9907C153.07 32.9128 153.481 32.2839 153.839 31.6176C154.42 32.2714 154.875 32.6015 154.89 32.6108C154.925 32.6357 154.962 32.645 155.002 32.645C155.043 32.645 155.08 32.6326 155.114 32.6108C155.133 32.5983 155.852 32.0784 156.645 31.0353C157.23 31.8137 158.049 32.7634 158.534 32.7634C158.565 32.7634 158.596 32.7603 158.624 32.7509C159.016 32.6357 159.492 31.7047 159.847 30.8859C160.32 31.2439 160.799 31.5117 161.194 31.5428C161.222 31.5428 161.247 31.5459 161.275 31.5459C161.475 31.5459 161.646 31.4837 161.786 31.3622C162.159 31.0322 162.355 30.4468 162.455 29.8241C163.002 29.9269 163.643 30.0234 164.157 30.0234C164.595 30.0234 164.944 29.9549 165.062 29.7619C165.236 29.4754 165.084 28.7375 164.863 28.0151C165.053 28.0276 165.23 28.0307 165.389 28.0307C165.955 28.0307 166.298 27.9746 166.31 27.9715C166.391 27.956 166.453 27.8937 166.469 27.8127C166.472 27.7909 166.615 26.916 166.438 25.6145C166.907 25.6799 167.449 25.736 167.916 25.736C168.466 25.736 168.921 25.6581 169.048 25.4246C169.244 25.0665 168.924 24.0702 168.594 23.242C169.182 23.161 169.708 23.0116 170.01 22.7531C170.19 22.6006 170.287 22.4169 170.299 22.2082C170.33 21.7101 170.056 21.159 169.683 20.6483C170.539 20.0661 171.594 19.2347 171.482 18.7615C171.404 18.4346 170.775 18.0236 170.106 17.6655H170.1ZM170.688 16.501C170.134 17.1891 166.911 20.7915 160.718 19.6738C160.927 19.297 161.098 18.8985 161.226 18.4906C162.732 18.7241 164.219 18.4906 165.703 18.201C165.849 18.173 165.787 17.9488 165.641 17.98C164.2 18.2633 162.753 18.4968 161.291 18.2695C161.45 17.6966 161.537 17.105 161.537 16.5041C161.537 16.0277 161.481 15.5576 161.381 15.0968C162.004 14.6733 162.554 14.2312 163.037 13.7797C164.039 13.8108 165.022 13.9447 165.996 14.1845C166.139 14.2187 166.201 13.9977 166.058 13.9634C165.14 13.7361 164.213 13.6022 163.27 13.5586C163.413 13.4185 163.547 13.2784 163.678 13.1383C167.947 13.3781 170.234 15.9343 170.691 16.5041L170.688 16.501ZM154.993 22.6224C151.62 22.6224 148.876 19.8762 148.876 16.501C148.876 13.1259 151.62 10.3797 154.993 10.3797C158.366 10.3797 161.11 13.1259 161.11 16.501C161.11 19.8762 158.366 22.6224 154.993 22.6224ZM170.934 12.9608C171.002 13.1975 170.206 13.9447 169.257 14.6609C168.759 14.3059 168.158 13.9447 167.452 13.6334C167.816 13.3158 168.569 12.6339 169.17 11.9022C170.041 12.2758 170.862 12.7055 170.937 12.9577L170.934 12.9608ZM169.611 9.91884C169.692 10.0122 169.727 10.1306 169.717 10.28C169.646 11.1954 167.909 12.8425 167.135 13.4995C166.923 13.4123 166.699 13.3313 166.469 13.2566C166.662 13.185 166.855 13.1103 167.047 13.0387C167.184 12.9857 167.125 12.7647 166.985 12.8176C166.693 12.9266 166.4 13.0387 166.108 13.1476C165.93 13.0978 165.75 13.0511 165.563 13.0075L167.013 12.4782C167.15 12.4284 167.091 12.2042 166.951 12.2572C166.344 12.4782 165.741 12.6993 165.134 12.9204C164.916 12.8799 164.692 12.8456 164.462 12.8176C165.009 12.6028 165.557 12.3879 166.108 12.17C166.245 12.117 166.186 11.8929 166.046 11.9489C165.37 12.2136 164.695 12.4782 164.02 12.746C164.141 12.6028 164.256 12.4595 164.365 12.3132C165.152 11.9396 165.952 11.594 166.764 11.2795C166.901 11.2266 166.842 11.0024 166.702 11.0584C166.005 11.3293 165.32 11.622 164.642 11.9333C164.776 11.7403 164.9 11.5473 165.019 11.3542C165.324 11.2234 165.635 11.1051 165.933 10.9743C166.07 10.9152 165.952 10.7159 165.818 10.7751C165.619 10.8623 165.417 10.9432 165.212 11.0273C165.305 10.856 165.395 10.6879 165.476 10.5198C165.678 10.4295 165.884 10.3454 166.095 10.2676C166.232 10.2177 166.173 9.99356 166.033 10.0465C165.896 10.0963 165.759 10.1524 165.622 10.2084C165.756 9.9095 165.871 9.6137 165.968 9.32725C166.534 9.27432 168.88 9.09996 169.608 9.92507L169.611 9.91884ZM166.472 6.97025C167.219 6.73362 167.891 6.58417 168.081 6.69937C168.283 6.82391 168.205 7.86386 167.993 9.00344C167.231 8.92248 166.466 8.96607 166.07 8.99721C166.301 8.24372 166.416 7.54938 166.472 6.97025ZM163.765 2.72018C163.979 2.8385 163.945 3.92826 163.78 5.1052C163.177 5.20484 162.498 5.37609 161.779 5.6532C161.814 5.16747 161.863 4.15555 161.77 3.22147C162.651 2.86963 163.534 2.59252 163.765 2.71707V2.72018ZM166.092 5.39477C166.189 6.2728 166.453 11.102 161.285 14.692C161.166 14.2779 161.005 13.8762 160.809 13.4933C162.041 12.5997 162.931 11.376 163.771 10.1243C163.855 9.99979 163.656 9.88459 163.572 10.0091C162.757 11.2266 161.895 12.4222 160.7 13.2909C160.41 12.774 160.049 12.2945 159.626 11.8711C159.576 11.8212 158.839 11.1425 158.531 10.9463C158.668 10.2209 158.743 9.53275 158.764 8.88512C158.774 8.87889 158.78 8.86955 158.789 8.86332C159.511 8.18456 160.295 7.58986 161.145 7.07923C161.272 7.00139 161.157 6.80212 161.03 6.87996C160.205 7.37813 159.44 7.95415 158.733 8.6049L158.615 8.06936C158.646 8.06313 158.677 8.05067 158.705 8.02576C161.898 5.11766 165.373 5.31693 166.105 5.39477H166.092ZM160.616 1.50276C160.638 1.50276 160.656 1.50276 160.678 1.50276C160.802 1.50899 160.908 1.56815 161.008 1.68335C161.602 2.3808 161.543 4.76582 161.459 5.78085C161.247 5.87115 161.036 5.96767 160.821 6.07665C160.905 5.89294 160.986 5.70924 161.07 5.52554C161.129 5.39165 160.933 5.27334 160.871 5.41034L160.488 6.25412C160.326 6.34442 160.165 6.44094 160.003 6.54369C160.217 6.07976 160.435 5.61583 160.65 5.15191C160.712 5.01802 160.513 4.8997 160.451 5.0367C160.18 5.61895 159.909 6.20119 159.639 6.78344C159.455 6.90798 159.275 7.04186 159.091 7.18198C159.324 6.64644 159.558 6.1109 159.791 5.57224C159.85 5.43836 159.651 5.32004 159.592 5.45704C159.303 6.12335 159.013 6.78966 158.721 7.45286C158.705 7.26605 158.683 7.08234 158.662 6.90175C158.954 6.08287 159.275 5.27334 159.626 4.47314C159.685 4.33925 159.486 4.22094 159.427 4.35794C159.125 5.04293 158.848 5.73415 158.587 6.43471C158.547 6.20431 158.497 5.98013 158.444 5.76217C158.568 5.45393 158.702 5.14879 158.82 4.84677C158.876 4.70977 158.652 4.6475 158.599 4.7845C158.519 4.98688 158.434 5.18927 158.347 5.39477C158.294 5.20795 158.235 5.02425 158.176 4.84677C158.254 4.64127 158.341 4.43578 158.434 4.23339C158.497 4.09951 158.298 3.98119 158.235 4.11819C158.173 4.25207 158.114 4.38907 158.058 4.52296C157.94 4.21471 157.812 3.92514 157.678 3.65426C158.033 3.22458 159.52 1.49965 160.616 1.49965V1.50276ZM157.324 0.313362C157.551 0.26043 158.232 1.04817 158.889 2.00094C158.291 2.48355 157.781 3.05645 157.526 3.35847C157.156 2.66102 156.748 2.09123 156.375 1.64287C156.736 0.948538 157.106 0.366293 157.321 0.313362H157.324ZM154.993 0.795971C155.681 1.35019 159.281 4.57589 158.164 10.772C157.787 10.5634 157.389 10.3921 156.981 10.2644C157.215 8.75746 156.981 7.26916 156.692 5.78397C156.664 5.63763 156.44 5.6999 156.471 5.84624C156.754 7.28784 156.988 8.73567 156.76 10.1991C156.188 10.0403 155.597 9.95309 154.996 9.95309C154.52 9.95309 154.05 10.0091 153.59 10.1088C153.167 9.48605 152.725 8.93494 152.273 8.45233C152.305 7.44975 152.438 6.46585 152.678 5.4944C152.712 5.35118 152.491 5.28891 152.457 5.43213C152.23 6.35064 152.096 7.2785 152.053 8.22192C151.913 8.0787 151.773 7.94481 151.632 7.81404C151.872 3.54217 154.427 1.25367 154.996 0.795971H154.993ZM151.455 0.549996C151.688 0.481497 152.438 1.27858 153.154 2.23134C152.799 2.72952 152.438 3.33045 152.127 4.03723C151.81 3.67294 151.128 2.91945 150.397 2.31852C150.771 1.44671 151.2 0.624722 151.452 0.549996H151.455ZM148.415 1.87328C148.508 1.79232 148.627 1.75808 148.776 1.76742C149.691 1.83903 151.34 3.57642 151.993 4.35171C151.906 4.56343 151.825 4.78761 151.751 5.01802C151.679 4.82498 151.604 4.63193 151.533 4.43889C151.48 4.30189 151.259 4.36105 151.312 4.50116C151.421 4.79384 151.533 5.08652 151.642 5.3792C151.592 5.55667 151.545 5.73726 151.502 5.92408C151.324 5.44147 151.15 4.95575 150.973 4.47314C150.923 4.33614 150.699 4.3953 150.752 4.53541C150.973 5.14257 151.194 5.7466 151.415 6.35376C151.374 6.57171 151.34 6.79589 151.312 7.0263C151.097 6.4783 150.883 5.93031 150.665 5.3792C150.612 5.2422 150.388 5.30136 150.444 5.44147C150.708 6.11712 150.973 6.79278 151.24 7.46843C151.097 7.347 150.954 7.2318 150.808 7.12282C150.435 6.33508 150.089 5.53488 149.775 4.72223C149.722 4.58523 149.498 4.64439 149.554 4.7845C149.825 5.48195 150.117 6.16694 150.428 6.84571C150.235 6.71182 150.042 6.58728 149.85 6.46896C149.719 6.16383 149.601 5.85247 149.47 5.55356C149.411 5.41656 149.212 5.53488 149.271 5.66877C149.358 5.86804 149.439 6.07042 149.523 6.27592C149.352 6.18251 149.184 6.09222 149.016 6.01126C148.925 5.80888 148.841 5.60338 148.764 5.39477C148.714 5.25777 148.49 5.31693 148.543 5.45704C148.592 5.59404 148.648 5.73104 148.704 5.86804C148.406 5.73415 148.11 5.61895 147.824 5.52243C147.771 4.95575 147.6 2.60809 148.421 1.87951L148.415 1.87328ZM145.201 3.40517C145.325 3.20279 146.365 3.28063 147.503 3.49235C147.422 4.25519 147.466 5.02113 147.497 5.41656C146.744 5.18616 146.05 5.07095 145.471 5.01491C145.235 4.26764 145.086 3.5951 145.204 3.40517H145.201ZM143.894 5.39477C144.771 5.29825 149.597 5.03359 153.185 10.2053C152.771 10.3236 152.37 10.4855 151.987 10.6817C151.094 9.44868 149.871 8.55819 148.62 7.71752C148.496 7.63345 148.381 7.83272 148.505 7.91679C149.722 8.73255 150.917 9.59502 151.785 10.7938C151.268 11.0833 150.789 11.4445 150.366 11.868C150.03 12.2042 149.734 12.5779 149.482 12.9733C148.742 12.8332 148.042 12.7553 147.382 12.7335C146.694 12.005 146.094 11.211 145.577 10.3516C145.499 10.224 145.3 10.3392 145.378 10.4668C145.867 11.2764 146.433 12.0267 147.068 12.7242C146.869 12.7242 146.673 12.7242 146.48 12.7335C143.633 9.54209 143.819 6.11712 143.897 5.39165L143.894 5.39477ZM141.221 7.72374C141.339 7.50891 142.431 7.54316 143.611 7.70818C143.713 8.31222 143.881 8.99098 144.161 9.71023C143.679 9.67598 142.665 9.62616 141.725 9.71957C141.373 8.83842 141.097 7.95415 141.221 7.72374ZM140.007 10.8124C140.014 10.6879 140.073 10.582 140.188 10.4824C140.655 10.0839 141.881 9.978 142.942 9.978C143.468 9.978 143.956 10.0029 144.289 10.0309C144.379 10.2427 144.479 10.4575 144.588 10.6723C144.401 10.5883 144.214 10.5042 144.025 10.417C143.891 10.3579 143.773 10.554 143.909 10.6163C144.196 10.7439 144.479 10.8747 144.765 11.0024C144.855 11.1643 144.949 11.3262 145.051 11.4881C144.585 11.2701 144.118 11.0522 143.651 10.8374C143.517 10.7751 143.399 10.9743 143.536 11.0366C144.121 11.3106 144.706 11.5815 145.291 11.8555C145.415 12.0392 145.549 12.2229 145.692 12.4035C145.154 12.1669 144.613 11.9333 144.074 11.6967C143.941 11.6375 143.822 11.8368 143.959 11.896C144.625 12.1855 145.291 12.4751 145.954 12.7678C145.767 12.7834 145.584 12.8052 145.403 12.8269C144.585 12.5343 143.776 12.2136 142.979 11.8617C142.845 11.8026 142.727 12.0018 142.864 12.061C143.549 12.363 144.239 12.6401 144.939 12.9017C144.709 12.9421 144.485 12.992 144.267 13.0449C143.959 12.9204 143.654 12.7865 143.352 12.6682C143.216 12.6121 143.153 12.8363 143.29 12.8892C143.492 12.9702 143.695 13.0542 143.9 13.1414C143.713 13.1944 143.53 13.2535 143.352 13.3127C143.147 13.2348 142.942 13.1476 142.739 13.0542C142.606 12.992 142.487 13.1912 142.624 13.2535C142.758 13.3158 142.895 13.3749 143.029 13.431C142.721 13.5493 142.431 13.677 142.161 13.8108C141.722 13.4497 139.942 11.9115 140.007 10.8093V10.8124ZM138.816 14.1689C138.76 13.9354 139.55 13.2566 140.502 12.6028C140.985 13.2006 141.557 13.7112 141.859 13.9665C141.162 14.337 140.592 14.7449 140.144 15.1186C139.45 14.7574 138.869 14.3869 138.816 14.172V14.1689ZM139.298 16.501C139.852 15.8129 143.076 12.2105 149.268 13.3282C149.059 13.705 148.888 14.1035 148.76 14.5114C147.254 14.2779 145.767 14.5114 144.283 14.801C144.137 14.829 144.199 15.0532 144.345 15.022C145.786 14.7387 147.233 14.5052 148.695 14.7325C148.536 15.3054 148.449 15.897 148.449 16.501C148.449 16.9774 148.505 17.4475 148.605 17.9083C147.983 18.3318 147.432 18.7739 146.949 19.2254C145.948 19.1943 144.964 19.0604 143.993 18.8206C143.85 18.7864 143.788 19.0075 143.931 19.0417C144.849 19.269 145.776 19.4029 146.719 19.4465C146.579 19.5866 146.442 19.7267 146.312 19.8668C142.042 19.6271 139.755 17.0708 139.298 16.501ZM139.052 20.0412C138.984 19.8045 139.78 19.0573 140.732 18.3411C141.23 18.6961 141.831 19.0542 142.537 19.3686C142.173 19.6862 141.42 20.3681 140.82 21.0998C139.948 20.7262 139.127 20.2965 139.052 20.0443V20.0412ZM140.375 23.0832C140.294 22.9898 140.26 22.8714 140.269 22.722C140.34 21.8066 142.08 20.1564 142.855 19.4994C143.069 19.5866 143.29 19.6675 143.52 19.7423C143.328 19.8139 143.135 19.8886 142.942 19.9602C142.805 20.0131 142.864 20.2342 143.004 20.1813C143.296 20.0723 143.589 19.9602 143.881 19.8512C144.059 19.9011 144.242 19.9478 144.429 19.9914C143.944 20.1688 143.458 20.3463 142.973 20.5207C142.836 20.5705 142.895 20.7947 143.035 20.7417C143.642 20.5207 144.249 20.2996 144.855 20.0785C145.073 20.119 145.294 20.1564 145.521 20.1844C144.974 20.3992 144.426 20.6141 143.878 20.8289C143.741 20.8818 143.801 21.106 143.941 21.05C144.616 20.7853 145.291 20.5207 145.966 20.2529C145.845 20.3961 145.73 20.5393 145.621 20.6857C144.834 21.0593 144.034 21.4049 143.222 21.7194C143.085 21.7723 143.144 21.9965 143.284 21.9405C143.981 21.6696 144.666 21.3769 145.344 21.0655C145.21 21.2586 145.086 21.4516 144.967 21.6447C144.662 21.7754 144.351 21.8938 144.053 22.0245C143.916 22.0837 144.034 22.283 144.168 22.2238C144.367 22.1366 144.569 22.0557 144.774 21.9716C144.681 22.1429 144.591 22.311 144.51 22.4791C144.308 22.5694 144.102 22.6535 143.891 22.7313C143.754 22.7811 143.813 23.0053 143.953 22.9524C144.09 22.9026 144.227 22.8465 144.364 22.7905C144.23 23.0894 144.115 23.3852 144.018 23.6716C143.455 23.7246 141.106 23.8989 140.378 23.0738L140.375 23.0832ZM143.514 26.0317C142.767 26.2684 142.095 26.4178 141.906 26.3026C141.703 26.1781 141.781 25.1381 141.993 23.9986C142.316 24.0328 142.637 24.0453 142.932 24.0453C143.337 24.0453 143.685 24.0235 143.913 24.0017C143.682 24.7552 143.567 25.4495 143.511 26.0286L143.514 26.0317ZM146.224 30.2818C146.01 30.1635 146.044 29.0706 146.209 27.8906C146.813 27.7878 147.491 27.6197 148.21 27.3395C148.175 27.8221 148.126 28.8371 148.219 29.7774C147.338 30.1293 146.455 30.4064 146.224 30.2818ZM143.894 27.6072C143.797 26.7292 143.533 21.9 148.701 18.31C148.82 18.7241 148.981 19.1258 149.177 19.5087C147.945 20.4023 147.058 21.626 146.215 22.8777C146.131 23.0022 146.33 23.1174 146.414 22.9929C147.23 21.7754 148.091 20.5798 149.289 19.7111C149.582 20.228 149.94 20.7075 150.363 21.1309C150.699 21.4672 151.069 21.763 151.468 22.0152C151.328 22.7562 151.25 23.4568 151.228 24.1169C150.5 24.805 149.706 25.4059 148.848 25.9228C148.72 26.0006 148.835 26.1999 148.963 26.122C149.772 25.6332 150.522 25.0665 151.219 24.4314C151.219 24.6306 151.219 24.8268 151.228 25.0198C148.039 27.8688 144.616 27.682 143.891 27.6041L143.894 27.6072ZM149.308 31.4961C149.184 31.4899 149.078 31.4307 148.978 31.3155C148.381 30.6181 148.446 28.2206 148.53 27.2087C148.742 27.1184 148.956 27.0188 149.171 26.9098C149.087 27.0966 149 27.2865 148.916 27.4733C148.857 27.6072 149.053 27.7255 149.115 27.5886C149.243 27.3021 149.373 27.0188 149.501 26.7323C149.663 26.642 149.825 26.5486 149.986 26.4459C149.769 26.9129 149.551 27.3799 149.333 27.847C149.271 27.9809 149.47 28.0992 149.532 27.9622C149.806 27.3768 150.077 26.7915 150.351 26.203C150.534 26.0785 150.715 25.9446 150.898 25.8045L150.192 27.4235C150.133 27.5574 150.332 27.6757 150.391 27.5387C150.68 26.8724 150.97 26.2061 151.262 25.5429C151.278 25.7297 151.3 25.9134 151.321 26.094C151.029 26.9129 150.708 27.7224 150.357 28.5226C150.298 28.6565 150.497 28.7748 150.556 28.6378C150.858 27.9528 151.135 27.2616 151.396 26.5611C151.436 26.7915 151.486 27.0156 151.539 27.2336C151.415 27.5418 151.281 27.847 151.163 28.149C151.107 28.286 151.331 28.3483 151.384 28.2113C151.464 28.0089 151.548 27.8065 151.636 27.601C151.688 27.7878 151.748 27.9715 151.807 28.149C151.729 28.3545 151.642 28.56 151.548 28.7624C151.486 28.8963 151.685 29.0146 151.748 28.8776C151.81 28.7437 151.869 28.6067 151.925 28.4728C152.043 28.7811 152.171 29.0706 152.305 29.3415C151.944 29.7805 150.407 31.5615 149.305 31.4961H149.308ZM152.662 32.6886C152.429 32.7416 151.751 31.9538 151.097 31.0011C151.695 30.5185 152.205 29.9456 152.46 29.6435C152.83 30.341 153.238 30.9108 153.611 31.3591C153.251 32.0535 152.88 32.6357 152.666 32.6886H152.662ZM154.993 32.206C154.305 31.6518 150.705 28.4261 151.822 22.23C152.199 22.4386 152.597 22.6099 153.005 22.7376C152.771 24.2445 153.005 25.7328 153.294 27.218C153.322 27.3644 153.546 27.3021 153.515 27.1558C153.232 25.7142 152.998 24.2663 153.226 22.8029C153.798 22.9617 154.389 23.0489 154.99 23.0489C155.466 23.0489 155.936 22.9929 156.396 22.8932C156.82 23.516 157.261 24.0639 157.713 24.5466C157.681 25.5491 157.548 26.533 157.308 27.5076C157.274 27.6508 157.495 27.7131 157.529 27.5699C157.756 26.6482 157.89 25.7204 157.934 24.777C158.074 24.9202 158.214 25.0541 158.354 25.1848C158.114 29.4567 155.559 31.7483 154.99 32.206H154.993ZM158.531 32.452C158.294 32.5205 157.548 31.7234 156.832 30.7707C157.187 30.2725 157.548 29.6716 157.859 28.9648C158.176 29.3291 158.858 30.0826 159.589 30.6835C159.216 31.5553 158.786 32.3773 158.534 32.452H158.531ZM161.571 31.1287C161.478 31.2097 161.359 31.2439 161.21 31.2346C160.295 31.163 158.646 29.4256 157.993 28.6503C158.08 28.4386 158.161 28.2144 158.235 27.984C158.307 28.177 158.382 28.3701 158.453 28.5631C158.506 28.7001 158.727 28.641 158.674 28.5008C158.565 28.2082 158.453 27.9155 158.344 27.6228C158.394 27.4453 158.441 27.2647 158.484 27.0779C158.662 27.5605 158.836 28.0463 159.013 28.532C159.063 28.669 159.287 28.6098 159.234 28.4697C159.013 27.8625 158.792 27.2585 158.571 26.6514C158.612 26.4334 158.646 26.2092 158.674 25.9788C158.889 26.5268 159.103 27.0748 159.321 27.6259C159.374 27.7629 159.598 27.7038 159.542 27.5636C159.278 26.888 159.013 26.2123 158.746 25.5367C158.889 25.6581 159.032 25.7733 159.175 25.8823C159.548 26.67 159.894 27.4702 160.208 28.2829C160.261 28.4199 160.485 28.3607 160.429 28.2206C160.158 27.5232 159.866 26.8382 159.555 26.1594C159.748 26.2933 159.941 26.4209 160.133 26.5362C160.264 26.8413 160.382 27.1526 160.513 27.4516C160.572 27.5886 160.771 27.4702 160.712 27.3363C160.625 27.1371 160.544 26.9316 160.46 26.7292C160.631 26.8226 160.799 26.9129 160.967 26.9939C161.058 27.1962 161.142 27.4017 161.219 27.6135C161.269 27.7505 161.493 27.6913 161.44 27.5512C161.391 27.4111 161.335 27.2772 161.279 27.1402C161.577 27.2741 161.873 27.3893 162.159 27.4858C162.215 28.0494 162.386 30.4001 161.562 31.1318L161.571 31.1287ZM164.785 29.5968C164.661 29.7992 163.622 29.7214 162.483 29.5096C162.564 28.7468 162.52 27.9778 162.489 27.5854C163.242 27.8158 163.936 27.931 164.515 27.984C164.751 28.7312 164.9 29.4038 164.785 29.5937V29.5968ZM166.092 27.6072C165.215 27.7038 160.389 27.9684 156.801 22.7967C157.215 22.6784 157.616 22.5165 157.999 22.3203C158.892 23.5533 160.115 24.4407 161.366 25.2845C161.49 25.3685 161.605 25.1693 161.481 25.0852C160.264 24.2694 159.069 23.407 158.201 22.2114C158.718 21.9218 159.197 21.5606 159.62 21.1372C159.956 20.8009 160.252 20.4273 160.504 20.0318C161.244 20.1719 161.944 20.2498 162.604 20.2716C163.292 21.0002 163.895 21.7941 164.412 22.6535C164.49 22.7811 164.689 22.6659 164.611 22.5383C164.123 21.7287 163.556 20.9784 162.921 20.2809C162.956 20.2809 162.993 20.2809 163.027 20.2809C163.192 20.2809 163.351 20.2778 163.51 20.2716C166.357 23.463 166.17 26.888 166.092 27.6135V27.6072ZM168.765 25.2751C168.647 25.49 167.555 25.4557 166.375 25.2907C166.273 24.6867 166.105 24.0079 165.825 23.2887C166.102 23.3073 166.556 23.3323 167.072 23.3323C167.452 23.3323 167.863 23.3198 168.261 23.2793C168.613 24.1605 168.89 25.0447 168.765 25.2751ZM169.979 22.1896C169.972 22.3141 169.913 22.42 169.798 22.5196C169.101 23.1174 166.708 23.0551 165.697 22.968C165.607 22.7562 165.507 22.5414 165.398 22.3266C165.585 22.4106 165.772 22.4947 165.961 22.5819C166.095 22.641 166.214 22.4449 166.077 22.3826L165.221 21.9965C165.131 21.8346 165.037 21.6727 164.935 21.5108C165.401 21.7287 165.868 21.9467 166.335 22.1615C166.469 22.2238 166.587 22.0245 166.45 21.9623C165.865 21.6883 165.28 21.4174 164.695 21.1434C164.571 20.9597 164.437 20.776 164.294 20.5954C164.832 20.832 165.373 21.0655 165.912 21.3022C166.046 21.3613 166.164 21.1621 166.027 21.1029C165.361 20.8133 164.695 20.5207 164.029 20.2311C164.216 20.2155 164.396 20.1937 164.577 20.1688C165.398 20.4615 166.207 20.7822 167.007 21.134C167.141 21.1932 167.259 20.9939 167.122 20.9348C166.438 20.6328 165.744 20.3525 165.044 20.0941C165.274 20.0536 165.501 20.0038 165.719 19.9509C166.027 20.0754 166.332 20.2093 166.634 20.3276C166.771 20.3837 166.833 20.1595 166.696 20.1066C166.494 20.0256 166.291 19.9384 166.086 19.8544C166.273 19.8014 166.456 19.7454 166.634 19.6831C166.839 19.7609 167.044 19.8481 167.247 19.9415C167.38 20.0038 167.499 19.8045 167.362 19.7423C167.228 19.68 167.091 19.6208 166.957 19.5648C167.265 19.4465 167.552 19.3188 167.825 19.1849C168.261 19.5461 170.047 21.0873 169.979 22.1864V22.1896ZM169.484 20.3992C169.002 19.8014 168.429 19.2877 168.127 19.0355C168.824 18.665 169.394 18.2571 169.845 17.8834C170.539 18.2446 171.121 18.6151 171.173 18.83C171.229 19.0635 170.439 19.7423 169.487 20.3961L169.484 20.3992Z" fill="#7A8FA4"/>
<path d="M155 10.7609C151.837 10.7609 149.265 13.3346 149.265 16.5C149.265 19.6654 151.837 22.2391 155 22.2391C158.164 22.2391 160.736 19.6654 160.736 16.5C160.736 13.3346 158.164 10.7609 155 10.7609ZM155 21.8446C152.056 21.8446 149.659 19.4459 149.659 16.5C149.659 13.5541 152.056 11.1553 155 11.1553C157.945 11.1553 160.342 13.5541 160.342 16.5C160.342 19.4459 157.945 21.8446 155 21.8446Z" fill="#7A8FA4"/>
<path d="M155 11.4783C152.231 11.4783 149.981 13.7324 149.981 16.5C149.981 19.2676 152.234 21.5217 155 21.5217C157.766 21.5217 160.019 19.2676 160.019 16.5C160.019 13.7324 157.766 11.4783 155 11.4783ZM154.936 11.8044L154.561 13.3255C154.229 14.6786 153.173 15.7346 151.821 16.0673L150.301 16.4419C150.336 13.9003 152.396 11.84 154.936 11.8044ZM150.304 16.5678L151.824 16.9424C153.177 17.2751 154.232 18.3311 154.565 19.6842L154.939 21.2053C152.399 21.1697 150.34 19.1094 150.304 16.5678ZM155.075 21.202L155.549 19.5453C155.914 18.2665 156.93 17.2783 158.218 16.9489L159.696 16.5711C159.661 19.1094 157.608 21.1633 155.075 21.2053V21.202ZM158.179 16.0673C156.827 15.7346 155.772 14.6786 155.439 13.3255L155.065 11.8044C157.605 11.84 159.664 13.9003 159.7 16.4419L158.179 16.0673Z" fill="#7A8FA4"/>
<path d="M153.062 8.52273C153.23 7.40582 153.397 6.28891 153.564 5.172C153.588 5.02115 153.373 4.95696 153.352 5.10781C153.185 6.22472 153.018 7.34163 152.85 8.45854C152.827 8.60939 153.041 8.67358 153.062 8.52273Z" fill="#7A8FA4"/>
<path d="M153.864 9.21717C154.004 7.85605 154.141 6.49188 154.282 5.13076C154.298 4.98394 154 4.987 153.984 5.13076C153.843 6.49188 153.707 7.85605 153.566 9.21717C153.55 9.36399 153.848 9.36093 153.864 9.21717Z" fill="#7A8FA4"/>
<path d="M156.432 7.0742C156.455 6.41743 156.275 5.77174 156.147 5.12052C156.124 4.99027 155.689 4.9875 155.718 5.12052C155.846 5.77174 156.026 6.41743 156.002 7.0742C156.002 7.20722 156.426 7.20722 156.432 7.0742Z" fill="#7A8FA4"/>
<path d="M157.865 7.01599C157.726 6.38141 157.592 5.74683 157.453 5.11225C157.419 4.95361 157.117 5.02112 157.155 5.17976C157.293 5.81434 157.428 6.44892 157.567 7.0835C157.6 7.24215 157.903 7.17464 157.865 7.01599Z" fill="#7A8FA4"/>
<path d="M155 9.32612C155.396 9.32612 155.717 8.84452 155.717 8.25004C155.717 7.65556 155.396 7.17395 155 7.17395C154.604 7.17395 154.283 7.65556 154.283 8.25004C154.283 8.84452 154.604 9.32612 155 9.32612Z" fill="#7A8FA4"/>
<path d="M147.611 12.8637C147.697 12.9814 147.895 12.8668 147.808 12.749C147.172 11.8626 146.533 10.9793 145.898 10.0929C145.811 9.97518 145.614 10.0899 145.7 10.2076C146.336 11.094 146.975 11.9773 147.611 12.8637Z" fill="#7A8FA4"/>
<path d="M149.029 12.1558C149.147 12.2738 149.345 12.1034 149.227 11.9854C148.124 10.8742 147.016 9.75972 145.913 8.64854C145.795 8.53053 145.597 8.70098 145.715 8.81898C146.819 9.93017 147.926 11.0446 149.029 12.1558Z" fill="#7A8FA4"/>
<path d="M147.644 10.0104C147.742 10.1086 147.897 9.95991 147.799 9.86449C147.394 9.45758 146.988 9.04786 146.583 8.64094C146.485 8.54272 146.33 8.69145 146.428 8.78687C146.833 9.19378 147.239 9.60351 147.644 10.0104Z" fill="#7A8FA4"/>
<path d="M147.163 8.75008C147.527 8.93268 147.891 9.1175 148.255 9.3001C148.409 9.37804 148.652 9.26002 148.498 9.18431C148.134 9.00171 147.77 8.81688 147.405 8.63428C147.251 8.55634 147.008 8.67436 147.163 8.75008Z" fill="#7A8FA4"/>
<path d="M149.043 9.29562C149.16 9.38656 149.343 9.24747 149.227 9.15653C148.648 8.69913 147.984 8.31931 147.341 7.91541C147.214 7.83516 147.027 7.97426 147.158 8.0545C147.8 8.4584 148.461 8.83823 149.043 9.29562Z" fill="#7A8FA4"/>
<path d="M149.838 7.87886C149.942 7.9281 150.041 7.8138 149.937 7.76632C149.521 7.57288 149.105 7.37945 148.69 7.18601C148.586 7.13678 148.487 7.25108 148.591 7.29856C149.007 7.49199 149.422 7.68543 149.838 7.87886Z" fill="#7A8FA4"/>
<path d="M151.957 9.31086C152.056 9.36019 152.199 9.27468 152.097 9.22535C151.69 9.02474 151.281 8.82414 150.874 8.62353C150.774 8.5742 150.631 8.6597 150.734 8.70903C151.14 8.90964 151.55 9.11025 151.957 9.31086Z" fill="#7A8FA4"/>
<path d="M149.264 11.4775C149.66 11.4775 149.981 11.1565 149.981 10.7605C149.981 10.3645 149.66 10.0435 149.264 10.0435C148.868 10.0435 148.547 10.3645 148.547 10.7605C148.547 11.1565 148.868 11.4775 149.264 11.4775Z" fill="#7A8FA4"/>
<path d="M147.027 18.438C145.911 18.2709 144.795 18.1038 143.678 17.9367C143.528 17.9128 143.464 18.1277 143.614 18.1486C144.731 18.3157 145.847 18.4828 146.963 18.6499C147.114 18.6738 147.178 18.4589 147.027 18.438Z" fill="#7A8FA4"/>
<path d="M147.721 17.6362C146.361 17.4955 144.998 17.3588 143.637 17.218C143.49 17.202 143.494 17.4995 143.637 17.5156C144.998 17.6563 146.361 17.793 147.721 17.9338C147.868 17.9498 147.865 17.6523 147.721 17.6362Z" fill="#7A8FA4"/>
<path d="M145.58 15.0673C144.923 15.0441 144.278 15.2239 143.627 15.3515C143.497 15.3748 143.494 15.8098 143.627 15.7808C144.278 15.6532 144.923 15.4734 145.58 15.4966C145.712 15.4966 145.712 15.0731 145.58 15.0673Z" fill="#7A8FA4"/>
<path d="M143.686 14.3441C144.32 14.2054 144.955 14.0709 145.589 13.9322C145.747 13.8985 145.68 13.5959 145.521 13.6337C144.887 13.7724 144.253 13.9069 143.619 14.0457C143.46 14.0793 143.528 14.382 143.686 14.3441Z" fill="#7A8FA4"/>
<path d="M146.754 17.2165C147.348 17.2165 147.83 16.8957 147.83 16.4996C147.83 16.1035 147.348 15.7826 146.754 15.7826C146.16 15.7826 145.679 16.1035 145.679 16.4996C145.679 16.8957 146.16 17.2165 146.754 17.2165Z" fill="#7A8FA4"/>
<path d="M151.251 23.6954C150.365 24.3316 149.482 24.9709 148.596 25.6071C148.479 25.6935 148.593 25.8912 148.711 25.8047C149.597 25.1685 150.48 24.5292 151.365 23.893C151.483 23.8065 151.368 23.6089 151.251 23.6954Z" fill="#7A8FA4"/>
<path d="M150.488 22.2754C149.377 23.3796 148.264 24.4876 147.153 25.5919C147.035 25.7099 147.206 25.9079 147.323 25.7898C148.434 24.6856 149.548 23.5776 150.658 22.4734C150.776 22.3553 150.606 22.1573 150.488 22.2754Z" fill="#7A8FA4"/>
<path d="M148.369 23.7054C147.962 24.1108 147.552 24.5161 147.146 24.9215C147.047 25.0198 147.196 25.1748 147.291 25.0765C147.698 24.6711 148.108 24.2657 148.515 23.8604C148.613 23.762 148.464 23.607 148.369 23.7054Z" fill="#7A8FA4"/>
<path d="M147.255 24.3412C147.437 23.977 147.622 23.6128 147.805 23.2485C147.883 23.0945 147.765 22.8517 147.689 23.0057C147.506 23.37 147.321 23.7342 147.139 24.0984C147.061 24.2525 147.179 24.4953 147.255 24.3412Z" fill="#7A8FA4"/>
<path d="M147.662 22.2764C147.204 22.8559 146.824 23.5201 146.421 24.1632C146.34 24.2904 146.479 24.4776 146.56 24.3469C146.964 23.7039 147.343 23.0431 147.801 22.4601C147.892 22.3435 147.753 22.1598 147.662 22.2764Z" fill="#7A8FA4"/>
<path d="M146.271 21.566C146.078 21.9816 145.884 22.3973 145.691 22.813C145.642 22.9169 145.756 23.0155 145.803 22.9116C145.997 22.4959 146.19 22.0802 146.384 21.6646C146.433 21.5606 146.319 21.462 146.271 21.566Z" fill="#7A8FA4"/>
<path d="M147.214 20.7682C147.414 20.3614 147.615 19.9518 147.815 19.545C147.865 19.4453 147.779 19.3025 147.73 19.4049C147.529 19.8117 147.329 20.2213 147.128 20.6281C147.079 20.7278 147.164 20.8706 147.214 20.7682Z" fill="#7A8FA4"/>
<path d="M149.771 22.7455C150.051 22.4652 150.051 22.0123 149.771 21.732C149.49 21.4517 149.037 21.4517 148.757 21.732C148.477 22.0123 148.477 22.4652 148.757 22.7455C149.037 23.0258 149.49 23.0258 149.771 22.7455Z" fill="#7A8FA4"/>
<path d="M156.938 24.4773C156.771 25.5942 156.604 26.7111 156.436 27.828C156.413 27.9789 156.627 28.0431 156.648 27.8922C156.815 26.7753 156.983 25.6584 157.15 24.5415C157.174 24.3907 156.959 24.3265 156.938 24.4773Z" fill="#7A8FA4"/>
<path d="M156.136 23.7829C155.995 25.144 155.858 26.5082 155.717 27.8693C155.701 28.0161 155.999 28.0131 156.015 27.8693C156.156 26.5082 156.292 25.144 156.433 23.7829C156.449 23.6361 156.152 23.6392 156.136 23.7829Z" fill="#7A8FA4"/>
<path d="M153.567 25.9258C153.544 26.5826 153.724 27.2283 153.852 27.8795C153.875 28.0097 154.31 28.0125 154.281 27.8795C154.153 27.2283 153.974 26.5826 153.997 25.9258C153.997 25.7928 153.573 25.7928 153.567 25.9258Z" fill="#7A8FA4"/>
<path d="M152.135 25.984C152.274 26.6186 152.408 27.2532 152.547 27.8878C152.581 28.0464 152.883 27.9789 152.846 27.8203C152.707 27.1857 152.572 26.5511 152.434 25.9165C152.4 25.7579 152.097 25.8254 152.135 25.984Z" fill="#7A8FA4"/>
<path d="M155 25.8261C155.396 25.8261 155.717 25.3443 155.717 24.75C155.717 24.1557 155.396 23.674 155 23.674C154.604 23.674 154.283 24.1557 154.283 24.75C154.283 25.3443 154.604 25.8261 155 25.8261Z" fill="#7A8FA4"/>
<path d="M162.389 20.1364C162.302 20.0186 162.105 20.1333 162.191 20.2511C162.827 21.1375 163.466 22.0207 164.102 22.9071C164.188 23.0249 164.386 22.9102 164.299 22.7924C163.664 21.9061 163.025 21.0228 162.389 20.1364Z" fill="#7A8FA4"/>
<path d="M160.969 20.8362C160.851 20.7418 160.654 20.8781 160.772 20.9725C161.875 21.8615 162.983 22.7531 164.086 23.642C164.204 23.7364 164.402 23.6001 164.284 23.5057C163.18 22.6167 162.073 21.7251 160.969 20.8362Z" fill="#7A8FA4"/>
<path d="M162.356 22.9887C162.258 22.8906 162.103 23.0391 162.201 23.1343C162.607 23.5432 163.012 23.9493 163.417 24.3583C163.516 24.4563 163.671 24.3078 163.572 24.2126C163.167 23.8065 162.762 23.3976 162.356 22.9887Z" fill="#7A8FA4"/>
<path d="M162.838 24.2496C162.474 24.067 162.109 23.8821 161.745 23.6995C161.591 23.6216 161.348 23.7396 161.502 23.8153C161.867 23.9979 162.231 24.1827 162.595 24.3653C162.749 24.4433 162.992 24.3253 162.838 24.2496Z" fill="#7A8FA4"/>
<path d="M160.956 23.7036C160.84 23.6126 160.656 23.7517 160.773 23.8427C161.352 24.3001 162.016 24.6799 162.658 25.0838C162.785 25.164 162.973 25.0249 162.842 24.9447C162.199 24.5408 161.539 24.161 160.956 23.7036Z" fill="#7A8FA4"/>
<path d="M160.161 25.1202C160.057 25.0727 159.959 25.1853 160.063 25.2329C160.478 25.4265 160.894 25.6201 161.31 25.8137C161.414 25.8629 161.512 25.7485 161.408 25.701C160.993 25.5074 160.577 25.3138 160.161 25.1202Z" fill="#7A8FA4"/>
<path d="M158.044 23.6888C157.944 23.6394 157.801 23.7249 157.904 23.7743C158.31 23.9749 158.72 24.1755 159.127 24.3761C159.226 24.4254 159.369 24.3399 159.267 24.2906C158.86 24.09 158.45 23.8894 158.044 23.6888Z" fill="#7A8FA4"/>
<path d="M160.736 22.9557C161.132 22.9557 161.453 22.6347 161.453 22.2388C161.453 21.8428 161.132 21.5218 160.736 21.5218C160.34 21.5218 160.019 21.8428 160.019 22.2388C160.019 22.6347 160.34 22.9557 160.736 22.9557Z" fill="#7A8FA4"/>
<path d="M162.973 14.5616C164.089 14.7287 165.205 14.8958 166.321 15.063C166.472 15.0868 166.536 14.872 166.386 14.8511C165.269 14.6839 164.153 14.5168 163.037 14.3497C162.886 14.3258 162.822 14.5407 162.973 14.5616Z" fill="#7A8FA4"/>
<path d="M162.279 15.3634C163.639 15.5042 165.003 15.6409 166.363 15.7816C166.51 15.7977 166.507 15.5001 166.363 15.484C165.003 15.3433 163.639 15.2066 162.279 15.0659C162.132 15.0498 162.135 15.3473 162.279 15.3634Z" fill="#7A8FA4"/>
<path d="M164.421 17.9323C165.077 17.9555 165.723 17.7757 166.374 17.6481C166.504 17.6249 166.506 17.1898 166.374 17.2188C165.723 17.3464 165.077 17.5263 164.421 17.5031C164.288 17.5031 164.288 17.9265 164.421 17.9323Z" fill="#7A8FA4"/>
<path d="M166.314 18.6555C165.68 18.7942 165.046 18.9287 164.412 19.0675C164.253 19.1011 164.321 19.4038 164.479 19.3659C165.113 19.2272 165.748 19.0927 166.382 18.954C166.54 18.9203 166.473 18.6177 166.314 18.6555Z" fill="#7A8FA4"/>
<path d="M163.245 15.7826C162.651 15.7826 162.17 16.1035 162.17 16.4996C162.17 16.8957 162.651 17.2165 163.245 17.2165C163.84 17.2165 164.321 16.8957 164.321 16.4996C164.321 16.1035 163.84 15.7826 163.245 15.7826Z" fill="#7A8FA4"/>
<path d="M158.633 9.10705C158.516 9.19353 158.63 9.39118 158.748 9.30471C158.77 9.28927 158.791 9.27382 158.813 9.25838L161.402 7.39302C161.52 7.30655 161.406 7.10889 161.288 7.19537L158.76 9.0144C158.717 9.04529 158.677 9.07617 158.633 9.10705Z" fill="#7A8FA4"/>
<path d="M159.334 10.5267C159.239 10.6447 159.376 10.8427 159.47 10.7247C160.358 9.62044 161.247 8.51241 162.138 7.40819C162.232 7.29016 162.096 7.09216 162.002 7.21019C161.142 8.28015 160.282 9.34629 159.425 10.4162C159.394 10.4543 159.365 10.4924 159.334 10.5305V10.5267Z" fill="#7A8FA4"/>
<path d="M161.631 9.2938C162.038 8.88845 162.448 8.48309 162.855 8.07773C162.953 7.97937 162.804 7.82438 162.709 7.92274C162.302 8.3281 161.892 8.73346 161.485 9.13881C161.387 9.23717 161.536 9.39216 161.631 9.2938Z" fill="#7A8FA4"/>
<path d="M162.604 8.65797C162.239 9.02217 161.869 9.38638 161.504 9.75059C161.348 9.90468 161.584 10.1475 161.736 9.99339C162.101 9.62919 162.471 9.26498 162.836 8.90077C162.992 8.74668 162.756 8.50388 162.604 8.65797Z" fill="#7A8FA4"/>
<path d="M162.339 10.7236C162.796 10.1441 163.176 9.47989 163.58 8.83684C163.66 8.70964 163.521 8.52238 163.441 8.65311C163.037 9.29616 162.657 9.95688 162.2 10.5399C162.109 10.6565 162.248 10.8402 162.339 10.7236Z" fill="#7A8FA4"/>
<path d="M163.728 11.4333C163.921 11.0176 164.115 10.602 164.309 10.1863C164.357 10.0824 164.244 9.98377 164.196 10.0877C164.003 10.5034 163.809 10.919 163.615 11.3347C163.567 11.4386 163.68 11.5372 163.728 11.4333Z" fill="#7A8FA4"/>
<path d="M162.787 12.231C162.586 12.6378 162.385 13.0474 162.185 13.4542C162.135 13.5539 162.221 13.6967 162.27 13.5943C162.471 13.1875 162.671 12.7779 162.872 12.3711C162.921 12.2714 162.836 12.1286 162.787 12.231Z" fill="#7A8FA4"/>
<path d="M160.229 10.2537C159.948 10.534 159.948 10.987 160.229 11.2673C160.509 11.5475 160.962 11.5475 161.242 11.2673C161.523 10.987 161.523 10.534 161.242 10.2537C160.962 9.97345 160.509 9.97345 160.229 10.2537Z" fill="#7A8FA4"/>
<path d="M117.727 15.479C118.404 15.6925 119.321 15.7826 120.134 15.7826C120.985 15.7826 121.717 15.6835 121.923 15.5271C122.002 15.467 122.019 15.3979 122.019 15.3528C122.019 15.0131 121.822 15.0071 121.235 14.9891C120.945 14.98 120.55 14.965 119.978 14.9199C117.808 14.7486 117.602 13.1494 117.593 13.0802C117.585 13.0081 117.521 12.954 117.451 12.963C117.381 12.972 117.329 13.0382 117.338 13.1103C117.338 13.1253 117.498 14.3818 118.865 14.941C118.865 14.941 119.182 15.0792 119.144 15.2536C119.104 15.4279 118.801 15.4309 118.796 15.4309C118.444 15.3859 118.107 15.3167 117.808 15.2235C117.033 14.98 116.324 14.2376 116.002 13.3357C115.717 12.5361 115.778 11.7396 116.176 11.0903C116.699 10.2365 117.881 10.1343 118.656 10.5732C119.324 10.952 119.53 11.6043 119.208 12.3227C119.179 12.3889 119.208 12.47 119.272 12.5001C119.336 12.5301 119.414 12.5001 119.443 12.4339C119.899 11.4209 119.4 10.6844 118.781 10.3357C117.907 9.83975 116.577 9.93293 115.958 10.943C115.517 11.6644 115.444 12.5452 115.761 13.4259C116.112 14.4059 116.888 15.2115 117.736 15.479H117.727Z" fill="#7A8FA4"/>
<path d="M135.445 12.5265C136.032 9.83621 135.175 8.29844 134.614 7.6203C133.977 6.84982 133.092 6.42638 132.191 6.45822C131.221 6.49324 130.46 6.94534 130.158 7.66487C129.908 8.26024 130.012 8.9161 130.428 9.37774C131.062 10.0782 132.125 9.97629 132.645 9.68657C132.902 9.5433 133.019 9.36182 132.968 9.18672C132.898 8.94157 132.654 8.93838 132.416 8.93201C132.061 8.92246 131.693 8.9161 131.646 8.24432C131.617 7.83679 131.899 7.49613 132.369 7.38151C133.117 7.19367 134.192 7.60438 134.779 8.94793C135.356 10.266 135.309 11.9725 134.655 13.2938C134.376 13.8605 133.894 14.545 133.089 15.0385C132.949 14.8538 132.838 14.6469 132.772 14.4209C132.492 13.4848 133.155 13.1537 133.685 12.8895C133.967 12.7494 134.189 12.6379 134.189 12.4533C134.189 12.2018 133.726 12.0235 133.292 11.9821C132.619 11.9184 131.849 12.1381 131.7 12.9372C131.554 13.7172 131.918 14.5673 132.622 15.2868C132.381 15.3951 132.115 15.4906 131.823 15.5606C130.409 15.9045 129.086 15.5606 128.195 14.6182C127.425 13.8032 127.108 12.6761 127.384 11.7465C127.688 10.7245 128.582 10.508 129.258 10.6353C129.832 10.7404 130.396 11.132 130.355 11.6701C130.307 12.3259 130.038 12.6316 129.876 12.8162C129.787 12.9181 129.724 12.9913 129.737 13.0773C129.749 13.1505 129.813 13.1983 129.86 13.2269C129.984 13.3002 130.155 13.2524 130.336 13.0964C130.748 12.7366 131.214 11.7306 130.723 10.5653C130.345 9.67384 129.286 8.97659 128.202 8.90018C127.139 8.82695 126.188 9.32999 125.49 10.3265C125.398 10.457 125.208 10.4698 125.11 10.3424C124.919 10.1036 124.577 9.77572 124.028 9.62289C123.188 9.38411 122.338 9.51146 121.723 10.0623C121.057 10.6544 120.873 11.4122 120.981 11.8993C121.028 12.1126 121.136 12.2559 121.272 12.2941C121.463 12.3482 121.523 12.1572 121.59 11.9534C121.71 11.5746 121.894 10.9983 122.899 10.9983C123.353 10.9983 123.724 11.1352 124.025 11.323C124.513 11.6319 124.84 12.1381 124.976 12.7016C125.049 13.0136 125.176 13.3288 125.354 13.644C126.042 14.8634 127.393 15.8758 128.544 16.3216H124.564C124.469 14.7456 123.102 13.7077 121.025 13.6663C119.633 13.6376 118.926 13.5071 118.545 13.4371C118.272 13.3861 118.158 13.367 118.085 13.453C118.069 13.4721 118.041 13.5198 118.079 13.5963C118.209 13.8541 119.214 14.4177 120.572 14.3413C121.494 14.2903 122.179 14.319 122.519 14.6437C122.696 14.8125 122.782 15.064 122.782 15.4174C122.782 16.0255 121.961 16.1178 121.301 16.191C121.117 16.2101 120.955 16.2292 120.825 16.2579C120.651 16.2961 120.476 16.3216 120.299 16.3216H0.177591C0.0792816 16.3216 0 16.4012 0 16.4999C0 16.5986 0.0792816 16.6782 0.177591 16.6782H120.324C120.495 16.6782 120.664 16.7004 120.832 16.7386C120.958 16.7673 121.12 16.7832 121.298 16.8055C121.957 16.8787 122.779 16.9711 122.779 17.5792C122.779 17.9326 122.693 18.1841 122.516 18.3528C122.176 18.6744 121.491 18.7062 120.568 18.6553C119.211 18.5789 118.206 19.1424 118.076 19.4003C118.038 19.4767 118.069 19.5244 118.082 19.5436C118.155 19.6327 118.269 19.6104 118.542 19.5595C118.923 19.4894 119.63 19.3589 121.022 19.3302C123.096 19.2888 124.46 18.2541 124.561 16.6813H128.525C127.377 17.1302 126.036 18.1395 125.351 19.3525C125.173 19.6677 125.046 19.9829 124.973 20.2949C124.84 20.8585 124.51 21.3647 124.022 21.6735C123.724 21.8645 123.35 21.9982 122.896 21.9982C121.891 21.9982 121.707 21.4252 121.586 21.0431C121.523 20.8393 121.46 20.6483 121.269 20.7024C121.133 20.7407 121.025 20.8871 120.978 21.0972C120.867 21.5844 121.054 22.3389 121.72 22.9343C122.335 23.4851 123.185 23.6092 124.025 23.3736C124.574 23.2176 124.919 22.8929 125.107 22.6541C125.205 22.5299 125.395 22.5427 125.487 22.6732C126.185 23.6665 127.136 24.1696 128.199 24.0995C129.283 24.0263 130.345 23.3259 130.72 22.4344C131.214 21.2692 130.745 20.2631 130.333 19.9033C130.152 19.7473 129.981 19.6996 129.857 19.7728C129.81 19.8014 129.746 19.846 129.733 19.9224C129.721 20.0116 129.784 20.0848 129.873 20.1835C130.035 20.3682 130.304 20.6738 130.352 21.3297C130.393 21.8677 129.829 22.2561 129.255 22.3644C128.579 22.4885 127.685 22.272 127.38 21.2532C127.104 20.3236 127.422 19.1965 128.192 18.3815C129.083 17.4391 130.406 17.0952 131.82 17.4391C132.112 17.5091 132.378 17.6046 132.619 17.7129C131.915 18.4292 131.551 19.2825 131.696 20.0625C131.846 20.8616 132.619 21.0813 133.288 21.0176C133.723 20.9763 134.186 20.798 134.186 20.5464C134.186 20.3618 133.964 20.2504 133.682 20.1103C133.152 19.846 132.489 19.5181 132.768 18.5789C132.835 18.3528 132.946 18.1459 133.085 17.9612C133.891 18.4579 134.37 19.1392 134.652 19.7059C135.302 21.0272 135.353 22.7337 134.776 24.0518C134.189 25.3953 133.114 25.806 132.366 25.6182C131.896 25.5004 131.611 25.1629 131.643 24.7554C131.693 24.0836 132.058 24.0741 132.413 24.0677C132.651 24.0613 132.895 24.055 132.965 23.813C133.016 23.6379 132.895 23.4564 132.641 23.3131C132.121 23.0234 131.056 22.9215 130.425 23.622C130.006 24.0836 129.905 24.7427 130.155 25.3348C130.46 26.0576 131.221 26.5097 132.188 26.5415C133.089 26.5765 133.97 26.1499 134.611 25.3794C135.172 24.7013 136.028 23.1635 135.442 20.4732C135.128 19.0341 134.408 18.0981 133.545 17.49C134.329 16.8437 135.375 16.5699 135.391 16.5635C135.391 16.5635 135.448 16.5635 135.448 16.4967C135.448 16.4298 135.391 16.4298 135.391 16.4298C135.375 16.4266 134.329 16.1496 133.545 15.5033C134.411 14.8952 135.128 13.9592 135.442 12.5201L135.445 12.5265ZM134.475 16.4999C133.983 16.7004 133.536 16.952 133.155 17.2417C132.4 16.8119 131.57 16.5986 130.815 16.4999C131.57 16.4012 132.4 16.1878 133.155 15.758C133.539 16.0478 133.983 16.2993 134.475 16.4999Z" fill="#7A8FA4"/>
<path d="M119.275 20.9103C119.211 20.9441 119.182 21.0354 119.211 21.1098C119.533 21.9181 119.327 22.6553 118.66 23.078C117.886 23.5718 116.705 23.4568 116.183 22.4964C115.786 21.7659 115.725 20.8697 116.009 19.9702C116.331 18.9523 117.042 18.1203 117.813 17.8464C118.109 17.7416 118.448 17.6638 118.799 17.6131C118.805 17.6131 119.11 17.6131 119.147 17.8126C119.188 18.0121 118.869 18.1643 118.869 18.1643C117.5 18.7899 117.343 20.2069 117.343 20.2238C117.335 20.305 117.387 20.3827 117.456 20.3895C117.526 20.3997 117.59 20.3388 117.599 20.2576C117.607 20.1798 117.813 18.3807 119.98 18.188C120.551 18.1372 120.946 18.1237 121.236 18.1102C121.822 18.0899 122.019 18.0798 122.019 17.701C122.019 17.6503 122.002 17.5725 121.923 17.5049C121.72 17.329 120.989 17.2174 120.137 17.2174C119.327 17.2174 118.411 17.3189 117.732 17.559C116.885 17.8599 116.11 18.7663 115.759 19.8687C115.446 20.8562 115.516 21.8504 115.957 22.6621C116.577 23.7983 117.903 23.9032 118.776 23.3452C119.394 22.9529 119.89 22.1244 119.438 20.9847C119.409 20.9103 119.33 20.8765 119.266 20.9103H119.275Z" fill="#7A8FA4"/>
<path d="M190.316 12.5001C190.387 12.47 190.419 12.3889 190.387 12.3227C190.029 11.6043 190.258 10.949 190.999 10.5732C191.86 10.1343 193.171 10.2365 193.752 11.0903C194.193 11.7396 194.261 12.5361 193.945 13.3357C193.587 14.2406 192.798 14.98 191.94 15.2235C191.612 15.3167 191.234 15.3859 190.844 15.4309C190.838 15.4309 190.5 15.4309 190.458 15.2536C190.413 15.0762 190.764 14.941 190.764 14.941C192.285 14.3848 192.459 13.1253 192.459 13.1103C192.469 13.0382 192.411 12.969 192.333 12.963C192.256 12.954 192.185 13.0081 192.176 13.0802C192.166 13.1494 191.937 14.7486 189.529 14.9199C188.895 14.965 188.456 14.977 188.134 14.9891C187.483 15.0071 187.264 15.0161 187.264 15.3528C187.264 15.3979 187.283 15.467 187.37 15.5271C187.596 15.6835 188.408 15.7826 189.355 15.7826C190.255 15.7826 191.273 15.6925 192.027 15.479C192.968 15.2115 193.829 14.4059 194.219 13.4259C194.567 12.5482 194.49 11.6644 194 10.943C193.31 9.93293 191.837 9.83975 190.867 10.3357C190.181 10.6844 189.629 11.4209 190.132 12.4339C190.164 12.5001 190.251 12.5301 190.322 12.5001H190.316Z" fill="#7A8FA4"/>
<path d="M309.818 16.3188H189.064C188.885 16.3188 188.707 16.2933 188.535 16.2551C188.404 16.2265 188.242 16.2074 188.057 16.1883C187.394 16.1151 186.568 16.0228 186.568 15.4149C186.568 15.0616 186.654 14.8101 186.832 14.6414C187.174 14.32 187.862 14.2882 188.79 14.3391C190.154 14.4155 191.165 13.8521 191.295 13.5943C191.334 13.5179 191.302 13.4702 191.289 13.4511C191.216 13.362 191.101 13.3842 190.827 13.4352C190.444 13.5052 189.733 13.6357 188.334 13.6643C186.246 13.7057 184.872 14.7433 184.776 16.3188H180.776C181.933 15.8732 183.291 14.8611 183.983 13.6421C184.161 13.327 184.289 13.0119 184.362 12.7C184.496 12.1366 184.827 11.6305 185.318 11.3218C185.618 11.1308 185.994 10.9972 186.45 10.9972C187.46 10.9972 187.645 11.5701 187.767 11.952C187.83 12.1557 187.894 12.3467 188.085 12.2926C188.222 12.2544 188.328 12.108 188.379 11.8979C188.49 11.4109 188.302 10.6566 187.633 10.0614C187.014 9.51082 186.16 9.38669 185.315 9.62222C184.764 9.77817 184.416 10.1028 184.228 10.3415C184.129 10.4657 183.938 10.4529 183.845 10.3256C183.144 9.33258 182.188 8.82971 181.12 8.89973C180.03 8.97293 178.962 9.67314 178.585 10.5643C178.088 11.7292 178.56 12.735 178.974 13.0946C179.156 13.2506 179.328 13.2983 179.453 13.2251C179.5 13.1965 179.564 13.1519 179.577 13.0755C179.59 12.9864 179.526 12.9132 179.437 12.8145C179.274 12.6299 179.003 12.3244 178.955 11.6687C178.914 11.1308 179.478 10.7426 180.058 10.6343C180.737 10.5102 181.636 10.7266 181.942 11.7451C182.22 12.6745 181.901 13.8012 181.126 14.616C180.23 15.5581 178.901 15.9018 177.479 15.5581C177.186 15.4881 176.918 15.3926 176.676 15.2844C177.384 14.5682 177.75 13.7153 177.604 12.9355C177.454 12.1366 176.676 11.917 176.003 11.9806C175.567 12.022 175.101 12.2003 175.101 12.4517C175.101 12.6363 175.324 12.7477 175.608 12.8877C176.14 13.1519 176.807 13.4797 176.526 14.4187C176.459 14.6446 176.348 14.8515 176.207 15.0361C175.398 14.5396 174.916 13.8585 174.633 13.2919C173.979 11.9711 173.928 10.2651 174.508 8.94747C175.098 7.60434 176.179 7.19376 176.931 7.38155C177.403 7.49931 177.69 7.83668 177.658 8.24408C177.607 8.91564 177.24 8.92519 176.883 8.93155C176.644 8.93792 176.399 8.94429 176.328 9.18618C176.277 9.36123 176.399 9.54265 176.654 9.68587C177.176 9.9755 178.248 10.0774 178.882 9.37714C179.3 8.91564 179.405 8.25681 179.153 7.66481C178.847 6.94232 178.082 6.49037 177.11 6.45854C176.204 6.42353 175.318 6.85002 174.674 7.62025C174.11 8.29818 173.249 9.83546 173.839 12.5249C174.154 13.9635 174.878 14.8992 175.745 15.5072C174.958 16.1533 173.906 16.427 173.89 16.4333C173.89 16.4333 173.832 16.4333 173.832 16.5002C173.832 16.567 173.89 16.567 173.89 16.567C173.906 16.5702 174.958 16.8471 175.745 17.4932C174.875 18.1011 174.154 19.0368 173.839 20.4755C173.249 23.1649 174.11 24.7022 174.674 25.3801C175.315 26.1503 176.204 26.5737 177.11 26.5418C178.085 26.5068 178.85 26.0549 179.153 25.3356C179.405 24.7404 179.3 24.0847 178.882 23.6232C178.244 22.923 177.176 23.0249 176.654 23.3145C176.395 23.4577 176.277 23.6391 176.328 23.8142C176.399 24.0593 176.644 24.0624 176.883 24.0688C177.24 24.0784 177.61 24.0847 177.658 24.7563C177.687 25.1637 177.403 25.5042 176.931 25.6188C176.179 25.8066 175.098 25.396 174.508 24.0529C173.928 22.7352 173.976 21.0293 174.633 19.7084C174.913 19.1419 175.398 18.4576 176.207 17.9643C176.348 18.1489 176.459 18.3557 176.526 18.5817C176.807 19.5174 176.14 19.8485 175.608 20.1126C175.324 20.2527 175.101 20.3641 175.101 20.5487C175.101 20.8001 175.567 20.9783 176.003 21.0197C176.679 21.0834 177.454 20.8638 177.604 20.0649C177.75 19.2851 177.384 18.4353 176.676 17.716C176.918 17.6078 177.186 17.5123 177.479 17.4423C178.901 17.0985 180.23 17.4423 181.126 18.3844C181.901 19.1992 182.22 20.3259 181.942 21.2552C181.636 22.2769 180.737 22.4933 180.058 22.366C179.481 22.261 178.914 21.8695 178.955 21.3316C179.003 20.676 179.274 20.3704 179.437 20.1858C179.526 20.084 179.59 20.0108 179.577 19.9248C179.564 19.8516 179.5 19.8039 179.453 19.7753C179.328 19.702 179.156 19.7498 178.974 19.9057C178.56 20.2654 178.091 21.2712 178.585 22.436C178.965 23.3272 180.03 24.0243 181.12 24.1006C182.188 24.1738 183.144 23.671 183.845 22.6748C183.938 22.5443 184.129 22.5315 184.228 22.6557C184.419 22.8944 184.764 23.2222 185.315 23.375C186.16 23.6137 187.014 23.4864 187.633 22.9357C188.302 22.3437 188.487 21.5862 188.379 21.0993C188.331 20.886 188.222 20.7428 188.085 20.7046C187.894 20.6505 187.833 20.8415 187.767 21.0452C187.645 21.4239 187.46 22 186.45 22C185.994 22 185.621 21.8632 185.318 21.6754C184.827 21.3666 184.499 20.8606 184.362 20.2972C184.289 19.9853 184.161 19.6702 183.983 19.3551C183.294 18.1425 181.945 17.1336 180.791 16.6848H184.776C184.875 18.2571 186.246 19.2915 188.334 19.3328C189.733 19.3615 190.444 19.492 190.827 19.562C191.101 19.6129 191.216 19.632 191.289 19.5461C191.305 19.527 191.334 19.4793 191.295 19.4029C191.165 19.1451 190.154 18.5817 188.79 18.6581C187.862 18.709 187.174 18.6804 186.832 18.3557C186.654 18.187 186.568 17.9356 186.568 17.5823C186.568 16.9744 187.394 16.8821 188.057 16.8089C188.238 16.7898 188.398 16.7707 188.525 16.7421C188.694 16.7071 188.863 16.6816 189.035 16.6816H309.821C309.92 16.6816 310 16.602 310 16.5034C310 16.4047 309.92 16.3251 309.821 16.3251L309.818 16.3188ZM176.134 17.2354C175.748 16.9458 175.302 16.6943 174.808 16.4938C175.302 16.2933 175.751 16.0419 176.134 15.7522C176.893 16.1819 177.728 16.3952 178.487 16.4938C177.728 16.5925 176.893 16.8057 176.134 17.2354Z" fill="#7A8FA4"/>
<path d="M192.031 17.559C191.279 17.3189 190.26 17.2174 189.357 17.2174C188.412 17.2174 187.599 17.329 187.37 17.5049C187.283 17.5725 187.264 17.6503 187.264 17.701C187.264 18.0831 187.483 18.0899 188.134 18.1102C188.457 18.1203 188.896 18.1372 189.531 18.188C191.94 18.3807 192.169 20.1798 192.179 20.2576C192.189 20.3388 192.26 20.3997 192.337 20.3895C192.414 20.3794 192.473 20.305 192.463 20.2238C192.463 20.2069 192.285 18.7933 190.766 18.1643C190.766 18.1643 190.415 18.0087 190.46 17.8126C190.505 17.6165 190.841 17.6131 190.847 17.6131C191.237 17.6638 191.611 17.7416 191.944 17.8464C192.805 18.1203 193.592 18.9556 193.95 19.9702C194.266 20.8697 194.198 21.7659 193.756 22.4964C193.176 23.4568 191.863 23.5718 191.002 23.078C190.26 22.6519 190.031 21.9181 190.389 21.1098C190.421 21.0354 190.389 20.9441 190.318 20.9103C190.247 20.8765 190.16 20.9103 190.128 20.9847C189.621 22.1244 190.176 22.9529 190.863 23.3452C191.834 23.9032 193.311 23.7983 193.998 22.6621C194.488 21.8504 194.569 20.8596 194.217 19.8687C193.827 18.7663 192.966 17.8599 192.024 17.559H192.031Z" fill="#7A8FA4"/>
</svg>
