<svg width="30" height="30" viewBox="0 0 30 30" fill="none" xmlns="http://www.w3.org/2000/svg">
<path fill-rule="evenodd" clip-rule="evenodd" d="M26.25 13.8719V20.1136C26.25 23.9844 26.25 25.9198 25.3324 26.7654C24.8948 27.1688 24.3424 27.4221 23.7539 27.4894C22.52 27.6306 21.0791 26.3561 18.1972 23.8073C16.9235 22.6806 16.2865 22.1173 15.5496 21.9689C15.1868 21.8958 14.8133 21.8958 14.4504 21.9689C13.7135 22.1173 13.0765 22.6806 11.8027 23.8073C8.92091 26.3561 7.48003 27.6306 6.24615 27.4894C5.65769 27.4221 5.10526 27.1688 4.66764 26.7654C3.75 25.9198 3.75 23.9844 3.75 20.1136V13.8719C3.75 8.51114 3.75 5.83075 5.39752 4.16538C7.04505 2.5 9.6967 2.5 15 2.5C20.3032 2.5 22.955 2.5 24.6025 4.16538C26.25 5.83075 26.25 8.51114 26.25 13.8719Z" fill="#DEB14E"/>
<path fill-rule="evenodd" clip-rule="evenodd" d="M10 7C10 6.44772 10.4477 6 11 6H19C19.5523 6 20 6.44772 20 7C20 7.55228 19.5523 8 19 8H11C10.4477 8 10 7.55228 10 7Z" fill="#F0F4F7"/>
</svg>
