<svg width="35" height="53" viewBox="0 0 35 53" fill="none" xmlns="http://www.w3.org/2000/svg">
<path d="M16.5129 53C15.2657 53 14.0184 52.7929 12.8414 52.3787C11.7853 52.0041 10.7092 51.6885 9.66227 51.1265C2.09778 47.1232 -2.59934 40.0828 1.54448 31.7311C3.16459 28.4673 6.08105 26.4952 8.13372 23.616C10.4571 20.3423 10.8604 17.4729 10.136 13.4992C12.9118 16.2009 13.9879 20.934 12.8215 24.5921C12.3784 25.9726 11.4841 27.1658 10.8896 28.4673C14.9538 26.9094 19.1693 26.8699 23.0225 29.0096L25.4069 30.5676L26.9647 31.9086V26.3867C26.9156 25.6374 26.2614 25.1739 26.0902 25.026C24.2592 23.409 21.6041 25.2036 21.4329 25.026C22.4082 21.4763 24.149 17.2955 20.0543 14.9586C19.2091 14.4754 18.1728 14.3177 17.3581 13.9134C15.2962 12.8879 13.0936 11.6356 12.3784 9.31844C12.0666 9.09165 9.20981 11.6159 8.78787 12.0498C6.00144 14.8402 4.0297 17.8082 4.62281 21.9397C4.74355 22.7976 5.3579 23.4286 5.3579 24.2865C4.81388 24.395 4.52197 23.6555 4.25129 23.2808C0.529416 18.173 2.49054 13.0358 6.7352 9.06207C10.4173 5.62079 11.0807 6.79418 10.7596 0.976551C10.749 0.749763 10.538 -0.0193484 11.021 0.000372407C11.3129 0.0102328 12.1475 2.2584 12.2789 2.69226C12.9317 4.84182 12.6199 6.32088 13.8472 8.27324C15.8694 11.4877 18.1025 11.3694 20.9194 13.1443C24.5312 15.422 24.6811 18.39 24.4701 22.3144C27.1571 22.4229 28.7254 24.6513 28.9775 27.1066C29.1182 28.4477 28.6153 33.8018 29.3398 34.3638C29.8718 34.7779 31.2704 34.709 31.5026 35.9317C31.6432 36.681 29.7113 36.1485 29.2389 36.3063C29.1991 38.9686 31.5729 37.7756 33.0006 38.3967C33.404 38.5743 35.5163 41.4929 34.8821 41.4633C33.8365 41.3449 30.7874 40.0236 29.9727 40.5858C29.56 40.8716 29.5905 41.9268 29.5507 42.7353C29.4101 45.5948 26.0902 49.5192 23.5851 51.0279C22.4281 51.728 21.141 52.0731 19.8739 52.4675C18.7872 52.8126 17.6607 52.9802 16.5235 52.9802L16.5129 53ZM23.3237 37.5388C24.3905 37.3712 26.1712 37.5388 27.3481 37.5388C27.4277 37.5388 27.6692 37.5685 27.9718 37.5388C28.3937 35.4485 26.7842 35.6851 25.0845 35.5667C23.3834 35.4485 22.2277 35.5372 20.7178 36.2077C19.5315 36.7402 17.4284 38.8898 16.5633 38.7615C16.1016 38.6925 14.914 37.4107 14.0794 36.9867C12.5694 36.2373 11.0515 36.04 9.38099 35.9317C8.95904 35.616 9.27085 35.6655 9.38099 35.4386C9.65299 34.8864 10.1253 33.9398 10.7795 33.8412C12.5402 33.575 15.6186 35.271 17.0158 36.2866C19.5713 33.7229 23.0225 33.4271 26.4724 34.0976C25.9085 32.6876 24.5511 31.5142 23.2839 30.7056C14.8437 25.3613 4.23006 31.6029 4.87492 41.3253C5.32738 48.1979 12.2085 52.9606 18.9981 51.6984C24.3202 50.7124 28.9364 45.6343 28.3632 40.2209H25.5967C22.6603 40.566 21.0906 41.4831 18.8177 43.1889C18.1834 43.6622 17.9618 44.3721 17.0569 44.4313C15.7486 44.5201 15.3864 43.5636 14.5014 42.9819C12.1077 41.3943 9.33056 40.0927 6.38358 40.4872C6.13148 40.221 7.54989 38.0713 7.88293 37.9136C8.89799 37.4304 11.8158 38.2291 12.9025 38.6531C14.4417 39.2546 15.6279 40.3787 17.037 40.99C18.3241 39.6885 21.4926 37.8249 23.3343 37.5388H23.3237Z" fill="white"/>
</svg>
