<svg width="30" height="30" viewBox="0 0 30 30" fill="none" xmlns="http://www.w3.org/2000/svg">
<path fill-rule="evenodd" clip-rule="evenodd" d="M3.149 9.77843C2.5 10.9641 2.5 12.3944 2.5 15.2549V17.1563C2.5 22.0323 2.5 24.4704 3.96446 25.9851C5.42894 27.5 7.78595 27.5 12.5 27.5H17.5C22.214 27.5 24.5711 27.5 26.0355 25.9851C27.5 24.4704 27.5 22.0323 27.5 17.1563V15.2549C27.5 12.3944 27.5 10.9641 26.851 9.77843C26.202 8.59276 25.0164 7.85689 22.645 6.38515L20.145 4.83359C17.6383 3.27786 16.3849 2.5 15 2.5C13.6151 2.5 12.3617 3.27786 9.85504 4.83359L7.35504 6.38516C4.98369 7.85689 3.798 8.59276 3.149 9.77843Z" fill="#748DA3"/>
<path fill-rule="evenodd" clip-rule="evenodd" d="M11.1501 21.5625C10.6324 21.5625 10.2126 21.9822 10.2126 22.5C10.2126 23.0177 10.6324 23.4375 11.1501 23.4375H18.6501C19.1679 23.4375 19.5876 23.0177 19.5876 22.5C19.5876 21.9822 19.1679 21.5625 18.6501 21.5625H11.1501Z" fill="#CCDDE4"/>
</svg>
