<svg width="30" height="30" viewBox="0 0 30 30" fill="none" xmlns="http://www.w3.org/2000/svg">
<path fill-rule="evenodd" clip-rule="evenodd" d="M3.149 9.77843C2.5 10.9641 2.5 12.3944 2.5 15.2549V17.1563C2.5 22.0323 2.5 24.4704 3.96446 25.9851C5.42894 27.5 7.78595 27.5 12.5 27.5H17.5C22.214 27.5 24.5711 27.5 26.0355 25.9851C27.5 24.4704 27.5 22.0323 27.5 17.1563V15.2549C27.5 12.3944 27.5 10.9641 26.851 9.77843C26.202 8.59276 25.0164 7.85689 22.645 6.38515L20.145 4.83359C17.6383 3.27786 16.3849 2.5 15 2.5C13.6151 2.5 12.3617 3.27786 9.85504 4.83359L7.35504 6.38516C4.98369 7.85689 3.798 8.59276 3.149 9.77843Z" fill="#DEB14E"/>
<path fill-rule="evenodd" clip-rule="evenodd" d="M11.1503 21.5625C10.6325 21.5625 10.2128 21.9822 10.2128 22.5C10.2128 23.0177 10.6325 23.4375 11.1503 23.4375H18.6503C19.168 23.4375 19.5878 23.0177 19.5878 22.5C19.5878 21.9822 19.168 21.5625 18.6503 21.5625H11.1503Z" fill="#F0F4F7"/>
</svg>
