<svg width="53" height="53" viewBox="0 0 53 53" fill="none" xmlns="http://www.w3.org/2000/svg">
<g clip-path="url(#clip0_65_156)">
<path d="M53 26.493C53 41.1289 41.1429 52.993 26.507 53C11.8711 53 0 41.1429 0 26.507C0 11.8711 11.8571 0 26.493 0C26.64 0 26.78 0 26.927 0C41.3949 0.230983 53 12.0251 53 26.493ZM4.17868 38.4831C4.25568 38.5461 4.33267 38.6021 4.40267 38.6721C5.44559 39.659 6.6355 40.4779 7.9304 41.0939C8.46236 41.3879 9.09231 41.4299 9.65927 41.2059C10.1632 40.9749 10.6112 40.6249 10.9612 40.191C11.5911 39.456 12.0181 38.5741 12.2071 37.6222C12.2911 37.2302 12.2211 37.0062 11.8361 36.8592C11.2132 36.6002 10.5762 36.3833 9.92525 36.2083C9.37929 36.0613 8.81234 35.9843 8.24538 35.9773C7.68542 36.0193 7.12546 36.1033 6.5795 36.2223C6.50951 36.2223 6.43251 36.2223 6.36252 36.2223C6.38352 36.1453 6.37652 36.0403 6.42552 35.9913C6.54451 35.8583 6.6845 35.7463 6.83848 35.6623C7.46144 35.3123 8.14039 35.0674 8.84033 34.9414C9.96025 34.7174 11.1222 35.0464 11.9551 35.8303C12.886 36.7332 13.243 38.0701 12.893 39.316C12.739 40.058 12.4101 40.7509 11.9411 41.3389C12.0391 41.3389 12.1371 41.3249 12.2351 41.3039C13.075 40.9889 13.754 40.359 14.1319 39.547C14.5799 38.4901 14.8809 37.3772 15.0279 36.2363C15.2239 34.7664 15.4688 33.3105 15.6998 31.8476C15.9098 30.5457 16.1198 29.2438 16.3368 27.9419C16.3858 27.6339 16.4488 27.3259 16.5048 26.99C16.3788 26.969 16.2528 26.948 16.1268 26.941C15.2938 26.92 14.4539 26.892 13.621 26.906C13.292 26.906 13.152 26.78 13.145 26.493C13.117 25.6811 13.089 24.8761 13.082 24.0642C13.103 23.0983 13.32 22.1533 13.726 21.2784C13.803 21.0194 13.901 20.7744 14.0059 20.5225C14.6289 19.3185 15.4128 18.1986 16.3368 17.1977C16.7917 16.7427 17.1907 16.2388 17.6457 15.7838C18.6676 14.7409 19.8015 13.803 21.0194 12.991C21.3694 12.76 21.7054 12.4871 22.0413 12.2351C22.4893 11.8991 22.9163 11.5281 23.3852 11.2202C24.1132 10.7372 24.8691 10.2892 25.6811 9.79226C25.5831 9.77826 25.4851 9.77126 25.3871 9.77826C24.5891 9.88325 23.7772 9.93225 22.9933 10.1002C18.5206 10.9962 14.6149 13.712 12.2141 17.5967C10.6742 19.9975 9.79226 22.7623 9.65927 25.6111C9.48428 27.5219 9.72927 29.4398 10.3662 31.2456C10.3942 31.3786 10.3592 31.5186 10.2612 31.6166C9.97425 31.8546 9.64527 32.0506 9.35129 32.2816C7.27245 33.8844 5.19361 35.4943 3.10777 37.0902C2.95378 37.1672 2.89078 37.3492 2.96778 37.5032C2.97478 37.5242 2.98877 37.5382 3.00277 37.5522C7.13246 46.2805 15.7488 52.0061 25.3941 52.44C27.5219 52.545 29.6568 52.37 31.7496 51.9361C39.526 50.3332 46.1545 45.2726 49.7382 38.1891C49.8642 38.0141 49.8222 37.7761 49.6473 37.6502C49.6403 37.6502 49.6333 37.6362 49.6193 37.6362C48.1984 36.3833 46.7985 35.1164 45.3776 33.8634C44.4536 33.0515 43.5087 32.2536 42.5708 31.4556C42.4098 31.3156 42.3118 31.1896 42.4028 30.9727C42.4728 30.8117 42.5218 30.6367 42.5498 30.4617C42.6968 29.6008 42.8788 28.7398 42.9558 27.8719C43.0887 26.325 42.9978 24.7641 42.6758 23.2382C41.7729 18.5836 38.9171 14.5379 34.8364 12.1161C32.9045 10.9472 30.7557 10.1912 28.5159 9.90425C28.0959 9.84826 27.6619 9.82026 27.2419 9.78526C27.2349 9.81326 27.2209 9.84126 27.2139 9.86926C27.4029 10.0022 27.5849 10.1492 27.7879 10.2752C28.0749 10.4502 28.3829 10.5902 28.6628 10.7792C29.2648 11.1922 29.8527 11.6261 30.4477 12.0461C31.0707 12.4801 31.7146 12.893 32.3306 13.348C32.8695 13.747 33.4015 14.1529 33.9054 14.6009C34.4724 15.1049 34.9764 15.6858 35.5573 16.1828C36.5442 17.1207 37.3982 18.1846 38.1121 19.3395C38.3431 19.6895 38.5251 20.0605 38.6721 20.4525C38.9731 21.1384 39.225 21.8454 39.428 22.5593C39.568 23.1543 39.631 23.7702 39.617 24.3792C39.617 25.1071 39.533 25.842 39.47 26.57C39.449 26.843 39.295 26.976 38.9871 26.955C38.5321 26.927 38.0701 26.948 37.6082 26.948H36.6352L36.8802 28.5928C37.0972 30.0837 37.3282 31.5746 37.5382 33.0655C37.7062 34.2694 37.8321 35.4803 38.0351 36.6842C38.1681 37.5312 38.3781 38.3571 38.6721 39.155C39.0081 40.044 39.666 40.7719 40.5129 41.2059C40.6389 41.2619 40.7719 41.2969 40.9049 41.3249C40.8349 41.1289 40.7369 40.9469 40.6249 40.7719C40.275 40.156 40.058 39.477 39.981 38.7701C39.848 37.7551 40.163 36.7332 40.8419 35.9773C41.5769 35.2073 42.6268 34.8084 43.6907 34.8994C44.4956 34.9624 45.2726 35.2073 45.9725 35.6133C46.1755 35.7323 46.3715 35.8653 46.5465 36.0193C46.5885 36.0543 46.5745 36.1593 46.5815 36.2293C46.5185 36.2433 46.4555 36.2503 46.3925 36.2433C45.6226 35.9913 44.8106 35.9213 44.0127 36.0333C42.9838 36.1383 41.9828 36.4253 41.0519 36.8802C40.7719 36.9642 40.6179 37.2582 40.7019 37.5382C40.7089 37.5732 40.7229 37.6012 40.7439 37.6362C40.8979 38.1191 41.0449 38.6021 41.2479 39.0641C41.5769 39.841 42.1228 40.4989 42.8298 40.9609C43.3407 41.3599 44.0267 41.4649 44.6286 41.2339C45.8885 40.6949 47.0574 39.953 48.0864 39.0361C48.2684 38.8821 48.4433 38.7281 48.6183 38.5741C48.6323 38.7631 48.6043 38.9521 48.5413 39.134C48.3733 39.561 48.3453 40.058 47.9394 40.373C47.2464 40.9049 46.5675 41.4579 45.8535 41.9548C45.0416 42.5008 44.1387 42.9068 43.1867 43.1447C42.7038 43.2427 42.2068 43.2707 41.7169 43.2287C40.408 43.2147 39.197 42.5288 38.5181 41.4089C38.1751 40.7789 37.8881 40.114 37.6642 39.421C37.6012 39.239 37.5452 39.0571 37.5032 38.8751C37.1952 40.191 36.4812 41.3809 35.4663 42.2768C35.6413 42.3468 35.8163 42.4098 35.9983 42.4518C36.3203 42.4938 36.6492 42.5078 36.9782 42.5498C37.8811 42.6548 38.3781 43.0328 38.3011 43.8587C38.3011 44.7126 37.8671 45.5106 37.1602 45.9865C36.3623 46.4835 35.5573 46.9875 34.7244 47.4214C33.8214 47.9184 32.8765 48.3314 31.8966 48.6533C30.9167 49.0033 29.8737 49.1503 28.8308 49.0803C28.1729 49.0593 27.5359 48.8703 26.969 48.5413C26.78 48.3523 26.472 48.3594 26.29 48.5483C26.29 48.5483 26.276 48.5623 26.269 48.5693C26.15 48.6533 26.01 48.7233 25.87 48.7723C25.3521 49.0313 24.7781 49.1573 24.2042 49.1433C23.5462 49.1643 22.8813 49.1293 22.2303 49.0313C21.0474 48.7443 19.8995 48.3244 18.8076 47.7784C17.7577 47.3094 16.7497 46.7425 15.8048 46.0845C15.5388 45.9235 15.3148 45.7066 15.1539 45.4546C14.9229 44.9716 14.7479 44.4676 14.6429 43.9427C14.5239 43.3827 14.8809 42.8368 15.4338 42.7108C15.7068 42.6408 16.0008 42.6268 16.2808 42.5708C16.6587 42.5008 17.0717 42.5918 17.3937 42.3678C16.9807 41.8568 16.5957 41.3249 16.2458 40.7649C15.9518 40.177 15.6998 39.568 15.4828 38.9521C15.4688 38.9591 15.4548 38.9731 15.4478 38.9871C15.2868 39.477 15.1189 39.967 14.9579 40.4569C14.6429 41.3879 14.0129 42.1788 13.173 42.6968C12.2491 43.2497 11.1572 43.4457 10.1002 43.2357C9.47729 43.1167 8.87533 42.9278 8.29437 42.6688C7.37044 42.2348 6.49551 41.7029 5.68357 41.0729C4.87163 40.4429 4.33967 39.526 4.18568 38.5181L4.17868 38.4831ZM20.0395 7.66442L20.0675 7.73442C19.9415 7.86741 19.8365 8.05639 19.6825 8.12639C19.2765 8.32237 18.8426 8.47636 18.4156 8.65135C18.3246 8.67935 18.2336 8.72834 18.1636 8.79134C17.3237 9.69427 16.2598 10.3522 15.0839 10.7092C14.4329 10.9542 13.712 10.8492 13.159 10.4292C12.921 10.2612 12.662 10.1352 12.3891 10.0512C12.0811 9.95325 11.7451 10.1212 11.6471 10.4362C11.6471 10.4432 11.6471 10.4502 11.6401 10.4642C11.5561 10.6952 11.6541 10.8842 12.0041 11.0102C12.3261 11.1292 12.676 11.1922 13.005 11.2831C13.131 11.3251 13.32 11.3601 13.362 11.4581C13.488 11.7451 13.593 12.0391 13.684 12.3401C13.593 12.3401 13.502 12.3401 13.411 12.3261C13.033 12.2561 12.648 12.3821 12.3821 12.655C11.9691 13.061 11.7311 13.614 11.7311 14.1949C11.6541 14.7969 11.5841 15.3988 11.4861 15.9938C11.4651 16.4488 11.1432 16.8407 10.6882 16.9317C10.2542 16.9807 9.82026 16.7847 9.58228 16.4138C9.38629 16.1548 9.2253 15.8748 9.03632 15.5808L8.53236 15.8328C8.98732 16.3438 9.34429 16.8547 8.97332 17.5407C8.63035 18.1636 8.06339 18.1426 7.37044 17.9746C7.64342 18.5416 7.86041 19.0316 8.10539 19.5005C8.36437 20.0045 8.66535 20.4875 8.92433 20.9914C9.10631 21.2644 9.02932 21.6284 8.75634 21.8104C8.71434 21.8384 8.67235 21.8594 8.62335 21.8734C8.23138 22.0693 7.77641 22.0693 7.38444 21.8873C7.25845 21.8384 7.13246 21.7894 6.90848 21.7124C7.09046 22.1603 7.04147 22.6083 7.46844 22.8533C7.62242 22.9443 7.76241 23.0563 7.8884 23.1893C8.23838 23.5112 8.46236 23.9452 8.51836 24.4212C8.18938 23.9452 8.0004 23.3502 7.39144 23.1263C7.37044 23.2312 7.37744 23.3362 7.40544 23.4342C7.51043 23.9172 7.60843 24.4072 7.71342 24.8901C7.79041 25.3521 7.75541 25.8211 7.59443 26.262C7.41944 26.85 7.34945 27.4729 7.21646 28.1309C7.19546 28.0749 7.18146 28.0259 7.17446 27.9699C7.07647 27.032 6.99247 26.094 6.86648 25.1561C6.78949 24.5471 6.6635 23.9452 6.54451 23.3362C6.52351 23.2312 6.42552 23.0773 6.34152 23.0633C6.09654 23.0423 5.84456 23.0423 5.59958 23.0633C5.64157 23.3082 5.69757 23.5532 5.78156 23.7842C5.99155 24.2462 6.23653 24.6871 6.46751 25.1351C6.6565 25.4081 6.6005 25.7861 6.34852 25.996C6.20153 26.143 6.06154 26.297 5.96355 26.402C6.20853 26.843 6.46751 27.2489 6.6705 27.6829C6.91548 28.1659 6.79649 28.7468 6.38352 29.0968C6.08954 29.3768 6.08254 29.8457 6.36952 30.1327C6.37652 30.1397 6.39052 30.1537 6.39752 30.1607C6.81749 30.5807 7.35644 30.8607 7.9374 30.9517C8.65135 31.0987 8.73534 31.1826 8.76334 31.8966C9.07831 31.6306 9.36529 31.4066 9.62427 31.1546C9.67327 31.1127 9.65227 30.9727 9.63827 30.8817C9.47729 29.8107 9.2743 28.7468 9.15531 27.6759C9.00132 26.08 9.10631 24.4632 9.47728 22.9023C10.2542 19.1646 12.2631 15.7908 15.1749 13.327C17.6527 11.1852 20.7044 9.80626 23.9522 9.37229C25.7161 9.11331 27.5149 9.14831 29.2718 9.47029C37.1112 10.8912 42.9698 17.4847 43.4597 25.4431C43.5857 27.1859 43.4317 28.9358 43.0048 30.6297C42.9768 30.7277 42.9628 30.8817 43.0188 30.9377C43.2427 31.1616 43.5017 31.3576 43.7467 31.5676L43.8097 31.5186L43.6767 31.2036C43.5717 30.9587 43.6487 30.8257 43.9077 30.8467C44.1457 30.8747 44.3837 30.9097 44.6146 30.9587C44.6986 30.8747 44.7686 30.7487 44.8666 30.7277C45.2236 30.7207 45.5596 30.9027 45.7415 31.2106L45.2236 31.1616C45.2376 31.2876 45.2446 31.3926 45.2656 31.5746C45.0416 31.4556 44.8736 31.3646 44.7056 31.2666C44.5376 31.1686 44.3837 31.0777 44.1597 30.9447C44.1247 31.5186 44.5376 31.7356 44.7896 32.1066L44.3067 31.9806L44.2647 32.0506L50.0392 37.1882C50.6132 36.7052 51.6491 33.7375 52.1811 30.3287C53.098 24.7011 52.0761 18.9336 49.2833 13.9639C42.3888 1.41389 26.598 -3.18476 14.0269 3.71672C6.33452 7.9444 1.2949 15.7698 0.629952 24.5191C0.706947 24.5121 0.783941 24.4911 0.853936 24.4562C1.12691 24.2462 1.49789 24.2182 1.79886 24.3862C1.87586 24.4282 1.98785 24.3862 2.12784 24.3862L1.85486 23.9732C1.98785 23.9592 2.12084 24.0012 2.21883 24.0852C2.40082 24.3162 2.6108 24.2882 2.86278 24.2392C3.21976 24.1692 3.59073 24.2182 3.9127 24.3792C4.05969 24.4562 4.21368 24.5191 4.41667 24.6101C4.52866 24.1062 4.63365 23.6372 4.75264 23.1193C4.30468 23.1193 3.9197 23.1053 3.53473 23.1193C3.40174 23.1473 3.26875 23.1893 3.14976 23.2522C2.91178 22.8813 2.48481 23.0563 2.14884 23.0423C1.74287 23.0563 1.3649 22.8603 1.14791 22.5173C1.55388 22.3493 1.93885 22.0903 2.39382 22.4123C2.49181 22.4823 2.6668 22.4543 2.90478 22.4823L2.48481 21.7614L2.54081 21.7124C2.73679 21.9293 2.92578 22.1463 3.12176 22.3563C3.17776 22.4193 3.24775 22.5103 3.31075 22.5103C3.80071 22.5243 4.29768 22.5103 4.79464 22.5103V21.5934C4.97662 21.6844 5.11661 21.7684 5.2706 21.8384C5.48059 21.9293 5.63457 22.0343 5.60658 22.3003C5.62058 22.3703 5.66957 22.4263 5.73257 22.4543C5.92155 22.4893 6.11054 22.4963 6.33452 22.5243C6.28553 22.3003 6.25753 22.1463 6.21553 21.9993C5.97755 21.2224 5.74657 20.4385 5.49459 19.6615C5.40359 19.3885 5.20761 19.3675 4.97662 19.5075C5.08162 19.6825 5.17261 19.8575 5.2496 20.0465C5.36859 20.4105 4.96962 20.9354 4.60565 20.8514C4.0177 20.7464 3.49274 20.4245 3.14276 19.9415C3.02377 19.7875 3.03077 19.5705 3.14976 19.4165C3.53473 19.0036 4.09469 18.8076 4.65465 18.8846C5.07462 19.0596 5.48059 19.2765 5.86556 19.5215C6.05454 19.6545 6.20153 19.8365 6.29952 20.0395C6.48851 20.4105 6.6215 20.8094 6.78249 21.2014C6.80349 21.2784 6.83848 21.3484 6.88748 21.4114C7.13246 21.5794 7.44744 21.6004 7.70642 21.4604C7.9794 21.3274 8.18238 21.1244 8.09839 20.8024C8.0074 20.4595 7.8884 20.1235 7.73442 19.8015C7.49643 19.2975 7.18146 18.8286 6.96447 18.3176C6.79649 17.9116 6.6145 17.5897 6.13854 17.4917C5.92155 17.4147 5.71157 17.3237 5.50858 17.2187C5.06762 17.0507 4.62665 16.8967 4.15069 16.7217C4.15069 16.8547 4.12269 16.9457 4.15069 16.9877C4.42367 17.3657 4.71064 17.7437 4.99062 18.1146C4.78064 17.9746 4.58465 17.8137 4.40267 17.6387C3.9757 17.3307 3.62573 16.9177 3.38774 16.4488C3.35975 16.3438 3.33175 16.2318 3.31775 16.1198C3.45074 16.1198 3.58373 16.1198 3.71672 16.1198C3.78671 16.1408 3.84971 16.1688 3.90571 16.2038C4.50766 16.4838 5.10961 16.7707 5.71857 17.0367C5.98455 17.1557 6.27153 17.2327 6.51651 17.3237C6.56551 17.0017 6.6425 16.6797 6.75449 16.3718C6.85248 16.1758 7.02747 16.0288 7.23745 15.9658C7.47544 15.9168 7.9234 16.3998 7.9724 16.6727C7.63642 16.7567 7.41944 17.0787 7.45444 17.4217C7.69242 17.4427 7.9234 17.3307 8.05639 17.1277C8.39237 16.7147 8.44836 16.1408 8.21038 15.6718C8.15438 15.5738 8.05639 15.4058 8.27338 15.3638C8.60235 15.2658 8.87533 15.0419 9.04332 14.7409C9.17631 14.5659 9.16931 14.4329 8.95932 14.3489C8.28737 14.0689 7.62243 13.789 6.95048 13.509C6.76849 13.432 6.69149 13.516 6.6775 13.691C6.6705 13.838 6.6635 13.9849 6.6495 14.1319H6.5655C6.54451 13.9359 6.53751 13.74 6.50251 13.551C6.48851 13.453 6.44651 13.362 6.36952 13.299C6.15254 13.18 5.92855 13.075 5.69057 12.984C5.38959 12.788 5.19361 12.4731 5.14461 12.1161C5.51558 12.0881 5.87956 11.9971 6.10354 12.4521C6.16653 12.5851 6.36952 12.648 6.55151 12.774C6.5655 12.5361 6.5725 12.3821 6.5795 12.2281C6.6635 12.2701 6.70549 12.3051 6.71249 12.3541C6.75449 12.788 7.03447 12.942 7.41944 13.075C8.29437 13.292 9.05032 13.866 9.49128 14.6499C9.61727 14.9089 9.61027 15.0979 9.38629 15.2379C9.14831 15.3918 9.17631 15.5318 9.3233 15.7208C9.39329 15.8328 9.46329 15.9378 9.54028 16.0428C9.67327 16.1548 9.80626 16.2528 9.95325 16.3438C10.1422 15.5878 10.1842 14.8039 10.0582 14.0339C9.72227 13.047 8.87533 12.3331 7.84641 12.1581C7.82541 12.2841 7.79741 12.4171 7.76941 12.5781C7.72042 12.3541 7.63642 12.1441 7.51743 11.9551C7.33545 11.8151 7.13246 11.7031 6.91548 11.6331C6.77549 11.5701 6.6215 11.5211 6.48151 11.4511C6.40452 11.4161 6.33452 11.3671 6.28553 11.2901C6.20153 11.0942 6.13854 10.8842 6.04054 10.5972C6.41152 10.6742 6.71249 10.7302 7.02047 10.7932C7.04847 10.8002 7.06947 10.8212 7.08347 10.8492C7.12546 11.2062 7.46144 11.1502 7.69942 11.3391V10.7092H7.77641C7.81841 10.8772 7.87441 11.0452 7.9374 11.2062C7.9934 11.3531 8.09139 11.4861 8.22438 11.5771C9.2463 12.0391 10.0162 12.921 10.3312 14.0059C10.4712 14.3769 10.4782 14.7899 10.3522 15.1679C10.2402 15.5178 10.1842 15.8888 10.1002 16.2668C10.5202 16.3018 10.8912 15.9868 10.9262 15.5668C11.0172 15.0629 11.0872 14.5519 11.1222 14.0339C11.1292 13.74 11.1642 13.439 11.2342 13.152C11.3951 12.662 11.6121 12.1861 11.8221 11.6541C11.7801 11.6121 11.7381 11.5701 11.7031 11.5211C11.2412 10.9962 11.0802 10.2682 11.2691 9.59628C11.3321 9.2603 11.6611 9.04332 11.9971 9.10631C12.0531 9.12031 12.1091 9.13431 12.1581 9.16231C12.3821 9.2533 12.5921 9.35129 12.802 9.46329C13.208 9.67327 13.607 9.98125 14.0829 9.87625C14.6219 9.75726 15.1469 9.57528 15.6438 9.3373C16.7637 8.88233 17.7087 8.08439 18.3316 7.04847C18.3666 7.11146 18.4226 7.16746 18.4296 7.22345C18.4506 7.54543 18.6606 7.51743 18.8776 7.46144C19.4025 7.41944 19.7945 6.95747 19.7595 6.43251C19.7595 6.41152 19.7595 6.38352 19.7525 6.36252C19.7665 6.25053 19.7875 6.14554 19.8155 6.04054L19.8855 6.06154C19.9205 6.22953 19.9625 6.40452 19.9975 6.5795C20.1305 6.5725 20.2285 6.5795 20.3265 6.55851C20.7744 6.48851 20.8024 6.44651 20.8234 5.99855C20.8374 5.90755 20.8584 5.80956 20.8934 5.72557L20.9914 5.68357C20.9634 5.95655 21.0684 6.06854 21.2994 6.03354C21.6074 6.00555 21.9083 5.96355 22.2093 5.90056C22.4053 5.84456 22.6853 5.72557 22.7273 5.57858C22.7763 5.38259 22.6293 5.13061 22.5663 4.90663C22.4613 4.96962 22.3703 5.05362 22.3003 5.15861C22.1463 5.40359 21.8803 5.54358 21.5934 5.52258C21.2644 5.43859 21.0194 5.17261 20.9634 4.83664C20.8864 4.31867 20.9774 3.79371 21.2224 3.33175C21.2924 3.15676 21.4814 3.06577 21.6564 3.12876C22.2093 3.27575 22.6503 3.68872 22.8253 4.22768C23.0703 4.90663 23.0423 5.66257 22.7343 6.32052C22.6853 6.48851 22.5173 6.6005 22.3423 6.5725C22.0693 6.53751 21.7894 6.50951 21.5164 6.47451C21.3834 6.46051 21.2504 6.44651 21.1174 6.43251C21.1454 7.05547 20.6624 7.57343 20.0395 7.60143C20.0325 7.60143 20.0255 7.60143 20.0115 7.60143L20.0395 7.66442ZM17.2327 26.969C17.1627 27.6899 17.1207 28.3549 17.0297 29.0058C16.8617 30.2027 16.6517 31.3996 16.4838 32.5965C16.3508 33.5765 16.2178 34.5634 16.1408 35.5503C15.9728 36.5512 15.9378 37.5662 16.0358 38.5741C16.1338 39.225 16.4138 39.834 16.8477 40.331C17.5547 41.0309 18.3806 41.5979 19.2905 42.0038C19.3745 42.0458 19.4865 42.1018 19.5145 42.1788C19.6685 42.5568 19.8015 42.9418 19.9205 43.3337C19.9835 43.5367 19.9065 43.6767 19.6545 43.6767C19.4935 43.6907 19.3395 43.7117 19.1856 43.7537C18.4646 43.8727 17.7367 43.9777 17.0157 44.1037C16.6167 44.1737 16.2178 44.2577 15.8258 44.3557C15.7628 44.3697 15.6648 44.4466 15.6648 44.4956C15.6648 44.5446 15.7278 44.6356 15.7908 44.6776C15.9938 44.8036 16.1968 44.9226 16.4138 45.0346C17.3447 45.5176 18.2616 46.0215 19.2136 46.4625C19.9065 46.7845 20.6414 47.0085 21.3554 47.2814C21.9573 47.4844 22.5943 47.5684 23.2312 47.5334C23.9942 47.5544 24.7501 47.3934 25.4291 47.0644C25.3381 46.9035 25.2611 46.7355 25.1981 46.5675C24.8621 45.5946 24.7991 44.5446 25.0021 43.5367C25.1911 42.3888 25.6251 41.2969 26.276 40.331C26.472 40.058 26.619 40.03 26.822 40.317C27.025 40.6109 27.2139 40.9119 27.3889 41.2269C27.7879 42.0318 28.0539 42.8928 28.1869 43.7747C28.4109 44.8106 28.2849 45.8955 27.8229 46.8545C27.7319 47.0504 27.8159 47.0924 27.9769 47.1414C28.7048 47.3654 29.4608 47.4704 30.2237 47.4424C31.0357 47.4004 31.8406 47.2044 32.5825 46.8755C33.2475 46.6025 33.9124 46.3015 34.5564 45.9865C35.3823 45.5806 36.1943 45.1466 37.0062 44.7056C37.1042 44.6496 37.1672 44.5236 37.2512 44.4326C37.1602 44.3487 37.0482 44.2857 36.9362 44.2437C36.4812 44.1597 36.0193 44.1037 35.5573 44.0197C34.8084 43.8867 34.0594 43.7397 33.3035 43.6067C33.1215 43.5717 33.0305 43.4737 33.0865 43.2987C33.2125 42.8998 33.3525 42.5078 33.5065 42.1158C33.5555 42.0388 33.6185 41.9828 33.6955 41.9478C34.3044 41.5839 34.9274 41.2479 35.5083 40.8489C36.0053 40.5059 36.3973 40.044 36.6492 39.498C36.9852 38.6581 37.0972 37.7342 36.9642 36.8382C36.8802 35.9003 36.7962 34.9624 36.6982 34.0244C36.5722 32.8835 36.4393 31.7356 36.2993 30.5947C36.1733 29.5938 36.0333 28.5928 35.9143 27.5849C35.9003 27.3819 35.9003 27.1719 35.9143 26.969H17.2537H17.2327ZM26.297 26.395H37.9301C38.6161 26.395 38.6091 26.395 38.7631 25.7161C38.9031 24.7851 38.8961 23.8332 38.7421 22.9023C38.6931 22.5453 38.6091 22.2023 38.4831 21.8664C38.3291 21.3554 38.1471 20.8514 37.9231 20.3685C37.6432 19.8085 37.3282 19.2765 36.9642 18.7726C36.5862 18.2266 36.1733 17.7087 35.7253 17.2257C35.1583 16.6167 34.5354 16.0568 33.9334 15.4828C33.5975 15.1469 33.2405 14.8319 32.8695 14.5379C31.9386 13.845 31.0007 13.173 30.0557 12.5011C29.5728 12.1581 29.0758 11.8361 28.5718 11.5141C27.9489 11.1152 27.3119 10.7442 26.682 10.3452C26.493 10.2052 26.234 10.2122 26.045 10.3592C25.4431 10.7442 24.8271 11.1082 24.2252 11.4931C23.6232 11.8781 23.0073 12.2701 22.4123 12.683C21.8174 13.096 21.2434 13.544 20.6764 13.9849C20.0885 14.4399 19.5005 14.8879 18.9406 15.3778C18.4786 15.7768 18.0586 16.2248 17.6387 16.6657C17.1417 17.1487 16.6727 17.6597 16.2388 18.1916C15.4898 19.1016 14.8809 20.1235 14.4469 21.2224C14.3769 21.4254 14.3069 21.6354 14.2369 21.8384C14.1319 22.0973 14.0479 22.3563 13.9849 22.6293C13.831 23.6582 13.789 24.7081 13.859 25.7441C13.873 26.318 13.9709 26.395 14.5519 26.395H26.311H26.297ZM4.92763 32.6175L4.96962 32.4845C5.2986 32.5965 5.62758 32.7085 5.96355 32.8135C6.08254 32.8765 6.22253 32.8975 6.35552 32.8905C6.71949 32.7855 7.06947 32.6525 7.39844 32.4845C7.70642 32.3166 7.88141 31.9736 7.82541 31.6236C7.79041 31.2806 7.49643 31.1756 7.21646 31.0847C7.15346 31.0637 7.08347 31.0427 7.02047 31.0287C6.50251 30.9167 6.01955 30.6647 5.63457 30.3007C5.00462 29.6218 4.98362 29.4258 5.51558 28.7468C5.75357 28.4809 5.85156 28.1239 5.78156 27.7739C5.69757 27.2909 5.48759 26.836 5.15861 26.465C5.10261 26.409 5.06062 26.339 5.01162 26.276C5.21461 26.255 5.44559 26.297 5.51558 26.206C5.71157 26.017 5.83756 25.7651 5.87956 25.4921C5.78856 24.8621 5.55058 24.2602 5.18661 23.7422C5.14461 23.8822 5.12361 23.9382 5.10961 23.9872C5.01162 24.5611 4.92063 25.1351 4.81564 25.7091C4.78064 25.8141 4.73864 25.912 4.68265 26.01C4.55666 25.961 4.44466 25.891 4.33967 25.8001C4.26968 25.6951 4.22768 25.5691 4.22068 25.4431C4.18568 25.2681 4.18568 25.0861 4.13669 24.9111C4.11569 24.8271 3.9967 24.7011 3.9407 24.7081C3.59073 24.7501 3.24776 24.8271 2.89078 24.8901C3.06577 25.2191 3.03777 25.6251 2.82079 25.926C2.7088 25.6601 2.5968 25.4431 2.51981 25.2121C2.45681 25.0301 2.35182 24.9461 2.16284 25.0091C1.71487 25.1561 1.21791 25.0931 0.825938 24.8341C0.769942 24.7991 0.706947 24.7781 0.587956 24.7291C0.314976 28.7888 0.993925 32.8485 2.58281 36.5932C4.33267 35.4313 5.99855 34.1364 7.55243 32.7295L6.32752 33.0585C6.36252 33.4225 6.10354 33.7445 5.73957 33.7864C5.71157 33.7864 5.67657 33.7864 5.64857 33.7864C4.71764 33.7515 3.81471 33.4295 3.07277 32.8695C3.12876 32.8625 3.19176 32.8695 3.24076 32.8905C3.59073 33.0375 3.9267 33.2055 4.28368 33.3315C4.57765 33.4785 4.92063 33.4505 5.19361 33.2755C5.43859 33.0935 5.43159 32.8975 5.16561 32.7435L4.94163 32.6105L4.92763 32.6175ZM26.591 40.401C25.1701 42.1998 25.0511 44.9856 26.612 46.2385C26.654 46.2175 26.689 46.1895 26.724 46.1545C27.4659 45.3146 27.7949 44.1877 27.6269 43.0817C27.4869 42.1228 27.13 41.2059 26.584 40.401H26.591ZM4.36767 20.0815C4.25568 19.9835 4.18568 19.8785 4.12269 19.8855C4.04569 19.8925 3.9127 19.9975 3.9127 20.0535C3.9267 20.1515 3.9897 20.2425 4.08069 20.2775C4.15069 20.2915 4.24168 20.1725 4.36067 20.0815H4.36767ZM52.1741 27.2489C52.0971 27.2069 52.0271 27.1649 51.9501 27.123C51.5861 26.99 51.1871 26.983 50.8162 27.095C50.1512 27.1929 49.4723 27.2209 48.8003 27.2979C48.4643 27.3679 48.1284 27.1929 47.9884 26.878C47.8554 26.584 47.7364 26.276 47.6384 25.968C47.4704 25.5831 47.0854 25.3451 46.6655 25.3731C46.3225 25.3941 46.2665 25.6741 46.1895 25.94C46.0985 26.269 46.0075 26.591 45.9165 26.92L45.8395 26.934C45.7415 26.717 45.6366 26.493 45.5386 26.276C45.0696 25.4151 44.8946 24.4212 45.0556 23.4482C45.1396 22.7833 45.7555 22.3143 46.4205 22.3983C46.7565 22.4963 47.0854 22.6223 47.4004 22.7763C47.3934 22.9793 47.4004 23.1962 47.4844 23.2312C47.7994 23.3362 48.1214 23.4272 48.4433 23.4902C48.3663 23.3642 48.3034 23.2312 48.2404 23.0913C48.0024 22.3703 47.9254 21.6074 48.0234 20.8514C48.0514 20.5434 48.0794 20.2355 48.1074 19.9345C48.1844 19.2136 47.3234 18.9266 46.8335 19.0456C47.1904 19.6825 47.3164 20.4245 47.1764 21.1384C46.8685 20.8444 46.6095 20.5364 46.3435 20.2355C46.0775 19.9345 45.9305 19.5495 45.9235 19.1436C45.9235 18.9896 45.9515 18.9266 46.1055 18.9056C46.2595 18.8636 46.4135 18.8146 46.5675 18.7516C46.5045 18.7096 46.4345 18.6816 46.3645 18.6466C45.8745 18.5136 45.4196 18.2616 45.0486 17.9046C44.4326 17.3377 43.9287 16.7007 44.2017 15.7978C44.3697 15.2169 44.0407 14.6079 43.4597 14.4399C43.4107 14.4259 43.3547 14.4119 43.3057 14.4049C42.9278 14.3279 42.5428 14.2999 42.1578 14.3069C41.7519 14.3699 41.3319 14.3699 40.9259 14.3069C40.5059 14.1599 40.366 13.894 40.6179 13.537C40.8979 13.166 41.2059 12.816 41.5349 12.4871C41.6399 12.3891 41.7519 12.2981 41.8638 12.2211C41.8428 12.1861 41.8218 12.1581 41.7938 12.1231C41.3809 12.3681 40.9819 12.634 40.6039 12.935C40.212 13.25 39.939 13.691 39.827 14.1809C39.743 14.6079 39.939 14.8809 40.366 14.8669C40.7019 14.8599 41.0379 14.8109 41.3739 14.7689C41.8078 14.6919 42.2558 14.7339 42.6758 14.8809C43.1237 15.0139 43.3827 15.4828 43.2497 15.9378C43.2497 15.9378 43.2497 15.9378 43.2497 15.9448C43.1867 16.2458 43.1727 16.5538 43.2217 16.8547C43.4107 17.6037 43.9217 18.2266 44.6146 18.5486C44.9016 18.7166 45.2166 18.8426 45.5176 18.9896C45.5176 19.0246 45.5036 19.0596 45.4826 19.0946C45.1326 19.5985 45.1816 19.8155 45.6016 20.2495C46.0915 20.7604 46.5465 21.2994 47.0015 21.8314C47.1134 21.9853 47.2114 22.1533 47.2954 22.3283L47.2324 22.3983C46.9805 22.2863 46.7355 22.1603 46.4835 22.0763C45.8115 21.7754 45.0206 21.9223 44.5026 22.4543C44.0827 22.9163 43.9007 23.5462 44.0057 24.1622C44.0897 25.1701 44.4816 26.129 45.1326 26.899C45.4126 27.2419 45.8535 27.4029 46.2875 27.3329C46.7075 27.2769 46.8125 27.158 46.8825 26.738C46.9105 26.619 46.9595 26.507 47.0154 26.395L47.9394 27.4099C47.7014 27.4379 47.4634 27.4519 47.2324 27.4939C46.5955 27.6059 46.1545 27.8719 46.1125 28.5298C46.0915 28.8168 46.1125 29.1038 46.1615 29.3838C46.3645 30.3007 46.7355 31.1686 47.2534 31.9526C47.4844 32.2326 47.8484 32.3796 48.2124 32.3306C47.9044 31.7286 47.6314 31.1197 47.3934 30.4897C47.1274 29.6918 47.3654 29.2718 48.0864 29.0548C48.2474 29.0058 48.4083 28.9638 48.5763 28.9358C48.9823 28.8588 49.0103 28.8868 49.0663 29.2928C49.1293 29.7548 49.1853 30.2167 49.2763 30.6717C49.4163 31.1686 49.8222 31.5466 50.3332 31.6446C50.2492 31.3016 50.1512 30.9517 50.0882 30.5877C50.0252 30.2447 50.0042 29.8947 49.9552 29.5518C49.9062 28.9708 49.4583 28.5088 48.8773 28.4459C48.4083 28.3549 47.9184 28.3829 47.4634 28.5228C47.3654 28.5508 47.2674 28.5718 47.1484 28.6068C47.2324 28.1449 47.6454 27.8159 48.1214 27.8369C49.0243 27.7459 49.9202 27.6829 50.8232 27.5849C51.2711 27.5359 51.7121 27.4379 52.1601 27.3679V27.2559H52.1741V27.2489ZM29.7478 4.24868C30.0137 4.82964 29.9927 4.94863 29.5098 5.41059L29.6148 5.57158C29.6498 5.60658 29.6708 5.64857 29.6918 5.69757C29.7128 5.78856 29.7618 5.94255 29.7198 5.97755C29.3768 6.26453 29.7898 6.85248 29.2928 7.04847C29.0968 7.10446 28.9008 7.13946 28.7048 7.15346L28.6908 7.07647L28.1589 7.43344C28.3269 7.62242 28.4739 7.80441 28.6348 7.9654C28.8098 8.09139 28.8868 8.31537 28.8238 8.52536C28.7818 8.64435 28.6348 8.72834 28.5368 8.83333L28.4599 8.77734L28.4948 8.07739L28.4109 8.04939L27.8929 8.59535C27.7109 8.50436 27.6339 8.28737 27.7179 8.10539C27.8789 7.74142 27.5219 7.50343 27.1999 7.64342C27.046 7.70642 26.892 7.77641 26.745 7.86041C26.465 8.04939 26.08 7.9794 25.891 7.69942C25.8141 7.58743 25.7721 7.44744 25.7861 7.30745C25.7861 7.09046 25.7861 6.90848 25.5271 6.80349C25.4081 6.76849 25.3311 6.6425 25.3731 6.51651C25.3871 6.47451 25.4081 6.43951 25.4361 6.41152C25.5691 6.25053 25.4641 6.13154 25.3241 6.04754C25.0091 5.87256 25.0021 5.87256 24.9881 5.52258C24.7151 5.46659 24.5191 5.22161 24.5331 4.94163C24.5471 4.66865 24.8131 4.47266 25.2401 4.38867C25.1841 4.15069 25.3311 3.90571 25.5761 3.84971C25.6181 3.84271 25.6601 3.83571 25.6951 3.83571C25.5341 3.47174 25.5271 3.16376 25.912 2.96078C25.94 2.94678 25.94 2.85578 25.94 2.80679C25.912 2.42882 26.192 2.09984 26.57 2.07184C26.78 2.05784 26.99 2.13484 27.13 2.29583C27.1999 2.35882 27.2839 2.39382 27.3749 2.38682C27.9069 2.28883 28.0679 2.37282 28.2569 2.87678C28.2709 2.91878 28.2989 2.96778 28.3269 3.03077C28.6138 2.82779 29.0058 2.89778 29.2018 3.18476C29.2018 3.19176 29.2158 3.19876 29.2158 3.21276C29.2648 3.25475 29.3348 3.26875 29.3978 3.26175C29.6428 3.21976 29.8807 3.35275 29.9787 3.58373C30.1047 3.83571 29.9507 3.9967 29.8177 4.17169C29.7968 4.19968 29.7688 4.23468 29.7478 4.26268V4.24868ZM26.899 5.02562C26.899 4.96263 26.899 4.89263 26.906 4.82964C26.619 4.80164 26.339 4.76664 26.052 4.75964C26.003 4.75964 25.954 4.85763 25.898 4.90663C25.94 4.94863 25.989 5.01862 26.031 5.02562C26.318 5.03262 26.605 5.02562 26.892 5.02562H26.899ZM28.0329 4.60565L28.1169 4.72464C28.3689 4.57765 28.6138 4.43067 28.8588 4.27668C28.8868 4.25568 28.8798 4.17868 28.8938 4.12269C28.8238 4.10869 28.7258 4.06669 28.6838 4.09469C28.4599 4.25568 28.2429 4.43067 28.0259 4.60565H28.0329ZM27.3329 4.40267C27.3539 4.06669 27.2419 3.73072 27.032 3.46474C26.878 3.80771 27.011 4.21368 27.3329 4.40267ZM26.402 6.36952C26.794 6.38352 27.018 6.04754 27.004 5.54358L26.402 6.36952ZM27.9279 5.40359L27.8369 5.50159C27.9909 5.66257 28.1379 5.83056 28.2989 5.97755C28.3339 6.01255 28.4179 5.99155 28.4809 5.99855C28.4739 5.93555 28.4809 5.85156 28.4459 5.82356C28.2779 5.67657 28.1029 5.54358 27.9279 5.40359ZM32.6035 4.94163L31.3576 5.12361C31.3506 5.08162 31.3436 5.04662 31.3366 5.00462C31.6306 4.90663 31.9386 4.82264 32.2466 4.77364C32.7155 4.73164 33.1565 4.53566 33.5065 4.22768C33.5485 4.18568 33.6115 4.16469 33.6675 4.17169L33.4015 4.45866L33.4365 4.54966L34.4864 4.17868C34.4024 4.08069 34.3744 4.0387 34.3324 3.9967C34.0244 3.70972 34.0314 3.66772 34.3044 3.34575C34.3814 3.26175 34.3884 3.12176 34.4514 3.01677C34.5424 2.82779 34.6754 2.6528 34.8294 2.51281C34.8924 2.47081 35.1583 2.6178 35.2563 2.73679C35.4943 3.05177 35.7113 3.38774 35.9073 3.73072C36.0053 3.89871 36.0893 4.11569 35.9003 4.24868C35.6973 4.36067 35.4873 4.44466 35.2633 4.50066C35.2493 4.50066 35.2213 4.49366 35.2073 4.47966C34.8364 4.22068 34.3324 4.25568 34.0104 4.57066C33.8354 4.68265 33.6325 4.75264 33.4225 4.76664C33.0655 4.82964 32.7505 5.03962 32.5615 5.3476C32.4286 5.52258 32.2606 5.73957 32.4706 5.92855C32.5755 6.02655 32.8065 5.97755 32.9745 5.99855C32.8485 6.25753 32.5895 6.43251 32.3026 6.45351C32.2536 6.45351 32.2046 6.45351 32.1556 6.47451C31.6306 6.85948 31.4766 7.57343 31.7986 8.13339C32.0156 8.39237 32.3796 8.44836 32.6665 8.27338C32.9255 8.13339 33.1775 7.9724 33.4155 7.79041C33.8074 7.49643 34.2694 7.30745 34.7524 7.24445C35.0954 7.18846 35.4243 7.39144 35.5363 7.72042C35.9493 8.86833 36.9922 9.66627 38.2031 9.77126C38.8961 9.95325 39.624 9.98825 40.338 9.87625C40.31 9.94625 40.275 10.0092 40.233 10.0652C40.093 10.1772 40.079 10.3802 40.191 10.5202C40.212 10.5482 40.24 10.5692 40.268 10.5902C40.5829 10.8282 40.9189 11.0382 41.2619 11.2272C41.5279 11.3531 41.8078 11.4371 42.1018 11.4651C41.6259 10.8912 41.5979 10.0232 40.8349 9.66627C41.2339 9.3163 41.8428 9.36529 42.1858 9.76426C42.2068 9.79226 42.2348 9.82026 42.2558 9.84826C42.5428 10.4362 42.8018 11.0382 43.0887 11.6331C43.2707 12.0741 43.5997 12.4521 44.0127 12.69V12.781C43.7257 12.851 43.4317 12.935 43.1307 12.991C43.0747 12.998 42.9698 12.907 42.9418 12.837C42.6618 12.2701 42.1158 11.8851 41.4929 11.8151C41.2059 11.7451 40.9119 11.6891 40.6179 11.6261C40.079 11.5141 39.932 11.3671 39.834 10.8352C39.813 10.7232 39.799 10.6042 39.785 10.4852C38.6581 10.6322 37.5102 10.5132 36.4323 10.1352C35.7113 9.89025 35.1513 9.3233 34.8994 8.60935C34.6684 7.9934 34.3254 7.80441 33.7235 8.07739C33.3175 8.30137 32.9255 8.55335 32.5615 8.84033C32.3936 8.96632 32.2116 9.07132 32.0226 9.15531C31.7776 9.2953 31.4696 9.2183 31.3296 8.97332C31.2876 8.90333 31.2666 8.82633 31.2596 8.74934C31.0847 7.9584 31.2806 7.13246 31.7986 6.50251C31.8476 6.43951 31.9316 6.36952 31.9176 6.31352C31.8546 5.79556 32.1976 5.46659 32.4706 5.10261C32.4915 5.07462 32.5195 5.03962 32.5965 4.94163H32.6035ZM35.4873 4.13669L35.5643 4.05269L35.2143 3.46474L34.9554 3.85671L35.4873 4.13669ZM34.9484 3.58373C34.8294 3.50674 34.7594 3.42974 34.6754 3.41574C34.6334 3.40874 34.5704 3.49274 34.5144 3.54173C34.5774 3.61173 34.6474 3.67472 34.7314 3.73072C34.7594 3.74472 34.8364 3.66072 34.9414 3.58373H34.9484ZM48.7373 22.4263L49.9202 23.5672C50.0882 23.3642 50.2282 23.2242 50.3332 23.0563C50.4312 22.8813 50.6342 22.8043 50.8162 22.8743C50.9632 22.8953 51.1101 22.9373 51.2361 23.0143C51.3831 23.1333 51.5721 23.3082 51.5861 23.4692C51.6071 23.7072 51.4321 23.9172 51.1871 23.9382C51.1731 23.9382 51.1591 23.9382 51.1451 23.9382C50.7252 23.8892 50.3122 23.8122 49.9062 23.7072C49.8082 23.6792 49.7173 23.6372 49.6263 23.5882L49.5633 23.6722L50.6622 24.8761C50.7462 24.7851 50.8302 24.6871 50.9072 24.5891C51.0331 24.4002 51.1521 24.2252 51.4251 24.2952C51.7191 24.3722 51.9711 24.4772 52.0411 24.8131C52.0901 25.0511 52.0061 25.2051 51.7611 25.2401C51.6561 25.2541 51.5441 25.2611 51.4321 25.2401C51.2291 25.2191 51.0471 25.1701 50.8722 25.3661C50.8022 25.4501 50.5572 25.3801 50.3332 25.3801L50.5922 24.9741C49.6893 24.3722 49.0243 23.4622 48.7373 22.4193V22.4263ZM51.0121 23.1403V23.2732L50.4172 23.7352C50.6482 23.7702 50.9002 23.8052 51.0191 23.5112C51.0401 23.3922 51.0331 23.2662 51.0121 23.1403ZM18.3946 2.23983C17.3167 3.28975 16.2318 4.32567 15.1679 5.38959C14.5309 5.97755 13.9989 6.6775 13.621 7.45444C13.572 7.60143 13.544 7.75541 13.537 7.9094L13.663 7.9794C13.677 7.9234 13.705 7.86741 13.733 7.81841C14.2369 7.20246 14.7129 6.5655 15.2519 5.98455C16.0568 5.12361 16.9107 4.30468 17.7437 3.46474C18.1356 3.10077 18.4156 2.6388 18.5486 2.12084C18.4506 2.19783 18.4156 2.21883 18.3876 2.23983H18.3946ZM38.3501 5.55058C39.351 5.70457 40.345 5.91455 41.3319 6.12454C41.5559 6.21553 41.8148 6.12454 41.9198 5.90056C41.3459 5.76057 40.7929 5.59958 40.233 5.50159C39.239 5.3266 38.2381 5.17261 37.2372 5.03262C36.6002 4.94163 35.9563 4.89263 35.3123 4.82964C35.0814 4.80864 34.8994 4.87863 34.8434 5.10961C36.0193 5.2566 37.1882 5.37559 38.3571 5.55758L38.3501 5.55058ZM9.84126 8.65135C10.4572 8.44136 10.5832 8.48336 10.6812 8.93133C10.6252 8.94532 10.5762 8.95932 10.5202 8.96632C10.1002 9.02932 10.0512 9.10631 10.1142 9.52628C10.2682 10.4502 10.1282 11.3951 9.70127 12.2281C9.68727 11.2482 10.1002 10.2892 9.86926 9.2743C9.79226 9.3093 9.73627 9.3373 9.68727 9.35829C9.48428 9.44229 9.2813 9.61727 9.05732 9.42829C8.79834 9.17631 8.69334 8.79834 8.78434 8.44836C8.85433 8.23838 9.07831 8.12639 9.2883 8.19638C9.3163 8.20338 9.35129 8.21738 9.37929 8.23838C9.54728 8.35737 9.70827 8.49736 9.85526 8.64435L9.84126 8.65135ZM9.12731 9.00132L9.62427 8.80534C9.3303 8.63035 9.18331 8.69334 9.12731 9.00132ZM44.6426 29.9577C44.7266 29.9927 44.8246 29.9787 44.9016 29.9227C45.5106 29.2858 45.6296 29.4468 44.9086 28.8868C44.9016 28.8868 44.8946 28.8728 44.8806 28.8658C44.6916 28.7608 44.7056 28.6208 44.8176 28.4669C44.9506 28.2919 45.0836 28.1239 45.2166 27.9559C44.5166 27.2559 44.3906 27.2419 43.8657 28.1029C44.0267 28.2079 44.1947 28.3129 44.3557 28.4179C44.5166 28.4878 44.5936 28.6768 44.5236 28.8448C44.5026 28.8868 44.4746 28.9288 44.4396 28.9638C44.2857 29.1178 44.1177 29.2578 43.9217 29.4328C44.1877 29.6358 44.4046 29.8107 44.6356 29.9577H44.6426ZM21.1314 2.86978C21.2784 2.5968 21.1734 2.26083 20.9004 2.11384C20.8724 2.09984 20.8374 2.08584 20.8024 2.07184C20.7044 2.02985 20.6064 1.98785 20.4665 1.92485C20.4035 2.04385 20.3405 2.16984 20.2915 2.30283C20.1025 2.91178 20.0115 2.96778 19.3955 2.77879C19.3465 2.76479 19.2975 2.72979 19.2555 2.73679C19.1716 2.75079 19.0386 2.77179 19.0176 2.82079C18.9476 3.05877 18.8916 3.29675 18.8496 3.54173C18.8496 3.61173 18.8916 3.66772 18.9476 3.70972C19.4725 4.04569 19.7525 3.9197 19.8575 3.31075V3.28275C19.8645 3.09377 20.0255 2.94678 20.2075 2.96078C20.2565 2.96078 20.3055 2.97478 20.3475 2.99577C20.5504 3.06577 20.7534 3.15676 20.9704 3.24076C21.0194 3.11476 21.0754 2.99577 21.1174 2.87678L21.1314 2.86978ZM43.2497 10.8772H44.8386C44.8036 10.7792 44.7616 10.6742 44.7126 10.5832C44.5796 10.3732 44.6426 10.2682 44.8596 10.1842C45.1326 10.0722 45.3916 9.93225 45.6576 9.79926C45.8745 9.68727 45.9865 9.77126 46.0495 9.98825C46.1755 10.4502 46.1195 10.9472 45.8885 11.3671C45.7905 11.5211 45.6366 11.6401 45.4616 11.6891C45.3916 11.7101 45.2236 11.5001 45.1606 11.3741C45.0416 11.1222 44.9506 10.9752 44.5936 11.0522C44.1387 11.1502 43.6697 11.0872 43.2567 10.8702L43.2497 10.8772ZM45.2166 10.8982L45.4476 11.3601L45.5246 11.3391C45.5666 11.1362 45.6086 10.9332 45.6716 10.6532L45.2166 10.8912V10.8982ZM45.1116 10.7372H45.2096C45.2306 10.6532 45.2866 10.5482 45.2516 10.4922C45.1816 10.4082 45.0976 10.3452 44.9996 10.2892L44.9226 10.3662L45.1116 10.7302V10.7372ZM46.4835 17.0087C46.9175 17.3937 47.3304 17.8137 47.7994 18.1636C48.2754 18.5206 48.8073 18.8076 49.3253 19.1156C49.3883 19.1436 49.4583 19.1506 49.5283 19.1436C49.7312 19.1436 49.9342 19.1436 50.1442 19.1436C50.5502 19.1436 50.8232 18.9056 50.7812 18.6046C50.7392 18.3316 50.5222 18.1146 50.2422 18.0796C49.9342 18.0306 49.7172 18.1006 49.6193 18.4296C49.6053 18.4856 49.5633 18.5346 49.5423 18.5906C49.4723 18.8286 49.3323 18.8636 49.1433 18.7376C48.6113 18.3806 48.0794 18.0166 47.5474 17.6527C47.2114 17.4147 46.8895 17.1627 46.5535 16.9177L46.4835 17.0087ZM44.9226 14.3069L47.8554 15.6788C47.8344 15.7208 47.7854 15.8188 47.7434 15.9168L47.7854 15.9868C47.9324 15.9308 48.0864 15.8748 48.2334 15.8188C48.4013 15.7488 48.5553 15.6648 48.7233 15.6088C48.8423 15.5668 48.9963 15.5808 49.0943 15.5108C49.1993 15.4338 49.2693 15.3148 49.2903 15.1889C49.2623 14.8599 48.9753 14.6149 48.6463 14.6429C48.3034 14.6429 48.1984 14.8949 48.1284 15.1329C48.0374 15.4478 47.8764 15.4758 47.6244 15.3568C47.1414 15.1259 46.6585 14.8879 46.1685 14.6709C45.7765 14.4959 45.3706 14.3559 44.9716 14.2019L44.9296 14.3139L44.9226 14.3069ZM39.4 8.47636C39.792 8.49736 40.177 8.52536 40.5689 8.52536C41.1779 8.52536 41.7938 8.54636 42.4028 8.50436C42.7808 8.47636 42.8088 8.39237 42.7458 8.01439C42.6688 7.53843 42.8018 7.29345 43.2637 7.26545C43.5297 7.30045 43.7817 7.41244 43.9917 7.58043C44.0127 7.71342 43.9847 7.85341 43.9007 7.9654C43.5577 8.32237 43.1027 8.55336 42.6128 8.61635C42.0808 8.64435 41.5489 8.77034 41.0169 8.77034C40.4779 8.74234 39.939 8.67935 39.407 8.58835V8.46936L39.4 8.47636ZM43.2497 8.21038L43.3477 8.25238C43.4317 8.13339 43.4947 8.0004 43.5297 7.86041C43.5297 7.79041 43.3827 7.70642 43.2427 7.57343V8.21738L43.2497 8.21038ZM12.4311 6.39052C12.3331 6.6215 12.2421 6.83848 12.1161 7.12546C12.739 6.72649 12.942 5.90755 12.5711 5.2636C11.5561 5.71157 11.0662 6.70549 11.5491 7.39144C11.8221 6.72649 12.0461 6.46751 12.4241 6.39052H12.4311ZM49.8782 21.1944C50.0952 21.0614 50.2912 20.8934 50.4662 20.7044C50.5572 20.5155 50.6132 20.3195 50.6342 20.1095C50.4522 20.0955 50.2632 20.0675 50.0812 20.0675C49.8782 20.0675 49.8362 20.1865 49.9552 20.3405C50.0742 20.4595 50.0742 20.6484 49.9552 20.7674C49.9342 20.7884 49.9062 20.8094 49.8782 20.8234C49.6683 20.9844 49.4303 21.1174 49.2203 21.2854C49.1433 21.3694 49.0803 21.4674 49.0383 21.5724C49.1363 21.6284 49.2343 21.7404 49.3323 21.7404C49.6193 21.7404 49.8992 21.7054 50.1792 21.6494C50.3822 21.6074 50.5642 21.4814 50.7602 21.4184C50.8372 21.3974 50.9352 21.4534 51.0261 21.4674C51.0121 21.5514 50.9912 21.6424 50.9562 21.7194C50.9212 21.7824 50.8512 21.8244 50.7392 21.9223C50.9282 21.9223 51.0821 21.9713 51.1731 21.9153C51.3341 21.8104 51.5581 21.6704 51.5861 21.5094C51.6281 21.2644 51.3341 21.2924 51.1731 21.2294C51.1241 21.2084 51.0751 21.2084 51.0261 21.2224C50.7322 21.2994 50.4452 21.3834 50.1512 21.4744C49.9482 21.5374 49.7522 21.6704 49.5283 21.4324C49.6613 21.3414 49.7732 21.2714 49.8782 21.1944ZM46.0985 13.537C46.2455 13.453 46.4835 13.397 46.5255 13.278C46.6305 12.872 46.9525 12.5641 47.3584 12.4661C47.6454 12.3891 47.6524 12.0951 47.4284 11.9061C47.2114 11.7311 46.9175 11.6961 46.6725 11.8081C46.4345 11.8921 46.3925 12.0951 46.3925 12.3191C46.3925 12.5711 46.2735 12.69 46.0145 12.62C45.8045 12.5641 45.5876 12.5221 45.3846 12.4591C45.0906 12.3751 44.7966 12.2771 44.5026 12.1931L44.4746 12.2911C45.0346 12.5781 45.6576 12.739 46.2875 12.767C46.1895 13.019 46.1125 13.229 46.0355 13.439L46.1195 13.544L46.0985 13.537ZM15.7208 7.25145C15.7068 7.47544 15.8398 7.68542 16.0498 7.76241C16.2458 7.85341 16.4768 7.79741 16.6167 7.62942C17.0577 7.09746 17.1907 6.37652 16.9737 5.71857C16.8827 6.00555 16.7567 6.28553 16.6027 6.54451C16.3788 6.85248 16.0498 6.83148 15.7208 6.50251C15.7208 6.78949 15.7208 7.01347 15.7208 7.24445V7.25145ZM37.5312 7.40544C37.8461 7.13946 37.9231 6.69149 37.7132 6.33452C37.5942 6.5935 37.5032 6.81049 37.3982 7.03447C37.0692 6.94348 37.1812 6.6285 37.1252 6.30652C37.0202 6.41852 36.9222 6.54451 36.8382 6.6775C36.7752 6.81749 36.7052 6.94348 36.5442 6.87348C36.4253 6.82448 36.2713 6.71249 36.2433 6.6075C36.2363 6.43251 36.2573 6.25753 36.3133 6.09654C36.2013 6.25053 36.1103 6.37652 36.0263 6.50251C35.8443 6.70549 35.8373 7.00647 36.0123 7.21646C36.2083 7.42644 36.4393 7.36344 36.6632 7.23745C36.6982 7.22345 36.7262 7.21646 36.7612 7.20946C37.0412 7.51043 37.2652 7.56643 37.5172 7.40544H37.5312ZM47.3234 24.7571C47.4494 24.6521 47.5684 24.5261 47.6664 24.3932C47.5544 24.3372 47.4354 24.2252 47.3234 24.2252C47.0015 24.2322 46.6795 24.2952 46.3575 24.3302C46.2595 24.3442 46.1615 24.3652 46.0635 24.3792C46.1335 24.2602 46.2315 24.1482 46.3435 24.0642C46.5115 23.9102 46.6655 23.7492 46.7985 23.5672C46.8475 23.4972 46.7985 23.2592 46.7635 23.2452C46.5395 23.1473 46.2875 23.1753 46.0845 23.3152L46.3225 23.6162L45.4196 24.4632C46.0425 24.7641 46.5605 24.3092 47.1064 24.3652C47.1064 24.4212 47.1134 24.4562 47.1064 24.4842C47.0644 24.5611 47.0224 24.6381 46.9385 24.7781C47.1064 24.7781 47.2534 24.8201 47.3304 24.7711L47.3234 24.7571ZM50.1932 28.1869C50.6692 28.9848 50.8582 30.0417 52.0061 30.2517C51.4041 29.5588 51.0681 28.6348 50.1932 28.1869ZM18.6956 10.6742C18.7656 10.6742 18.8286 10.6672 18.8916 10.6462C19.6545 10.3382 20.2845 9.77126 20.6764 9.05032C20.7394 8.91033 20.8304 8.69334 20.9354 8.67235C21.1944 8.62335 21.3204 8.42036 21.5024 8.29437C21.6914 8.16838 21.7754 7.9304 21.7054 7.71342C21.5164 7.8954 21.3764 8.12639 21.2014 8.16838C20.9494 8.23138 20.7394 8.41337 20.6554 8.65835C20.3475 9.3023 19.8575 9.83426 19.2555 10.2122C19.0526 10.3452 18.8566 10.4922 18.6606 10.6322L18.6886 10.6742H18.6956ZM18.6046 4.68265L19.0036 4.78764L19.0736 4.69665C18.9616 4.57765 18.8496 4.47266 18.7236 4.36767C18.6676 4.32567 18.5206 4.30468 18.4856 4.33967C18.4226 4.40967 18.4016 4.50766 18.4226 4.59165C18.5136 4.82964 18.6326 5.06062 18.7376 5.2916C18.7726 5.36859 18.8146 5.43859 18.8636 5.52258C18.5276 5.39659 18.2406 5.2636 17.9396 5.17961C17.8697 5.15861 17.6877 5.2916 17.6877 5.3546C17.7017 5.49459 17.7507 5.62058 17.8417 5.72557C17.9186 5.76756 18.0166 5.77456 18.0936 5.73257C18.2266 5.52958 18.3666 5.57858 18.5276 5.67657C18.7376 5.80956 18.9406 5.94255 19.1786 6.09654C19.3255 5.48059 18.6816 5.20761 18.6116 4.67565L18.6046 4.68265ZM43.5647 20.7254C43.6697 20.7744 43.7817 20.8094 43.8937 20.8164C44.1247 20.7884 44.3487 20.7394 44.5656 20.6624C44.5936 20.5854 44.5936 20.5015 44.5656 20.4315C44.4256 20.2075 44.1527 20.0955 43.8937 20.1585C43.8937 20.1585 43.8867 20.1725 43.8727 20.1865L44.1317 20.6134C43.8797 20.5714 43.6207 20.5434 43.3617 20.5364C43.2427 20.5364 43.0258 20.6274 43.0258 20.6764C43.0258 20.8304 43.0747 20.9774 43.1797 21.0824C43.4737 21.2854 43.7747 21.4744 44.0897 21.6424C44.1807 21.6844 44.2717 21.7264 44.3627 21.7544C44.1247 21.3694 43.6767 21.2084 43.5087 20.7954L43.5647 20.7184V20.7254ZM38.7981 7.74142C39.393 7.48244 39.4 7.47544 39.183 6.85948C39.127 6.76849 39.0291 6.71249 38.9241 6.71249C38.2381 6.81049 38.1541 6.94348 38.3081 7.60143C38.3291 7.67842 38.3431 7.75541 38.3781 7.88141C38.5391 7.83241 38.6721 7.79741 38.7981 7.74142ZM38.5461 13.005C39.155 12.928 39.281 12.767 39.148 12.1791C39.127 12.0951 39.092 12.0041 39.0571 11.9271C38.7561 12.0251 38.4551 12.1301 38.1611 12.2421C38.1471 12.2421 38.1471 12.3191 38.1541 12.3541C38.1821 12.5291 38.2241 12.704 38.2801 12.872C38.3081 12.942 38.3991 12.991 38.4341 13.019L38.5601 13.005H38.5461ZM6.18753 14.7409C6.05454 14.5589 5.90755 14.6989 5.79556 14.7759C5.64157 14.9089 5.49459 15.0489 5.3546 15.2029C5.3546 15.2029 5.3686 15.2379 5.38259 15.2519C5.48059 15.4128 5.59258 15.5668 5.70457 15.7138C5.76756 15.7768 5.86556 15.8048 5.95655 15.7908C6.18753 15.7068 6.40452 15.5948 6.6705 15.4688C6.50251 15.2029 6.35552 14.9579 6.18753 14.7269V14.7409ZM14.9789 12.5011C14.9789 12.1441 14.9369 12.1021 14.5099 12.0951C14.0549 12.0811 14.0129 12.1651 13.9779 12.809C13.9569 13.229 14.2439 13.096 14.4539 13.124C14.9159 13.124 14.9719 13.061 14.9789 12.5081V12.5011ZM15.8188 11.3391C15.5948 11.2831 15.3638 11.2412 15.1329 11.2202C15.1189 11.2202 15.0839 11.2621 15.0839 11.2901C15.0489 11.5561 15.0139 11.8151 14.9999 12.0811C14.9999 12.1231 15.0979 12.2001 15.1679 12.2141C15.3148 12.2631 15.4758 12.2981 15.6298 12.3051C15.7208 12.3051 15.8118 12.2491 15.8608 12.1721C15.9168 11.9691 15.9518 11.7661 15.9798 11.5561C15.9448 11.5001 15.9028 11.3601 15.8258 11.3321L15.8188 11.3391ZM43.6347 18.6886C43.6347 18.5906 43.5927 18.4996 43.5157 18.4436C43.2917 18.3666 43.0607 18.3106 42.8298 18.2756C42.7598 18.2756 42.6968 18.3176 42.6688 18.3736C42.5918 18.5836 42.4518 18.8356 42.5078 19.0106C42.5498 19.1296 42.8718 19.1646 43.0747 19.2345C43.1027 19.2345 43.1307 19.2345 43.1657 19.2345C43.4877 19.2345 43.5577 19.1646 43.6347 18.6956V18.6886ZM8.09139 26.402C7.9724 26.395 7.82541 26.668 7.69242 26.822C7.65042 26.878 7.61543 26.941 7.58043 27.004C7.82541 27.1859 8.09139 27.3329 8.37137 27.4379C8.47636 27.4659 8.65835 27.1719 8.80534 27.018C8.84033 26.976 8.86833 26.934 8.89633 26.885C8.72134 26.598 8.42036 26.416 8.08439 26.395L8.09139 26.402ZM9.51228 20.5015C9.53328 20.4665 9.55428 20.4245 9.57528 20.3895C9.65927 20.0535 9.71527 19.7175 9.82026 19.3885C10.0022 18.7446 9.75026 18.0586 9.19731 17.6877C9.61727 18.6256 9.41429 19.5635 9.51228 20.5085V20.5015ZM2.93978 21.2084C2.80679 20.6414 2.6878 20.0675 2.50581 19.5145C2.41482 19.2066 2.14884 18.9896 1.83386 18.9476C2.21883 19.8365 2.6038 20.7114 2.97478 21.5584C2.97478 21.4394 2.96778 21.3204 2.94678 21.2014L2.93978 21.2084ZM45.7835 15.3778C45.6086 15.4338 45.4056 15.5038 45.4336 15.7558C45.4616 16.0078 45.6436 16.0988 45.8605 16.1478C45.9445 16.1618 46.0215 16.1968 46.0915 16.2458C46.3575 16.4838 46.7705 16.4698 47.0085 16.2038C47.0085 16.2038 47.0084 16.2038 47.0154 16.1968C46.6445 16.2458 46.5885 16.1968 46.5535 15.8678C46.3155 15.9588 46.0845 15.9448 45.9585 15.6998C45.8045 15.3918 46.2385 15.5318 46.2525 15.2798C46.0915 15.3078 45.9375 15.3358 45.7835 15.3778ZM35.7953 11.7521C36.2293 12.1581 36.8592 12.3191 37.1182 12.1091L36.2153 11.6261C36.4393 11.5351 36.6632 11.4301 36.8802 11.3111C36.9572 11.2482 36.9922 11.1572 36.9852 11.0592C36.8662 10.8352 36.5862 10.7512 36.3693 10.8702C36.2993 10.9052 36.2433 10.9542 36.2013 11.0172L36.5862 11.2691L35.8023 11.7521H35.7953ZM4.46566 15.6228C4.59165 15.6788 4.81564 15.7208 4.89263 15.6578C4.99062 15.5738 4.99062 15.3708 5.00462 15.2239C5.01862 15.0769 4.96962 14.9019 4.99062 14.7479C5.03262 14.4049 4.78764 14.0969 4.44466 14.0549H4.43067C4.71764 14.4469 4.71764 14.4959 4.51466 14.5729L4.61265 15.2379L4.0387 15.3078C4.17169 15.4338 4.31867 15.5388 4.47966 15.6298L4.46566 15.6228ZM48.8073 24.7291C48.6953 24.7011 48.5763 24.6801 48.4573 24.6661C48.2264 24.6521 48.0864 24.7921 48.1704 24.9601C48.3034 25.2121 48.4503 25.4571 48.6183 25.6881C48.8073 25.877 49.0943 25.912 49.3253 25.7791C48.9823 25.6741 48.9193 25.5411 49.0873 25.3171C48.6603 25.1561 48.5693 24.9601 48.8073 24.7361V24.7291ZM41.5489 15.9308C41.7099 15.8048 41.8988 15.7208 42.0948 15.6648C42.2908 15.6158 42.4868 15.5808 42.6828 15.5598C42.1438 15.5388 41.6189 15.6858 41.1709 15.9798C40.9189 16.1478 40.8069 16.4558 40.9399 16.5817C41.1429 16.7777 41.3599 16.6657 41.5699 16.5608C41.3109 16.3298 41.2899 16.1548 41.5489 15.9238V15.9308ZM8.35737 30.1677C8.51836 30.1677 8.67235 30.1397 8.81234 30.0627C8.96632 29.9927 9.00832 29.8527 8.84733 29.7408C8.66535 29.6218 8.46936 29.5238 8.26638 29.4118C8.33637 29.5658 8.44836 29.7198 8.41337 29.7688C8.32937 29.8737 8.21038 29.9437 8.07739 29.9647C7.9584 29.9647 7.84641 29.9297 7.74841 29.8667C7.58743 29.7828 7.44044 29.6708 7.28645 29.5728C7.53843 29.9227 7.9304 30.1397 8.36437 30.1677H8.35737ZM33.6605 9.08531C33.4365 9.35829 33.2265 9.64527 33.0375 9.93925C32.9955 10.0652 33.0165 10.1982 33.0935 10.3032C33.1355 10.3592 33.3315 10.3382 33.4295 10.2962C33.5765 10.2122 33.7095 10.1072 33.8354 9.99525C33.4015 10.0092 33.2825 9.84126 33.4365 9.49828C33.4925 9.39329 33.5555 9.2953 33.6325 9.2043C33.7515 9.04332 33.8774 8.89633 33.9754 8.77734C33.8634 8.86833 33.7585 8.97332 33.6605 9.08531ZM43.1447 9.64527C43.1237 9.74326 43.1167 9.84826 43.1237 9.94625C43.2357 9.96025 43.3477 9.96025 43.4527 9.93925C43.6137 9.86226 43.7677 9.77126 43.9077 9.67327L43.5437 9.72227C43.4877 8.93133 44.2017 9.09931 44.5936 8.81234C43.9987 8.82633 43.4527 9.13431 43.1377 9.63827L43.1447 9.64527ZM36.8872 4.59165C37.3492 4.57065 37.7481 4.25568 37.8671 3.80771C37.9091 3.55573 37.8111 3.41574 37.6292 3.50674C37.4262 3.62573 37.2372 3.76572 37.0622 3.9127L37.1182 3.9897L37.4192 3.84971C37.6432 4.40967 36.9782 4.29068 36.8802 4.59865L36.8872 4.59165ZM40.4709 7.11146C40.317 7.31445 40.184 7.53143 40.079 7.75541C40.058 7.86741 40.093 7.9864 40.177 8.06339C40.282 8.11239 40.394 8.10539 40.4989 8.05639C40.6459 7.9654 40.7789 7.86041 40.9049 7.74142C40.7509 7.69942 40.5339 7.70642 40.4989 7.62942C40.345 7.30045 40.6179 7.11146 40.7789 6.86648C40.6669 6.93648 40.5689 7.01347 40.4849 7.11146H40.4709ZM14.9019 8.50436L14.6709 8.72834C14.5939 8.63035 14.5379 8.51136 14.5029 8.39237C14.5029 8.16838 14.5099 7.9514 14.5379 7.72742C14.3629 8.07039 14.3069 8.46236 14.3769 8.84033C14.3979 8.95932 14.4469 9.06432 14.5169 9.16231C14.6569 9.3373 14.8319 9.3023 14.8949 9.09231C14.9369 8.89633 14.9579 8.70034 14.9719 8.50436H14.8949H14.9019ZM22.6223 8.61635C22.5383 8.50436 22.4893 8.37137 22.4893 8.22438C22.5243 8.0074 22.5803 7.79741 22.6503 7.59443C22.6713 7.50343 22.6783 7.40544 22.6923 7.31445C22.4333 7.70642 22.3283 8.18238 22.3983 8.65135C22.4193 8.87533 22.4263 9.13431 22.6993 9.19731C22.8393 9.2253 22.9373 8.87533 22.8953 8.60235C22.7973 8.60935 22.6503 8.65135 22.6223 8.61635ZM29.2718 1.78487C29.0198 2.00885 28.9008 2.35182 28.9568 2.6808L29.8317 1.84786C29.6218 1.71487 29.4608 1.63788 29.2718 1.77787V1.78487ZM24.1202 3.02377C23.9382 3.02377 23.8612 3.14276 23.9312 3.30375C23.9802 3.40874 24.0642 3.49974 24.1692 3.55573C24.3652 3.66772 24.5751 3.74472 24.7781 3.82871C24.7641 3.44374 24.4981 3.11477 24.1202 3.02377ZM34.1854 5.96355C34.3674 5.83056 34.5424 5.70457 34.7244 5.57858C34.3114 5.71157 33.9544 5.98455 33.7165 6.35552C33.6115 6.53051 33.5135 6.76849 33.7165 6.89448C33.9194 7.02047 34.1014 6.85248 34.2204 6.6285C33.8634 6.41852 33.8564 6.20853 34.1854 5.97055V5.96355ZM48.5483 17.2537C48.6323 17.1837 48.7303 17.1207 48.8283 17.0647C48.9053 17.0437 48.9823 17.0367 49.0663 17.0507H49.5703C49.1013 16.8967 48.5833 16.9247 48.1424 17.1417C47.9464 17.2187 47.9674 17.4217 48.1704 17.4777C48.3873 17.5197 48.6113 17.5477 48.8353 17.5547L48.5553 17.2607L48.5483 17.2537ZM7.73442 9.93925C7.88141 10.2192 8.04239 10.4922 8.22438 10.7582C8.28737 10.8422 8.48336 10.8282 8.62335 10.8632C8.65135 10.7302 8.66535 10.5972 8.66535 10.4572C8.63735 10.3522 8.58835 10.2542 8.53236 10.1702C8.44136 10.2682 8.37837 10.4082 8.30137 10.4152C7.9514 10.4432 7.9584 10.0932 7.81841 9.89725L7.73442 9.94625V9.93925ZM14.0059 5.03962C14.0899 4.96263 14.2019 4.81564 14.2509 4.82964C14.4329 4.89263 14.3909 5.05362 14.3349 5.20061C14.2789 5.3476 14.2159 5.51558 14.1319 5.73957C14.5099 5.39659 14.6079 4.83664 14.3699 4.38167C14.2999 4.34667 14.2159 4.34667 14.1459 4.38167C14.0619 4.59865 13.9919 4.82964 13.9219 5.04662L13.9989 5.03962H14.0059ZM47.6244 13.6C47.3094 13.628 47.0015 13.677 46.6935 13.74C46.5885 13.768 46.5255 13.9499 46.4415 14.0619C46.5605 14.1459 46.6865 14.2159 46.8195 14.2719C46.9035 14.2859 46.9945 14.2789 47.0714 14.2579C47.0225 14.1249 46.9245 13.9919 46.9595 13.9149C47.0854 13.579 47.4214 13.824 47.6384 13.712C47.6384 13.677 47.6314 13.642 47.6244 13.6ZM27.8089 2.14884C28.0049 1.95985 28.2149 1.77787 28.4039 1.57488C28.4599 1.49089 28.4949 1.39989 28.5159 1.3089C28.4109 1.2739 28.3059 1.2599 28.1939 1.2669C27.8929 1.44889 27.7179 1.79186 27.7529 2.14184C27.7739 2.14184 27.8019 2.15584 27.8089 2.14184V2.14884ZM25.2191 2.17684C25.2751 2.00885 25.2751 1.87586 25.1071 1.80586C24.9951 1.74987 24.8621 1.80586 24.8061 1.91086C24.7921 1.94585 24.7851 1.98085 24.7851 2.01585C24.7431 2.35182 24.8341 2.6948 25.0231 2.97478C25.0931 2.6808 25.1281 2.42182 25.2121 2.17684H25.2191ZM12.4661 13.53C12.4661 13.572 12.4661 13.607 12.4661 13.649C12.5571 13.9849 12.641 14.3279 12.76 14.6499C12.788 14.7269 12.977 14.7479 13.089 14.7969C13.124 14.6919 13.152 14.5939 13.173 14.4819C13.173 14.3699 13.173 14.2579 13.159 14.1529C12.879 14.3349 12.704 14.3209 12.62 14.1039C12.5571 13.908 12.5151 13.712 12.4871 13.509L12.4591 13.523L12.4661 13.53ZM30.0137 8.18938C30.1047 8.16838 30.1887 8.14039 30.2657 8.08439C30.2097 8.0074 30.1747 7.8954 30.1047 7.86741C29.8247 7.75541 29.5308 7.67142 29.2088 7.55943C29.3138 7.9164 29.6358 8.16838 30.0067 8.18238L30.0137 8.18938ZM25.1631 7.63642C24.8481 7.79741 24.6451 8.12639 24.6451 8.48336C24.6521 8.54636 24.7011 8.63035 24.7431 8.64435C24.8061 8.64435 24.8691 8.61635 24.9041 8.56035C25.0301 8.27338 25.1421 7.9724 25.2611 7.67842L25.1701 7.63642H25.1631ZM26.633 1.02892C26.577 0.972927 26.451 0.986926 26.36 0.965927C26.339 1.07792 26.269 1.23191 26.318 1.3019C26.472 1.49789 26.64 1.68687 26.822 1.86186C26.955 1.57488 26.878 1.22491 26.633 1.02192V1.02892ZM17.0787 11.2272C17.1417 11.3461 17.2677 11.4301 17.4077 11.4441C17.5897 11.4371 17.6037 11.2552 17.5757 11.0942C17.5617 11.0452 17.5477 11.0032 17.5337 10.9542C17.1627 10.9892 17.0927 10.9262 17.1067 10.5622C17.1067 10.4222 17.1067 10.2752 17.1067 10.0512C16.9457 10.4222 16.9317 10.8492 17.0787 11.2272ZM12.0531 7.77641C12.1301 8.11239 12.1931 8.45536 12.2911 8.78434C12.3121 8.86133 12.4521 8.90333 12.5361 8.95932C12.606 8.88233 12.655 8.79134 12.697 8.69334C12.711 8.54636 12.718 8.39937 12.704 8.25938C12.4591 8.50436 12.3121 8.46236 12.2211 8.15438C12.1861 8.02139 12.1651 7.8884 12.1371 7.75541L12.0601 7.76941L12.0531 7.77641ZM24.7781 6.76849C24.5681 6.93648 24.3792 7.11846 24.1972 7.31445C24.1622 7.37744 24.1622 7.45444 24.1972 7.52443C24.2672 7.55943 24.3582 7.56643 24.4282 7.53843C24.4912 7.51043 24.5401 7.43344 24.5891 7.37044C24.7361 7.18846 24.8831 7.00647 25.0721 6.76149C24.9811 6.76149 24.8411 6.71949 24.7711 6.76849H24.7781ZM24.2182 5.69057C24.0292 5.85156 23.8542 6.01955 23.6932 6.20153C23.6582 6.24353 23.6372 6.36252 23.6652 6.37652C23.7212 6.41852 23.7982 6.43951 23.8682 6.41852C23.9732 6.35552 24.0712 6.27153 24.1482 6.17353C24.2742 6.01255 24.3792 5.84456 24.5401 5.61358C24.4072 5.64157 24.2882 5.63457 24.2252 5.69057H24.2182ZM30.5807 4.76664C30.6857 4.80164 30.7907 4.81564 30.9027 4.80864C30.8957 4.69665 30.9167 4.56366 30.8607 4.47966C30.7137 4.23468 30.3987 4.15769 30.1537 4.31167C30.1257 4.32567 30.0977 4.34667 30.0767 4.36767C30.2377 4.50766 30.4057 4.64065 30.5807 4.76664ZM29.9437 3.20576C30.2377 3.03777 30.5317 2.86978 30.8187 2.6948C30.8607 2.6668 30.8817 2.54081 30.8607 2.51981C30.8047 2.47081 30.7277 2.44282 30.6577 2.44982C30.2657 2.51981 30.0907 2.83479 29.8877 3.11476L29.9437 3.19876V3.20576ZM29.8527 7.27945C30.1047 7.25145 30.3567 7.20246 30.6017 7.12546C30.6857 7.09746 30.7277 6.93648 30.7907 6.83148C30.6717 6.81749 30.5527 6.79649 30.4337 6.79649C30.4057 6.79649 30.3707 6.83848 30.3357 6.85948C30.1397 6.97147 29.9437 7.08347 29.7268 7.20946C29.7478 7.22345 29.8108 7.28645 29.8527 7.27945ZM30.6367 5.76056C30.4337 5.53658 30.0977 5.50158 29.8527 5.67657C30.3497 5.65557 30.3637 6.08254 30.5387 6.39052C30.7277 6.23653 30.7697 5.96355 30.6367 5.76056ZM23.7072 4.54266C23.6302 4.55666 23.5742 4.66865 23.5042 4.73164C23.5882 4.78764 23.6722 4.89263 23.7632 4.89263C23.9662 4.89263 24.1692 4.86463 24.3722 4.82964C24.2112 4.62665 23.9592 4.52166 23.7002 4.54266H23.7072ZM30.7137 33.1005L30.9167 33.1985C30.7697 33.5135 30.3917 33.6465 30.0767 33.4995C30.0347 33.4785 29.9997 33.4575 29.9647 33.4295C29.8597 33.3385 29.7198 33.3245 29.5938 33.3805C29.1528 33.4855 28.8098 33.8354 28.7118 34.2834C28.5368 34.6824 28.1939 34.9764 27.7809 35.1024C27.5359 35.2073 27.2769 35.2843 27.011 35.3263C26.885 35.3263 26.759 35.3053 26.647 35.2423C26.591 35.2213 26.563 35.1303 26.514 35.0744C26.563 35.0394 26.619 35.0044 26.675 34.9764C27.025 34.8434 27.3889 34.7314 27.7249 34.5774C27.9769 34.4584 28.1589 34.2274 28.2149 33.9614L25.975 34.9274C26.003 34.9834 26.045 35.1024 26.101 35.2143C26.325 35.8303 26.276 36.5092 25.954 37.0832C25.6671 37.7971 25.1561 38.3991 24.4912 38.7981C23.8822 39.295 23.0283 39.379 22.3353 39.0081C21.8104 38.8051 21.4604 38.2941 21.4674 37.7342C21.4534 37.6222 21.4114 37.5102 21.3484 37.4192C21.2224 37.2442 21.1174 37.0552 21.0264 36.8592C20.9494 36.4393 20.5854 36.1313 20.1585 36.1173C20.2845 35.9423 20.3475 35.7743 20.4665 35.7043C20.8164 35.4523 21.2924 35.4523 21.6424 35.7043C21.7824 35.8023 21.9013 35.7883 21.9573 35.6343C22.0973 35.2493 22.2233 34.8574 22.3563 34.4724L22.2513 34.3744C21.8314 34.5564 21.4114 34.7454 20.9844 34.9064C20.2215 35.2773 19.6755 35.9843 19.5005 36.8172C19.3955 37.3072 19.3605 37.8181 19.4025 38.3151C19.4025 38.5321 19.4235 38.7421 19.4515 38.9591C19.5145 39.568 19.8435 40.114 20.3475 40.4639C21.4254 41.1779 22.8813 40.8769 23.5952 39.799C23.6372 39.736 23.6722 39.673 23.7072 39.603C23.7492 39.533 23.7982 39.47 23.8472 39.407C24.0502 40.149 23.8122 40.9469 23.2382 41.4579C23.6652 42.0738 23.7702 42.8578 23.5042 43.5577C23.2382 44.3417 22.9093 45.1046 22.6083 45.8745C22.5663 45.9725 22.5523 46.0845 22.5173 46.1895C22.4823 46.2945 22.4403 46.4905 22.3773 46.4975C22.2443 46.5045 22.1183 46.4625 22.0203 46.3715C21.8384 46.1685 21.6634 45.9515 21.5024 45.7276C21.0894 45.9025 20.6414 46.2245 20.1585 45.8465C20.0465 45.7555 20.0185 45.5526 19.9205 45.3146C20.3685 45.3986 20.7254 45.5386 21.0404 45.2586C20.9284 44.9716 20.8024 44.6846 20.7184 44.3837C20.6414 44.1037 20.6974 44.0687 20.9914 44.1037C21.1314 44.1177 21.2714 44.1037 21.4114 44.1037C21.8244 44.1177 22.2373 44.1317 22.6503 44.1527C22.7063 44.1527 22.7693 44.1877 22.8253 44.1737C23.0353 44.1247 23.2382 43.4947 23.1543 43.2917C22.9233 42.7528 22.4193 42.4588 22.0343 42.0598C21.8664 41.8918 21.7124 41.7029 21.5234 41.4999C20.2635 41.7029 19.2135 41.4089 18.5836 39.75C17.6457 39.806 17.2537 39.442 17.3727 38.6861L19.0806 38.2871C19.0106 37.9651 18.8986 37.5872 18.8426 37.2022C18.6956 36.2713 18.9126 35.3123 19.4445 34.5354C19.5495 34.3044 19.6125 34.0594 19.6335 33.8074C19.7105 33.3385 20.0185 32.9395 20.4525 32.7365C20.5155 32.9535 20.5994 33.1705 20.6974 33.3805C20.8024 33.5765 20.9984 33.7305 21.0964 33.9334C21.2714 34.2834 21.2504 34.2904 21.6214 34.1644C21.7404 34.1154 21.8664 34.0804 21.9923 34.0664C22.2583 34.0524 22.2793 33.9054 22.2093 33.7095C22.1113 33.4295 22.0203 33.1425 21.9013 32.8695C21.7964 32.6595 21.8803 32.4006 22.0903 32.2956C22.0903 32.2956 22.1043 32.2956 22.1113 32.2886C22.3353 32.1626 22.4963 32.3026 22.6293 32.4985C22.9023 32.9115 23.0073 33.4155 22.9233 33.9054C23.1053 33.8984 23.2522 33.8774 23.3922 33.8844C23.8402 33.8984 24.2882 33.9264 24.7361 33.9404C25.4431 33.9894 26.15 34.0034 26.857 33.9824C27.3329 33.9054 27.8019 33.7794 28.2429 33.5975C28.3059 33.5765 28.3549 33.4015 28.3409 33.3035C28.2989 32.9675 28.2359 32.6385 28.1659 32.3096C28.1099 32.0996 28.2289 31.8826 28.4389 31.8196C28.6628 31.7286 28.8028 31.8896 28.8518 32.0926C28.9498 32.4705 29.0198 32.8625 29.1108 33.2755C29.2648 33.2335 29.4258 33.1775 29.5728 33.1145C29.6358 33.0725 29.6708 32.9955 29.6638 32.9255C29.6148 32.6175 29.8108 32.3166 30.1117 32.2396C30.3567 32.1696 30.4967 31.9176 30.4267 31.6726C30.4127 31.6166 30.3847 31.5676 30.3567 31.5256C30.2237 31.2666 30.0907 31.0147 29.9647 30.7557C29.9227 30.6787 29.9087 30.5877 29.9297 30.4967C29.9787 30.3847 30.0627 30.2937 30.1747 30.2307C30.2727 30.2237 30.3707 30.2657 30.4337 30.3427C30.7137 30.7627 30.8117 31.2806 30.7067 31.7706C30.6507 32.0016 30.4897 32.1906 30.6507 32.4286C30.9167 32.3096 31.4486 31.3996 31.3296 31.1336C31.1546 30.8257 31.0217 30.4967 30.9237 30.1537C30.7277 29.1528 29.7338 28.8308 29.0338 28.7328C28.9638 28.7328 28.8938 28.7328 28.8308 28.7328C28.7888 29.0478 28.7468 29.3348 28.7118 29.6218C28.6908 29.7898 28.7118 29.9647 28.6978 30.1397C28.6838 30.3147 28.6558 30.4757 28.4179 30.4827C28.0469 30.4967 27.6689 30.5317 27.4239 30.1677C26.878 30.6787 26.85 31.5396 27.3679 32.0856C27.3819 32.0996 27.3959 32.1206 27.4169 32.1346C27.123 32.6595 27.067 32.6665 26.08 32.1626C26.066 32.6735 25.6251 32.7575 25.3031 32.9675C25.0511 33.1355 24.7921 33.2895 24.5051 33.4715C24.5051 33.0795 24.6381 32.6945 24.8901 32.3866C25.1351 32.0506 25.5131 31.8476 25.919 31.8196C25.5761 31.7426 25.3171 31.7006 25.0721 31.6166C24.8761 31.5606 24.7571 31.3646 24.8131 31.1616C24.8131 31.1406 24.8271 31.1267 24.8341 31.1127C24.8761 30.9727 24.9181 30.9167 25.1071 30.9447C25.6531 30.9727 26.178 30.7627 26.549 30.3637C26.549 30.3357 26.535 30.3147 26.528 30.2867C26.437 30.2867 26.346 30.3007 26.255 30.3147C25.6321 30.4617 25.0161 30.6367 24.3862 30.7557C23.8962 30.8817 23.5462 31.3156 23.5182 31.8196C23.5182 31.9316 23.4062 32.0506 23.3432 32.1696C23.2312 32.1066 23.0703 32.0646 23.0213 31.9736C22.9513 31.7706 22.9023 31.5606 22.8743 31.3506C22.5943 31.4696 22.3003 31.5606 21.9993 31.6166C21.6214 31.6446 21.2784 31.8476 21.0614 32.1556C20.6344 32.6805 20.1865 32.6525 19.6335 32.1206L20.3755 31.7846C20.3755 31.7426 20.3615 31.6936 20.3545 31.6516C20.1725 31.6306 19.9905 31.6306 19.8085 31.6516C19.2835 31.7986 18.8286 32.1206 18.5136 32.5545C18.3386 32.8905 18.2616 33.2615 18.2896 33.6395C18.2756 34.3114 18.3666 34.9904 18.3316 35.6693C18.3176 36.2713 17.9956 36.8242 17.4777 37.1252C17.3307 37.1812 17.1697 37.1812 17.0227 37.1252C16.7707 37.0202 16.8267 36.7682 16.8827 36.5792C16.9387 36.4323 17.0507 36.3203 17.1907 36.2713C17.4847 36.1943 17.4987 36.4532 17.5337 36.6912C17.9886 36.2783 18.1776 35.6483 18.0166 35.0604C17.9186 34.6054 17.7647 34.1644 17.6317 33.7165C17.5337 33.4645 17.5547 33.1845 17.6877 32.9465C17.7367 32.8205 17.7367 32.6805 17.6877 32.5545C17.5687 32.2046 17.6947 31.8126 17.9956 31.5956C18.1776 31.4416 18.1496 31.3016 18.0656 31.1127C17.8277 30.4477 17.8976 29.7128 18.2616 29.1108C18.3946 28.8868 18.5346 28.6698 18.6886 28.4669C19.0806 27.9489 19.7245 27.6829 20.3685 27.7949C20.9704 27.8089 21.5794 27.7949 22.1813 27.7389C22.3563 27.7249 22.5173 27.5429 22.6923 27.4519C22.7833 27.4169 22.8743 27.3819 22.9653 27.3609C23.0003 27.4449 23.0283 27.5359 23.0423 27.6269C23.0213 28.0259 22.7833 28.3829 22.4193 28.5438C22.0973 28.7398 21.7544 28.8938 21.3904 29.0058C21.2224 29.0618 21.1944 29.1388 21.1594 29.2858C21.1104 29.8457 20.7254 30.3147 20.1935 30.4757C20.1795 30.4617 20.1585 30.4477 20.1585 30.4337C20.2215 30.0137 20.0815 29.5868 19.7875 29.2788C19.4935 28.9778 19.4165 28.5228 19.5985 28.1449C19.2485 28.1449 18.9406 28.3689 18.8496 28.7048C18.5976 29.4188 18.5556 29.8737 19.1996 30.4127C19.4235 30.5947 19.5985 30.8327 19.8225 31.0147C19.9835 31.1267 20.1515 31.2246 20.3265 31.3086L20.3825 31.2106L19.9415 30.8957V30.8047C20.0815 30.7767 20.2425 30.6857 20.3615 30.7207C20.6484 30.7977 20.9144 30.9307 21.1524 31.0987C21.3064 31.2526 21.5234 31.3296 21.7334 31.3016C22.0483 31.2456 22.3633 31.1616 22.6153 31.1057C22.5663 30.7347 22.5173 30.4267 22.4753 30.1187C23.0143 30.4477 23.6792 30.4757 24.2462 30.1957C24.9951 29.8038 25.6951 29.3208 26.325 28.7608C26.689 28.5019 27.074 28.2779 27.4729 28.0819C27.7739 27.9489 28.1309 28.0259 28.3549 28.2709C28.4459 28.3829 28.6138 28.4179 28.7398 28.3409C29.2508 28.1099 29.8178 28.0469 30.3637 28.1449C30.8887 28.2709 31.3576 28.5578 31.7076 28.9708C31.7426 29.0058 31.7706 29.0338 31.8056 29.0618C32.3936 28.4809 33.1145 28.5508 33.8704 28.6278C33.9264 28.2709 34.1434 27.9559 34.4514 27.7599C34.6054 27.6479 34.6614 27.3959 34.7594 27.2069C35.2493 27.6129 35.4383 28.2849 35.2213 28.8868C35.0814 29.2158 35.2563 29.4888 35.2913 29.7828C35.4243 30.6577 34.9274 31.4976 34.1014 31.8056C33.8494 31.8966 33.5625 31.7916 33.4295 31.5536C33.3175 31.3856 33.2755 31.1826 33.3105 30.9867C33.4015 30.7207 33.6815 30.5597 33.9544 30.6227C34.2904 30.6647 34.3254 30.9377 34.4094 31.2106C34.6614 31.1197 34.8364 30.8887 34.8644 30.6227C34.8854 30.3567 34.8504 30.0907 34.7594 29.8457C34.6054 29.5168 34.2134 29.3768 33.8844 29.5308C33.8004 29.5728 33.7235 29.6288 33.6675 29.6988C33.2755 30.1047 32.8835 30.5107 32.4776 30.9027C32.3726 31.0217 32.2326 31.1057 32.0786 31.1407C31.7706 31.1197 31.4906 31.3366 31.4556 31.6446C31.3716 31.8686 31.2666 32.0786 31.1336 32.2746C31.1057 32.3376 31.0777 32.4076 31.0497 32.4776C31.4976 32.5195 31.9456 32.5825 32.3866 32.6805C32.7645 32.7925 33.1285 32.9465 33.4715 33.1425C34.1504 33.5345 34.6124 34.2204 34.7174 35.0044C34.7594 35.0814 34.8294 35.1373 34.9204 35.1583C35.3053 35.2283 35.6903 35.0814 35.9353 34.7804C36.4393 35.6903 36.0333 36.2993 35.4173 36.8522C35.3473 36.9082 35.2983 36.9782 35.2633 37.0552C34.9344 38.2521 34.0874 39.246 32.9465 39.75C32.7715 39.841 32.5895 39.925 32.4146 40.03C32.3446 40.072 32.2886 40.142 32.2606 40.219C32.1416 40.7299 31.7636 41.1429 31.2666 41.3109C31.1826 41.3529 31.0637 41.2969 30.8887 41.2829L31.3646 40.7159C30.5947 40.8139 29.9577 41.3529 29.7338 42.0948C29.3908 43.0118 29.5308 44.4466 30.0627 44.7476C30.2587 44.2297 30.7207 44.3347 31.1336 44.2507C31.4836 44.1947 31.8126 44.0617 32.1066 43.8587C32.5405 43.5227 32.5125 43.3337 32.1906 42.8718C31.8966 42.8508 31.6376 42.8368 31.3856 42.8018C31.3156 42.7668 31.2736 42.6968 31.2666 42.6128C31.3576 42.3258 31.6726 42.1648 31.9596 42.2628C32.4776 42.5428 32.7435 43.1307 32.6105 43.7047C32.5545 44.2647 32.1836 44.7476 31.6586 44.9506C31.6026 44.9716 31.5606 45.0766 31.5466 45.1536C31.4206 45.8885 30.8887 46.4905 30.1677 46.7075C30.2167 46.5675 30.2797 46.4415 30.3567 46.3155C30.5247 46.1055 30.5037 46.0075 30.3147 45.8185C30.1747 45.6576 30.0627 45.4826 29.9717 45.2866C29.9157 45.1256 29.8457 44.9646 29.7688 44.8176C29.3768 44.3557 29.2228 43.7397 29.3488 43.1447C29.3838 42.7878 29.4538 42.4448 29.5588 42.1018C29.7618 41.6469 29.9927 41.1989 30.2447 40.7649L29.9927 40.7299L30.0347 40.7999C29.9087 40.8979 29.7828 41.0029 29.6498 41.0939C29.2998 41.3319 28.9498 41.5699 28.5928 41.7938C28.4948 41.8428 28.3899 41.8848 28.2849 41.9128C28.1099 41.4929 28.3059 41.0029 28.7258 40.8279C28.8658 40.7719 29.0268 40.7509 29.1738 40.7719C29.3838 40.7579 29.6008 40.7719 29.8317 40.7719C29.5308 40.5619 29.2368 40.331 28.9638 40.079C28.7258 39.806 28.5019 39.526 28.2989 39.225C27.9699 39.673 27.5919 39.4 27.2209 39.225C26.871 39.0571 26.521 38.8891 26.185 38.7001C26.087 38.6371 26.031 38.5321 26.024 38.4201C26.122 37.8671 26.612 37.4752 27.1719 37.5032C27.3679 37.5312 27.4449 37.4822 27.5009 37.2582C27.6059 36.7542 27.9139 36.3203 28.3549 36.0473C28.9568 35.6973 29.6148 35.4523 30.3007 35.3193C30.3777 35.3053 30.4477 35.2703 30.5107 35.2213C30.7907 35.0184 31.0707 34.8154 31.3366 34.5984C31.5606 34.4164 31.7636 34.2204 31.9736 34.0244C32.0436 33.9614 32.1066 33.8844 32.1976 33.7864C32.3306 34.0594 32.4566 34.2904 32.5615 34.5354C32.6525 34.8644 32.6105 35.2143 32.4356 35.5013C32.3796 35.6273 32.3656 35.7673 32.3936 35.9003C32.6315 36.9222 32.1906 37.9791 31.3016 38.5321C31.0637 38.7071 30.7417 38.7281 30.4827 38.5741C30.2447 38.4411 30.1257 38.1681 30.1957 37.9091C30.2937 37.7132 30.4337 37.5382 30.6087 37.4122C30.7277 37.4612 30.8257 37.5452 30.8957 37.6502C30.9377 37.8321 30.9587 38.0211 30.9587 38.2031C31.7566 37.8601 32.2256 37.2162 31.5326 36.4043C31.2176 36.0683 30.8117 35.8443 30.3567 35.7533C30.1327 35.7043 29.8947 35.7533 29.7058 35.8793C29.2858 36.1733 28.9078 36.5302 28.5858 36.9292C28.1379 37.7761 28.2359 38.8121 28.8378 39.561C29.2438 40.1 29.8947 40.408 30.5737 40.38C30.7067 40.366 30.8397 40.345 30.9657 40.31C30.9657 40.282 30.9657 40.254 30.9657 40.233C30.8887 40.233 30.8117 40.212 30.7417 40.184C30.6717 40.142 30.5737 40.079 30.5667 40.009C30.5737 39.925 30.6227 39.848 30.6927 39.799C30.9797 39.568 31.3646 39.505 31.7146 39.631C32.0716 39.778 32.4846 39.694 32.7645 39.428C33.4365 38.9941 33.9054 38.3081 34.0594 37.5312C34.0804 37.0972 34.0804 36.6632 34.0524 36.2293C34.0524 35.9983 34.0944 35.7743 34.1714 35.5643C34.4304 35.0464 34.2904 34.4164 33.8284 34.0664C33.6745 33.9334 33.5345 33.7724 33.3805 33.6325C32.8485 33.1775 32.1766 32.9115 31.4766 32.8695C31.1966 32.8695 30.9237 32.9045 30.6507 32.9605V33.0585H30.6647L30.7137 33.1005ZM22.5523 35.5713C23.1613 35.8513 23.4202 36.2993 23.1683 36.7542C23.0213 36.4672 22.8533 36.6072 22.7063 36.7262C22.5593 36.8662 22.4193 37.0132 22.2933 37.1742C22.1673 37.3072 22.0483 37.5242 21.9013 37.5522C21.6004 37.6082 21.6424 37.7551 21.7194 37.9301C21.9153 38.4061 22.4543 38.6371 22.9303 38.4411C22.9653 38.4271 23.0003 38.4131 23.0353 38.3921C23.2522 38.2381 23.4622 38.0771 23.6582 37.8951C24.1202 37.4192 24.4282 37.4122 24.8481 37.8951C25.3661 37.4822 25.4501 36.7192 25.0301 36.2013C25.0091 36.1733 24.9811 36.1453 24.9601 36.1243C24.6451 35.9003 24.3792 35.6063 24.0502 35.4033C23.6022 35.1234 23.3572 34.7874 23.5602 34.2554C23.2032 34.0874 22.8673 34.1644 22.8183 34.4094C22.7343 34.7944 22.6433 35.1793 22.5593 35.5713H22.5523ZM35.4313 37.6432C35.5153 38.0841 35.4313 38.5461 35.2003 38.9311C35.0954 39.176 34.9764 39.414 34.8714 39.659C34.7874 39.855 34.7594 40.093 34.9624 40.191C35.0534 40.233 35.2843 40.1 35.3963 39.995C35.9633 39.267 36.0193 38.2591 35.5363 37.4752C35.5363 37.4612 35.5013 37.4682 35.4593 37.4542C35.4523 37.5172 35.4173 37.5872 35.4313 37.6432ZM23.3362 29.8177C23.7352 29.7898 24.0782 29.5308 24.2182 29.1598C24.2532 29.0688 24.2672 28.9148 24.2182 28.8658C24.1272 28.8098 24.0152 28.7958 23.9172 28.8378C23.6792 28.9288 23.4412 29.0338 23.2172 29.1528C22.9093 29.3348 22.5383 29.3908 22.1953 29.2998C21.9643 29.2578 21.7264 29.2368 21.4884 29.2438C21.9853 29.7128 22.6713 29.9297 23.3432 29.8247L23.3362 29.8177ZM34.6824 33.1145C34.9554 33.4225 35.1863 33.7725 35.4733 34.0734C35.5713 34.1994 35.7463 34.2204 35.8723 34.1224C35.9003 34.1014 35.9213 34.0804 35.9353 34.0524C36.0543 33.8704 36.0053 33.6185 35.8163 33.4995C35.8163 33.4995 35.8163 33.4995 35.8093 33.4995C35.3263 33.1985 34.9274 32.7785 34.6544 32.2886C34.5354 32.6175 34.4584 32.8695 34.6824 33.1215V33.1145ZM21.9923 39.687C21.9433 39.54 21.8734 39.4 21.7754 39.281C21.4394 39.0081 20.9914 38.9101 20.5714 39.0291C20.4595 39.0501 20.3895 39.274 20.2985 39.407C20.4105 39.491 20.5295 39.561 20.6554 39.617C20.7464 39.638 20.8374 39.624 20.9144 39.582C21.2364 39.379 21.6564 39.456 21.8873 39.75L21.9853 39.687H21.9923ZM32.7295 45.6016C33.1495 45.8185 33.6535 45.7905 34.0384 45.5246C34.1224 45.3706 34.1784 45.1956 34.2064 45.0206C34.0454 45.0486 33.8774 45.0696 33.7165 45.0976C33.6955 45.0976 33.6815 45.1186 33.6675 45.1326C33.3595 45.3916 32.9325 45.4616 32.5615 45.3076C32.6035 45.4126 32.6595 45.5106 32.7295 45.6016ZM21.3554 42.4308C21.3624 42.3958 21.2014 42.2558 21.1314 42.2628C20.9144 42.2838 20.7394 42.8158 20.8864 42.9698C21.0474 43.1657 21.2364 43.3407 21.4394 43.5017C21.6494 43.6417 21.8734 43.8587 22.1883 43.6907C21.6634 43.4177 21.1664 43.1517 21.3554 42.4308ZM25.2751 41.1709C25.2961 41.0729 25.2961 40.9749 25.2821 40.8839C25.1771 40.8909 25.0441 40.8699 24.9811 40.9259C24.7151 41.2269 24.3232 41.3879 23.9242 41.3529C23.8892 41.3529 23.8122 41.4159 23.8122 41.4439C23.8192 41.4999 23.8542 41.5419 23.9032 41.5629C24.0782 41.6049 24.2532 41.6259 24.4422 41.6539C24.7781 41.5979 25.1351 41.5629 25.2821 41.1709H25.2751ZM24.5121 28.0259C24.5121 28.2639 24.6941 28.2989 24.8551 28.3059C25.0371 28.3269 25.2051 28.1939 25.2261 28.0119C25.2261 27.9979 25.2261 27.9839 25.2261 27.9629C25.2471 27.7949 25.1211 27.6409 24.9531 27.6199C24.9391 27.6199 24.9251 27.6199 24.9181 27.6199C24.6941 27.6199 24.5121 27.8019 24.5121 28.0189V28.0259ZM29.2578 34.5354C29.0968 34.5844 28.9638 34.6894 28.8798 34.8294C28.8448 34.8994 28.9778 35.1303 29.0828 35.1723C29.2298 35.2353 29.4958 34.9834 29.5588 34.7454C29.4538 34.6684 29.3278 34.5144 29.2578 34.5354ZM29.1178 37.8321C29.1178 37.9721 29.1668 38.2101 29.4188 38.1891C29.5868 38.1961 29.7338 38.0631 29.7408 37.8951C29.7408 37.8671 29.7408 37.8391 29.7338 37.8111C29.7198 37.6992 29.6008 37.6012 29.4748 37.4192C29.2998 37.6082 29.1108 37.7132 29.1108 37.8251L29.1178 37.8321ZM28.8098 31.0567C28.8098 31.1616 28.9918 31.2666 29.0898 31.3786C29.2158 31.2456 29.3278 31.0987 29.4188 30.9377C29.4328 30.9097 29.2508 30.7767 29.0898 30.6367C28.9638 30.8117 28.8028 30.9377 28.8098 31.0567ZM32.8835 27.7319C32.7785 27.6899 32.6525 27.5849 32.5685 27.6129C32.4076 27.6829 32.2606 27.7739 32.1276 27.8789C32.2396 27.9769 32.3796 28.1659 32.4706 28.1449C32.6315 28.1099 32.7575 27.9489 32.8975 27.8369L32.8835 27.7319ZM16.7637 34.8014C16.7217 34.9554 16.7987 35.1513 16.9737 35.1024C17.1067 35.0674 17.2327 34.8924 17.3027 34.7524C17.3237 34.7104 17.1627 34.5704 17.0227 34.4024C16.9177 34.5214 16.8337 34.6544 16.7637 34.8014ZM33.5135 34.9484C33.3455 34.9274 33.1075 35.1653 33.1495 35.3263C33.1635 35.3893 33.3035 35.4873 33.3455 35.4663C33.5135 35.3753 33.6745 35.2703 33.8214 35.1583C33.6675 35.0534 33.5975 34.9624 33.5135 34.9484ZM33.8144 40.8909C33.8284 40.7719 33.7864 40.6529 33.6955 40.5759C33.3875 40.4849 33.3665 40.7649 33.2685 40.9679C33.4855 41.0869 33.6885 41.1289 33.8074 40.8979L33.8144 40.8909ZM21.6354 22.2583C21.8244 22.7273 21.8174 22.8883 21.3694 23.1333C20.6554 23.5182 19.8995 23.8262 19.1646 24.1622C18.7166 24.3652 18.2616 24.5681 17.8137 24.7851C17.7297 24.8271 17.6807 24.9461 17.6177 25.0231C17.7297 25.0721 17.7787 25.0721 17.7997 25.0511C17.9676 24.9041 18.0656 24.9671 18.2476 25.0791C18.7236 25.4221 19.2485 25.6881 19.8085 25.856C20.7254 26.066 21.6774 26.059 22.5873 25.8351C23.2452 25.6671 23.8612 25.3661 24.4002 24.9531C24.7781 24.5471 24.9531 23.9872 24.8691 23.4412C24.8621 23.3642 24.8691 23.2872 24.9041 23.2172C25.0091 23.0703 25.1351 22.9373 25.2611 22.7833C25.3731 23.0353 25.4781 23.3012 25.6181 23.5462C25.7931 23.8962 26.22 24.0432 26.577 23.8682C26.661 23.8262 26.738 23.7702 26.801 23.6932C26.871 23.6232 26.941 23.5602 26.969 23.5322L27.6479 23.8822C27.6269 24.1202 27.5989 24.3862 27.5919 24.6521C27.5429 25.0441 27.8299 25.4011 28.2219 25.4501C28.3549 25.4641 28.4879 25.4501 28.6068 25.3871C29.0408 25.1631 29.4538 24.9181 29.8737 24.6661C30.1467 24.4982 30.3427 24.2182 30.4127 23.9032C30.4267 23.8192 30.4687 23.7352 30.5317 23.6792C31.1336 23.2732 31.1407 23.2802 31.8266 23.6372C31.8336 23.6372 31.8476 23.6372 31.8546 23.6372C32.0926 23.3572 32.0576 22.9443 31.7846 22.7063C31.7216 22.6503 31.6516 22.6153 31.5746 22.5873C31.4976 22.5383 31.4416 22.4613 31.4206 22.3703C31.3296 21.9433 31.2666 21.5094 31.1826 21.0824C31.1476 20.9074 31.1406 20.7814 31.3436 20.7114C31.4416 20.6554 31.5326 20.5854 31.6026 20.5015C31.4416 20.4455 31.2526 20.4315 31.1966 20.3335C31.1406 20.2355 31.2176 20.0675 31.2526 19.9345C31.2876 19.7875 31.3366 19.6405 31.3716 19.5005C30.9587 19.9415 30.7907 20.5504 30.9237 21.1384C31.0077 21.5864 31.1057 22.0343 31.1896 22.4823C31.2386 22.7553 31.0987 22.9303 30.7697 23.0423C30.6017 23.1333 30.3847 23.0633 30.3007 22.8953C30.2867 22.8743 30.2797 22.8463 30.2727 22.8253C30.2027 22.6713 30.1187 22.5243 30.0277 22.3843C29.8807 22.1533 29.7408 22.1463 29.5448 22.3423C29.2858 22.6013 29.1948 22.9933 29.3208 23.3362C29.3978 23.4902 29.5308 23.6022 29.6918 23.6582C29.8667 23.7142 30.0487 23.7422 30.2377 23.7492C29.7968 24.2812 29.1948 24.6591 28.5228 24.8271C28.0119 24.8551 27.8019 24.6591 27.8159 24.1482C27.8159 24.0292 27.8439 23.9102 27.8719 23.7982C27.8859 23.4902 28.1449 23.2592 28.4529 23.2732C28.5508 23.2732 28.6488 23.3082 28.7328 23.3642C28.7468 23.3642 28.7748 23.3642 28.7888 23.3642C29.0828 22.9023 28.9918 22.2933 28.5858 21.9293C28.5088 21.8314 28.3549 21.7054 28.2639 21.7264C28.1729 21.7474 28.0749 21.9153 28.0329 22.0343C27.9489 22.3143 27.8999 22.6083 27.8369 22.8953C27.7739 23.1822 27.5709 23.2662 27.3679 23.0773C27.137 22.8603 26.99 22.9303 26.801 23.1333C26.556 23.3992 26.143 23.4202 25.877 23.1753C25.8351 23.1333 25.8001 23.0913 25.7651 23.0423C25.6601 22.8743 25.5761 22.6923 25.4991 22.5103C25.4151 22.3143 25.3311 22.1183 25.2471 21.9083C25.1211 22.1603 25.0651 22.4473 24.8901 22.5733C24.6101 22.7833 24.4911 22.3633 24.2672 22.2723C24.1552 22.6643 24.1902 22.8043 24.4702 23.2592C24.7641 23.5602 24.7571 24.0502 24.4492 24.3372C24.4072 24.3722 24.3652 24.4072 24.3162 24.4352C23.5532 25.0511 22.6013 25.3941 21.6214 25.4081C20.9984 25.4431 20.3685 25.4221 19.7455 25.3451C19.2275 25.2471 18.7166 25.1141 18.2126 24.9461V24.8061C18.4436 24.7081 18.6816 24.6311 18.9196 24.5751C19.5285 24.5541 20.1305 24.4002 20.6764 24.1272C20.8654 24.0222 21.0614 23.9312 21.2644 23.8542C21.2994 24.0362 21.3204 24.1832 21.3624 24.3232C21.5094 24.8131 21.8314 25.0651 22.2373 24.8971C23.0983 24.6521 23.7562 23.9452 23.9242 23.0633C24.0362 22.5593 23.7912 22.0413 23.3292 21.8104C23.2033 21.7684 23.0703 21.7894 22.9653 21.8664C22.6923 22.1463 22.6083 22.5523 22.7553 22.9163C22.8253 23.0423 22.9373 23.1333 23.0773 23.1683C23.3712 23.2592 23.5042 23.0353 23.6582 22.8113C23.7002 22.9443 23.6932 23.0913 23.6372 23.2242C23.3012 23.7422 22.7903 24.1342 22.1953 24.3162C22.0973 24.3442 21.9993 24.3442 21.9013 24.3162C21.5724 24.2602 21.3554 23.7492 21.5654 23.5252C22.0273 23.1263 22.1883 22.4753 21.9783 21.9013L22.2233 21.6984C21.9993 21.7194 21.8244 21.5794 21.7124 21.2784C21.5024 21.5514 21.4674 21.9223 21.6214 22.2373V22.2233L21.6354 22.2583ZM27.6829 13.887C27.7739 14.3839 27.8439 14.8319 27.9419 15.2728C27.9839 15.5178 28.0609 15.7488 28.1799 15.9658C28.2499 16.0778 28.4669 16.0918 28.6138 16.1478C28.6558 16.0358 28.6978 15.9238 28.7328 15.8118C28.8378 15.3498 28.9778 14.9019 29.1388 14.4539C29.2368 14.1739 29.5448 14.0269 29.8247 14.1249C29.8737 14.1389 29.9227 14.1669 29.9647 14.1949C30.3077 14.3629 30.6437 14.5449 30.9867 14.7199C31.0007 14.7269 31.0217 14.7409 31.0357 14.7549C31.1826 14.9229 30.9377 15.6648 30.7277 15.7068C30.0767 15.9028 29.5098 16.3158 29.1248 16.8757C29.0478 16.9667 29.0688 17.1487 29.0548 17.2397C28.8588 17.2117 28.6628 17.1557 28.4809 17.0717C28.2709 16.9527 28.0889 16.7777 27.9699 16.5677C27.8579 16.2318 27.7739 15.8818 27.7179 15.5318C27.6899 15.4198 27.6619 15.3078 27.6339 15.1959H27.5499C27.5429 15.3148 27.5289 15.4338 27.5219 15.5458C27.5429 16.2738 27.2419 16.9737 26.703 17.4637C26.437 17.6667 26.136 17.8207 25.8141 17.9186C25.2891 18.1006 24.7501 18.2336 24.2182 18.3876C24.0712 18.4296 23.9172 18.4576 23.7632 18.4996L23.7282 18.4226C23.8122 18.3736 23.9032 18.3316 23.9872 18.2896C24.6591 17.9256 25.3591 17.5967 26.003 17.1907C26.927 16.6587 27.4589 15.6368 27.3609 14.5729C27.2909 14.2929 27.4309 13.9989 27.6899 13.873L27.6829 13.887ZM29.1598 15.7768L29.8597 15.1399C29.2998 15.0489 29.1388 15.1959 29.1598 15.7768ZM25.975 13.369C25.912 13.558 25.8351 13.747 25.7861 13.9359C25.6741 14.3979 25.5901 14.8669 25.4711 15.3218C25.3871 15.6508 25.1911 15.7628 24.8901 15.6578C24.7431 15.5808 24.6241 15.4618 24.5471 15.3148C24.3442 15.0209 24.1272 14.9789 23.8962 15.2519C23.7422 15.4338 23.6232 15.6368 23.5392 15.8608C23.4342 16.1898 23.3432 16.5258 23.2802 16.8687C23.2592 17.0577 23.0983 17.1977 22.9093 17.1907C22.7693 17.1907 22.6293 17.1207 22.5383 17.0157C22.3213 16.7777 22.2373 16.4418 22.3213 16.1268C22.4473 15.5248 22.7763 14.9859 23.2592 14.6079C23.4972 14.4119 23.6932 14.1599 23.8262 13.887C23.8402 13.866 23.8682 13.852 23.9172 13.81L24.4282 14.2369C24.9461 13.474 24.8901 13.334 24.1692 12.893C24.0572 13.103 23.9452 13.313 23.8262 13.544L23.2242 13.026C23.1053 13.257 23.0213 13.509 22.9723 13.768C22.9723 13.9429 23.1333 14.1179 23.2382 14.3279C23.1893 14.3699 23.1123 14.4399 23.0213 14.5029C22.0553 15.3148 21.8104 16.7007 22.4333 17.7997C22.5313 18.0376 22.7763 18.1846 23.0353 18.1566C23.3432 18.1006 23.4342 17.8627 23.4902 17.5967C23.5462 17.2257 23.6372 16.8617 23.7562 16.5048C24.0082 15.9168 24.1832 15.9098 24.5681 16.3928C24.7151 16.6517 25.0441 16.7357 25.3031 16.5887C25.4291 16.5188 25.5201 16.3998 25.5551 16.2598C25.6601 16.0358 25.7301 15.7908 25.7721 15.5458C25.7721 15.1959 26.052 14.9159 26.402 14.9159C26.479 14.9159 26.549 14.9299 26.619 14.9579C26.955 15.0279 27.011 14.8599 27.046 14.6079C27.046 14.5379 27.06 14.4679 27.074 14.4049C27.144 14.1669 27.095 14.0409 26.829 13.9779C26.5 13.901 26.157 13.81 26.094 13.383H25.989L25.975 13.369ZM18.6466 21.8174C18.5556 22.1603 18.5346 22.4333 18.8216 22.6643C18.8916 22.7623 18.8986 22.8883 18.8566 23.0003C18.5906 23.4762 18.1636 23.8332 17.6457 24.0082C17.3797 24.1062 17.2677 23.9662 17.1977 23.7562C17.1347 23.5812 17.2257 23.3852 17.4007 23.3222C17.4217 23.3222 17.4357 23.3082 17.4567 23.3082C17.5967 23.2662 17.7087 23.1753 17.7857 23.0493C17.8906 22.8253 17.9606 22.5873 17.9816 22.3353C18.0166 22.0483 17.9046 21.7544 17.6877 21.5654C17.5407 21.8174 17.5547 22.1253 17.7157 22.3703C17.8347 22.5383 17.7507 22.6993 17.5757 22.6923C17.3517 22.6923 17.1417 22.6293 16.9457 22.5173C16.5118 22.2583 16.3298 22.2653 16.0848 22.7133C15.9518 22.9933 15.8468 23.2802 15.7698 23.5742C15.6928 23.8122 15.5318 23.8752 15.3778 23.7282C15.1399 23.4482 15.1749 23.0283 15.4478 22.7833C15.6718 22.5733 15.7838 22.2723 15.7418 21.9713L15.4128 22.2583C15.3218 22.0973 15.2518 21.9223 15.2169 21.7404C15.2309 21.4814 15.2658 21.2294 15.3358 20.9774C15.3918 20.6694 15.4548 20.3615 15.5108 20.0535L15.3848 20.0255C15.3358 20.2705 15.2798 20.5155 15.2029 20.7604C14.8389 21.7264 15.1329 22.7203 15.0769 23.7002C15.0839 23.8682 15.1399 24.0362 15.2309 24.1762C15.2868 24.2742 15.4128 24.3932 15.5108 24.3862C15.6298 24.3582 15.7278 24.2742 15.7768 24.1552C15.8678 23.9452 15.9028 23.7142 15.9728 23.4972C16.1548 22.9233 16.4208 22.8253 16.9107 23.1613C16.9807 23.2102 17.0507 23.2662 17.0857 23.2872C17.0507 23.5252 17.0437 23.7632 17.0577 24.0012C17.0927 24.2042 17.1627 24.4772 17.3097 24.5541C17.5127 24.6101 17.7297 24.5821 17.9116 24.4702C18.5906 24.1272 19.0526 23.4762 19.1506 22.7273C19.6615 22.6433 19.9345 22.1883 19.8225 21.5514C19.5705 22.3283 19.1016 22.0693 18.6536 21.8034L18.6466 21.8174ZM36.4533 22.6083C36.3763 22.4683 36.2923 22.3353 36.2013 22.2023C36.1313 22.1043 36.0263 22.0413 35.9073 22.0203C35.8443 22.0203 35.7533 22.1813 35.7253 22.2863C35.6623 22.5243 35.6483 22.7763 35.5853 23.0143C35.5013 23.3432 35.2843 23.4272 34.9764 23.2732C34.8994 23.2312 34.8224 23.1753 34.7524 23.1263C34.4934 22.9303 34.1364 22.9023 33.8564 23.0703C33.4645 23.3222 33.1425 23.6862 32.9465 24.1132C32.8485 24.3092 32.7295 24.4912 32.5965 24.6661C32.4146 24.8831 32.1556 24.8201 32.1276 24.5401C32.1276 24.3372 32.1556 24.1342 32.2186 23.9382C32.2536 23.8332 32.2886 23.7352 32.3446 23.6442C32.2606 23.6442 32.2256 23.6652 32.2046 23.6932C31.9666 24.0992 31.9036 24.5891 32.0366 25.0441C32.0856 25.2191 32.2676 25.3171 32.4426 25.2681C32.4985 25.2541 32.5545 25.2191 32.5965 25.1701C32.7085 25.0441 32.8135 24.9111 32.8975 24.7641C33.0375 24.5471 33.1565 24.3162 33.3035 24.1062C33.5275 23.6302 34.0944 23.4272 34.5704 23.6442C34.6614 23.6862 34.7454 23.7422 34.8224 23.8122C35.1443 24.0152 35.4663 23.9452 35.5783 23.6022C35.6203 23.4202 35.8023 23.3012 35.9843 23.3432C35.9913 23.3432 35.9983 23.3432 36.0123 23.3432C36.1663 23.3712 36.3203 23.4132 36.4672 23.4622C36.6492 23.2032 36.6492 22.8603 36.4672 22.6013L36.4533 22.6083ZM20.3055 20.7814L21.0194 20.2425L20.9634 20.1655C20.8654 20.2075 20.7744 20.2635 20.6764 20.2985C20.3475 20.4245 20.1585 20.2985 20.1515 19.9555C20.1515 19.8225 20.1375 19.6965 20.1305 19.5075C19.9205 19.9065 19.8575 20.3685 19.9625 20.8094C20.1095 21.6424 20.5574 22.4193 20.4455 23.3012C20.8654 22.4193 20.5295 21.5724 20.3055 20.7814ZM36.5302 20.6064C36.6632 21.2504 36.8172 21.8803 36.9502 22.5243C37.0272 22.9023 37.0832 23.2802 37.1462 23.6652C37.4542 22.5943 36.9362 21.6144 36.8172 20.6064L37.6642 20.3685C37.3842 20.3475 37.1112 20.3055 36.8452 20.2285C36.5302 20.0745 36.7822 19.7245 36.6772 19.4655C36.5162 19.8225 36.4672 20.2215 36.5302 20.6064ZM32.6665 22.6083C32.6035 22.2653 32.5195 21.9293 32.4636 21.5864C32.4146 21.3064 32.3936 21.0264 32.3516 20.7394C32.6665 20.7744 32.9325 20.8444 33.1705 20.5854C33.0865 20.5714 33.0375 20.5574 32.9885 20.5504C32.4356 20.4875 32.3586 20.3545 32.5615 19.8505C32.5965 19.7385 32.6245 19.6195 32.6455 19.5005L32.5405 19.4725C32.4846 19.5705 32.4356 19.6755 32.3936 19.7805C32.2816 20.0955 32.2116 20.4315 32.1906 20.7674C32.2046 21.3764 32.3026 21.9853 32.3726 22.5943C32.4216 23.0213 32.4706 23.4482 32.5195 23.8752C32.6805 23.4762 32.7365 23.0353 32.6735 22.6083H32.6665ZM29.0338 20.0885C28.7608 20.1865 28.4739 20.2495 28.1869 20.2845C28.1379 20.2845 28.0679 20.0395 28.0049 19.9135C27.7809 20.1375 27.7179 20.4735 27.8579 20.7604C27.9209 20.8374 28.0049 20.8864 28.1029 20.9074C28.6068 21.0194 29.5028 20.4805 29.3908 19.7805C29.2508 19.9065 29.1598 20.0465 29.0338 20.0885ZM24.8061 19.5985L22.3703 20.8654C23.8192 20.7884 24.8271 20.2005 24.8061 19.5915V19.5985ZM33.5555 21.1524C33.4645 21.3134 33.3805 21.4814 33.3105 21.6564C33.1915 21.9853 33.3035 22.1813 33.6465 22.1673C33.9474 22.1323 34.2414 22.0553 34.5214 21.9363C34.7734 21.8314 34.9554 21.6074 35.0254 21.3484C34.7384 21.4814 34.4374 21.5934 34.1294 21.6774C33.6395 21.7894 33.5065 21.6424 33.6325 21.1944L33.5555 21.1524ZM28.8658 13.775C28.9988 13.782 29.3068 13.334 29.3208 13.103C29.3278 12.956 28.9428 12.62 28.7398 12.711C28.5298 12.809 28.4039 13.11 28.2429 13.32C28.3549 13.565 28.5858 13.74 28.8588 13.775H28.8658ZM26.353 19.9625C26.003 19.8225 25.6041 19.9905 25.4641 20.3405C25.4501 20.3825 25.4361 20.4245 25.4291 20.4735H26.136C26.136 20.4735 26.15 20.5294 26.157 20.5644C26.066 20.6274 25.968 20.6904 25.877 20.7604C25.7861 20.8304 25.7021 20.8864 25.6181 20.9494C26.185 20.8584 26.668 20.4875 26.913 19.9695C26.731 19.9835 26.549 19.9835 26.36 19.9695L26.353 19.9625ZM25.4011 25.4501L25.7651 25.0581L26.108 25.3101C26.437 24.8271 26.388 24.6661 25.891 24.4842L25.7091 24.9181L25.1841 24.5541C24.9741 25.1421 24.9881 25.1771 25.4011 25.4431V25.4501ZM34.8924 24.4982C34.7104 24.9181 34.7174 24.9111 34.2974 24.7501C34.2064 24.7291 34.1154 24.7641 34.0524 24.8341C33.8564 25.1491 33.8914 25.2261 34.3394 25.4501C34.5844 25.1281 34.8294 25.0581 35.0884 25.2401C35.4523 24.8761 35.4313 24.7361 34.9624 24.4142C34.9344 24.4422 34.9134 24.4702 34.8924 24.4982ZM17.5197 20.2215C17.3237 20.2355 17.1487 20.2635 16.9737 20.2565C16.4768 20.2425 16.3788 20.3055 16.1968 20.8164H16.7987V20.8724L16.2038 21.2224C16.8057 21.2014 17.3307 20.8024 17.5127 20.2215H17.5197ZM16.7987 24.8131C16.5048 25.3521 16.5188 25.2821 16.0078 24.9671C15.7348 25.5201 15.6578 25.5341 16.2108 25.7581C16.4418 25.4431 16.6727 25.4081 16.9037 25.6391C17.2537 25.3451 17.2817 25.0161 16.7987 24.8131ZM34.4024 20.2635L33.8074 20.6274C34.3744 20.5854 34.8714 20.2495 35.1233 19.7455C34.9204 19.7385 34.7104 19.7385 34.5004 19.7105C34.1574 19.6615 34.0244 19.7525 33.9474 20.1025L34.3954 20.1865V20.2635H34.4024ZM30.4827 21.2994C30.4827 21.2994 30.4617 21.2434 30.4547 21.2154L30.0277 21.2714C30.0487 21.1034 30.0627 20.9634 30.0767 20.8234C29.9017 20.8374 29.7268 20.8724 29.5518 20.9214C29.4678 20.9564 29.3978 21.0754 29.3558 21.1734C29.3348 21.2434 29.3418 21.3134 29.3628 21.3834C29.3838 21.4884 29.4258 21.5864 29.4608 21.6984L30.4827 21.3064V21.2994ZM36.0333 19.9205C35.9143 19.7385 35.7323 19.8575 35.5783 19.9205C35.5503 19.9345 35.5223 19.9485 35.5013 19.9695C35.3333 20.1165 35.2703 20.4455 35.3963 20.5225C35.4803 20.5854 35.5573 20.6554 35.6343 20.7254L36.3623 20.2915C36.3623 20.2915 36.3343 20.2355 36.3203 20.2075L35.9493 20.3055C35.9913 20.1375 36.0893 19.9765 36.0403 19.9065L36.0333 19.9205ZM30.0767 25.3311C30.4547 25.2541 30.8327 25.1981 31.2036 25.1001C31.4906 25.0091 31.7006 24.7641 31.7426 24.4702L30.0277 25.2121L30.0767 25.3311ZM36.2923 25.2961C36.2923 25.0651 36.2503 24.8341 36.1873 24.6171C36.0753 24.3512 36.2153 24.3302 36.3973 24.2952C36.4672 24.2812 36.5302 24.2602 36.5932 24.2392C36.5302 24.0992 36.4463 23.9662 36.3483 23.8402C36.3273 23.8122 36.1103 23.8962 36.0613 23.9802C35.7743 24.4562 36.0613 24.8761 36.1943 25.3101L36.2923 25.2961ZM18.8356 20.2845C18.5976 20.4315 18.5416 20.6484 18.6606 20.9774C18.8146 20.9494 18.9686 20.9284 19.1156 20.8934C19.2485 20.8654 19.3745 20.8234 19.5075 20.7814L19.4795 20.6974L18.8496 20.5854L18.8636 20.4595H19.3675C19.1856 20.1585 19.0736 20.1375 18.8356 20.2845ZM21.7964 20.9704C21.8943 20.7954 21.9643 20.6064 21.9993 20.4105C21.9993 20.3265 21.7264 20.1585 21.6004 20.1795C21.4534 20.2495 21.3484 20.3895 21.3344 20.5504C21.3554 20.7044 21.5304 20.8444 21.6354 20.9914L21.7894 20.9704H21.7964ZM23.8612 21.1034C23.7772 21.2574 23.6162 21.4184 23.6372 21.5654C23.6512 21.6914 23.8682 21.7894 23.9942 21.9013L24.3862 21.4324L23.8682 21.1034H23.8612ZM26.493 21.2364C26.227 21.7334 26.262 21.8454 26.745 21.9573C27.011 21.4464 26.976 21.3484 26.493 21.2364ZM20.1515 22.8393L19.1786 23.5812L19.2485 23.6722C19.6545 23.5462 19.9975 23.2732 20.2005 22.9023L20.1445 22.8323L20.1515 22.8393ZM3.9407 31.4836C4.0177 31.5116 4.16469 31.5046 4.19968 31.4556C4.36067 31.2456 4.48666 31.0147 4.62665 30.7907C4.40267 30.6717 4.18568 30.5457 3.9687 30.4267C3.9407 30.4127 3.90571 30.3917 3.88471 30.3987C3.80071 30.4267 3.66072 30.4407 3.63973 30.4967C3.42974 31.0427 3.08677 31.1267 2.5968 30.8397C2.49181 30.8117 2.37982 30.8397 2.30283 30.9097C1.90386 31.6166 1.81286 31.4976 2.55481 31.8336C2.5898 31.8476 2.6318 31.8756 2.6668 31.8686C2.76479 31.8406 2.89078 31.8266 2.94678 31.7566C3.07977 31.5816 3.20576 31.3996 3.31775 31.2106C3.55573 31.3156 3.74472 31.4136 3.9407 31.4766V31.4836ZM2.21183 28.3409C1.99485 27.9069 1.80586 27.4589 1.56788 27.032C1.3859 26.696 1.07092 26.444 0.699947 26.332C0.93093 26.801 1.11292 27.2139 1.3299 27.6129C1.60988 28.1379 1.88986 28.6628 2.20483 29.1668C2.35882 29.4118 2.54081 29.6918 2.89778 29.7058C2.6598 29.2368 2.43582 28.7888 2.21183 28.3339V28.3409ZM3.55573 28.6768C3.66072 28.6978 3.82871 28.3689 3.9617 28.2009C3.9757 28.1869 3.9827 28.1659 3.9967 28.1519C4.15069 27.9699 4.08069 27.8229 3.9127 27.7039C3.80071 27.6339 3.68872 27.5779 3.56973 27.5289C3.40874 27.4239 3.19176 27.4659 3.08677 27.6269C3.07277 27.6479 3.05877 27.6689 3.05177 27.6969C2.96078 27.8719 2.84179 28.0329 2.6878 28.2779C2.96078 28.4459 3.24775 28.5788 3.55573 28.6768ZM4.38167 27.2769C4.38167 27.2769 4.23468 27.3889 4.13669 27.4659C4.24868 27.5359 4.36767 27.5919 4.49366 27.6339C4.59165 27.6619 4.77364 27.6549 4.79464 27.6129C4.83664 27.4939 4.84363 27.3539 4.80864 27.2349C4.74564 27.081 4.66865 26.941 4.57765 26.801C4.45166 26.507 4.12269 26.374 3.82871 26.493C3.84971 26.654 4.30468 26.528 4.10869 26.808C4.21368 26.962 4.30468 27.116 4.38867 27.2839L4.38167 27.2769ZM4.97662 30.9867C5.17961 31.3856 5.50159 31.7076 5.90056 31.9176C6.06854 31.9946 6.27153 32.1906 6.41852 31.9526C6.55851 31.7216 6.30652 31.6166 6.15954 31.4976C6.14554 31.4906 6.12454 31.4976 6.10354 31.4976C5.94255 31.7846 5.80956 31.8196 5.58558 31.6096C5.49459 31.5186 5.41059 31.4206 5.3336 31.3156C5.22861 31.1896 5.13061 31.0637 5.03262 30.9377L4.97662 30.9937V30.9867ZM24.2042 36.3273C24.1202 36.3273 23.9662 36.4742 23.9802 36.5232C24.0082 36.6422 24.0922 36.7332 24.2042 36.7822C24.2882 36.7962 24.3932 36.6632 24.5681 36.5442C24.4002 36.4323 24.3022 36.3203 24.2112 36.3203L24.2042 36.3273Z" fill="white"/>
</g>
<defs>
<clipPath id="clip0_65_156">
<rect width="53" height="53" fill="white"/>
</clipPath>
</defs>
</svg>
