<svg width="250" height="73" viewBox="0 0 250 73" fill="none" xmlns="http://www.w3.org/2000/svg">
<path d="M64.7657 40.3645C65.4095 36.5949 65.4111 33.0856 65.1287 29.3579C64.5998 22.3783 63.8272 15.6292 62.7414 8.74095C62.4435 6.84641 63.1168 4.46253 64.0832 2.49766C65.4064 6.93471 66.1619 11.1682 66.5683 15.6876L68.5787 37.9806C68.7664 40.0667 68.9293 41.9807 69.4753 43.9485C70.175 46.4641 72.3715 48.0564 75.1126 47.8753C77.0889 47.7451 78.803 46.7859 80.179 45.4315C81.5999 44.0338 82.8952 41.6365 84.5085 41.7577C84.6637 42.5823 84.31 43.2886 84.3705 44.0862C84.476 45.4645 85.2919 46.5674 86.7268 46.7499C88.4161 46.9639 90.214 46.5345 91.4566 45.3448C91.8568 44.9617 91.8258 44.2119 91.7746 43.6552L90.0139 24.0903C89.5501 18.9409 89.9938 13.8365 89.001 8.87264L88.5077 6.40196C88.2331 5.02969 89.3717 3.55866 90.107 2.24475C91.635 5.39932 92.7767 8.39976 93.9479 11.5274C94.1449 12.0556 94.2008 12.7021 93.8858 13.1346L91.7591 11.1832L93.2778 28.1368C93.633 32.1054 94.148 35.9035 94.1077 39.8676C94.0782 42.7169 93.3988 45.2849 92.2477 47.8364C90.8718 50.8877 87.0138 52.2839 84.1254 50.2846C82.9588 49.478 82.9061 47.8798 82.4841 46.5045C81.1702 47.5431 80.5373 49.0036 79.3398 50.0631C76.9958 52.1358 73.5986 52.887 70.7551 51.3561C66.5823 49.1099 66.635 42.883 66.5683 38.8381C66.0579 38.9279 66.2208 39.2825 66.1913 39.6761C65.7461 45.6126 62.4311 53.303 56.1827 55.2514C53.4711 56.0969 50.9068 57.0966 47.9672 57.6742C48.3737 56.5818 49.3649 56.2032 50.2119 55.6659C53.4385 53.6233 56.4929 51.612 59.3829 49.1398C62.096 46.8188 64.153 43.968 64.7688 40.363L64.7657 40.3645Z" fill="white"/>
<path d="M44.9873 33.7081C40.8873 32.6486 37.0805 32.1652 33.1109 33.4088C30.995 34.0717 28.9349 34.7242 27.3511 36.3778C27.7001 39.6296 29.4421 42.6331 32.267 44.4004C34.7288 45.9418 37.4171 45.8774 40.0403 44.791C43.4484 43.3813 46.4051 41.4748 49.7558 39.7658C49.4595 41.2788 48.9212 42.6765 48.2387 43.8422C44.8802 45.9403 41.5109 47.8214 37.8515 49.3328C32.5633 51.5162 25.7036 52.0085 21.7541 47.1779C19.8461 44.8434 19.2613 41.9252 16.787 43.1643C12.3427 45.3896 11.4306 51.9157 9.03697 55.2768C8.06123 56.6476 6.28815 57.0681 4.73845 56.1448C-0.327945 53.1294 -0.230216 43.1583 1.85932 38.2693C-2.67964 35.1028 2.22542 23.8328 4.58022 20.1156C4.94787 20.7007 4.58487 21.2439 4.38786 21.7617C3.07706 25.2186 1.01699 29.304 1.93688 33.0167C2.1432 33.8532 2.84126 34.811 3.76581 34.805C5.10454 34.7975 5.21468 32.2775 6.08959 32.3672C6.05236 34.0074 4.96183 38.3442 2.69234 38.3951C1.61267 42.2994 0.972005 48.7746 3.77977 52.0609C4.35839 52.7388 5.11075 53.2132 5.87552 53.2087C9.77226 53.1877 10.1864 46.497 13.9188 41.6469C15.0031 40.2387 16.3558 39.046 18.2095 38.6809C20.8373 38.1631 21.6595 42.0629 23.8499 44.0757C24.9761 45.1097 26.1411 46.1857 27.8397 46.2336C25.5423 43.5788 24.5402 40.4647 25.3763 37.0856C26.0728 34.2708 28.0926 31.4364 31.3238 30.2857C35.8829 28.6605 41.4333 29.7305 44.9904 33.7096L44.9873 33.7081Z" fill="white"/>
<path d="M148.957 36.2012C147.561 40.1893 145.923 44.0099 149.556 47.1584C157.061 53.6636 175.243 47.9665 183.401 44.3166C184.668 43.7495 186.161 43.0805 187.025 42.1273C187.152 40.9555 185.649 40.1085 184.633 39.7793C181.719 38.832 178.927 40.3719 176.834 38.5956C174.495 36.6113 175.911 32.2446 178.128 29.922C179.608 28.3732 182.019 28.0634 183.79 29.5255C186.963 32.1458 188.591 36.2042 188.45 40.2851C188.382 42.2575 188.008 44.2822 186.699 45.7847C184.232 48.616 174.799 51.5686 170.918 52.6041C166.574 53.7654 162.231 54.4822 157.718 54.3954C152.078 54.2876 146.231 51.7317 145.892 45.5961C145.726 42.5897 146.48 39.5937 147.879 36.9106C148.091 36.5035 148.487 35.9498 148.958 36.1982L148.957 36.2012ZM183.305 35.0819C182.633 33.3235 180.073 31.9767 178.829 33.2322C178.508 33.557 178.22 34.0568 178.468 34.585C178.958 35.6311 182.29 35.2854 183.305 35.0819Z" fill="white"/>
<path d="M180.167 60.8153L168.777 63.1497C168.813 62.5482 169.387 62.3641 169.837 62.1621L181.175 57.0785C187.129 54.4088 192.496 50.8562 197.314 46.5957C198.192 45.8191 198.315 44.9152 197.772 43.938C196.259 41.2204 195.102 38.4504 194.021 35.5562C193.748 34.8274 193.264 34.362 193.648 33.4866C194.064 32.5393 193.957 31.3721 194.741 30.4532C196.298 32.1398 197.719 33.6707 199.038 35.435C198.369 35.8495 197.843 35.4141 197.126 35.4545L198.94 39.1927C200.372 42.1437 200.137 45.7293 198.605 48.6893C196.748 52.2793 189.139 57.0157 185.49 59.0644C183.818 60.0042 182.141 60.4112 180.168 60.8153H180.167Z" fill="white"/>
<path d="M57.07 30.3096C60.5091 33.979 63.8303 40.1235 61.5996 45.2968C60.1895 38.5402 56.116 34.6688 51.6778 29.8756C47.8679 25.9219 43.8921 21.5537 41.3186 16.7665C40.8097 15.8192 39.7968 15.1623 39.1515 14.4529C38.7218 13.0133 39.1375 11.3493 39.3593 9.69714C42.2431 11.466 44.8275 13.4039 47.1745 15.8462C46.1336 16.2218 45.4201 15.7279 44.359 15.7399C46.2376 18.6386 48.5924 21.2604 51.0651 23.9002L57.0715 30.3096H57.07Z" fill="white"/>
<path d="M103.12 36.9241C103.542 41.2923 103.901 49.2236 100.938 53.1534C100.975 48.9483 101.036 45.1697 100.673 41.1441L99.2672 25.5748C98.7677 20.0468 98.2759 14.7194 98.0929 9.17792C97.9858 5.9171 96.5214 8.00918 99.1741 2.24475C100.908 5.46068 101.983 8.73048 103.221 12.0541C103.401 12.536 103.37 13.2109 103.108 13.5252L100.981 11.4466C101.043 15.728 101.462 19.7071 101.866 23.8913L103.124 36.9271L103.12 36.9241Z" fill="white"/>
<path d="M13.5387 21.3936C13.9234 21.624 13.7714 22.8901 13.3588 22.9993C12.4575 23.2387 11.4492 22.7075 10.7697 22.2211C8.87256 20.8638 11.4445 17.4803 11.7424 17.2723C17.0353 13.5835 38.8521 5.27354 46.0669 2.54846C46.0204 3.41642 45.6217 4.13473 45.1222 4.66747L24.8768 12.8098C20.9692 14.3811 17.3191 16.0332 13.6458 17.9966C12.6592 18.5248 11.6307 19.0082 10.9125 19.8133L13.5387 21.3936Z" fill="white"/>
<path d="M15.0915 32.6067C14.9705 32.8028 14.5843 32.903 14.3981 32.7714C13.2176 31.9408 12.1116 31.1312 10.7992 30.3111C11.3887 29.0451 12.1178 27.9347 12.9213 26.7465L16.5482 29.1768L18.3088 26.4308C19.705 27.1401 21.0701 27.9677 22.1466 29.117C21.5804 30.38 20.9522 31.444 20.2029 32.5469L16.6149 30.1391L15.0931 32.6052L15.0915 32.6067Z" fill="white"/>
<path d="M110.988 15.5633L105.708 18.0774C105.305 18.025 105.249 18.0774 105.491 17.7631L111.192 13.9501C112.335 13.1854 117.75 9.36341 117.735 8.41465C117.727 7.95523 114.719 7.57512 115.549 4.9952C115.948 3.75612 116.933 2.65172 118.233 2.24917C120.512 1.54433 119.902 5.78983 119.575 6.81192C119.868 7.23842 120.532 7.33868 120.733 7.80109C121.045 8.51491 120.571 9.37838 120.114 9.83779C119.509 9.47565 119.25 9.09405 118.692 8.90998C116.619 11.6635 114.131 14.0668 110.988 15.5633ZM118.647 6.40338C118.833 5.47258 118.759 4.81413 118.307 4.25893C118.036 3.92522 117.463 4.09881 117.201 4.23649C116.964 4.36069 116.531 4.73481 116.733 5.1239C117.094 5.81826 117.943 6.16245 118.645 6.40338H118.647Z" fill="white"/>
<path d="M18.1397 55.3486C15.3909 58.9192 10.3742 61.4094 5.69093 62.0768C9.57992 59.8815 13.4798 58.0827 17.0787 55.2903C16.5032 54.7381 15.8113 54.6633 15.5864 54.2592C14.772 52.7942 16.376 51.9427 16.1154 50.1888C15.8718 48.5457 18.9138 49.3568 20.6822 51.3291C21.8053 52.5817 21.9481 54.361 20.752 55.5806C19.8461 55.7033 19.1031 55.3501 18.1397 55.3486ZM18.0622 53.5274C18.3104 52.9678 18.2545 52.0759 17.662 51.8349C17.0756 51.597 16.4799 52.227 16.2131 52.7433C16.6691 53.2476 17.226 53.5634 18.0622 53.5274ZM20.8606 53.8567C20.434 52.9737 19.9361 52.2988 19.1232 52.034C18.9619 52.664 18.8797 53.1309 18.8688 53.7295C19.5359 53.9824 20.1936 54.0886 20.8606 53.8567Z" fill="white"/>
<path d="M188.287 24.2354L194.497 20.5451C192.327 19.8163 190.242 20.0393 188.086 20.3356C188.608 19.3449 189.007 17.7946 190.146 17.3756C192.383 16.554 194.947 16.9895 197.286 17.8365C195.329 22.8422 193.656 23.2806 188.287 24.2354Z" fill="white"/>
<path d="M74.4115 29.6198C75.7021 30.1675 73.9849 34.3187 75.9922 34.5656C76.5382 34.633 77.1323 34.2813 77.3728 33.6752C78.1376 31.7523 76.0418 29.5031 77.8847 28.7354L78.8992 33.0243C79.0016 33.4568 79.3615 33.7171 79.588 33.8773C79.9013 34.0973 80.7793 34.2469 80.8678 33.7366C81.1222 32.2611 78.606 30.2543 80.4474 28.2894L81.4743 31.4216C81.9242 32.7953 82.0002 34.7303 80.7995 35.7404C79.9075 36.4916 78.53 35.6162 78.0864 34.6225C77.2596 35.7449 76.6297 36.972 75.2243 36.4018C73.2604 35.6057 74.7838 31.2959 73.3768 31.866C73.2635 31.1148 73.6048 30.2304 74.4099 29.6183L74.4115 29.6198Z" fill="white"/>
<path d="M74.4021 7.28039C73.4419 7.64254 72.1016 7.34923 71.7107 6.33911C71.4455 5.65222 71.9325 4.39369 72.5468 4.04501C74.306 3.04536 76.7569 7.87299 77.1479 9.43531L78.1127 4.86059C78.2896 4.01957 78.7239 3.00496 79.5368 2.59642C80.3496 2.18788 81.1827 2.79545 81.5457 3.412C81.9195 4.048 81.8823 5.3649 81.1206 5.534C80.6956 5.17335 80.2519 4.58973 79.7586 4.63462C79.1924 4.687 78.7891 5.13145 78.6727 5.72256L77.6923 10.7028C77.5496 11.4271 77.3868 12.1784 76.6577 12.6258C76.1163 10.6759 75.6059 9.01181 74.399 7.28189L74.4021 7.28039Z" fill="white"/>
<path d="M145.349 5.27807L136.699 9.25271C136.778 8.5778 136.925 7.57067 137.546 7.16213C139.297 6.01134 141.233 5.29752 143.196 4.4595L153.637 0C153.755 0.649471 153.473 1.6147 152.872 1.92596C150.427 3.19348 147.941 4.08688 145.349 5.27807Z" fill="white"/>
<path d="M9.91035 8.92492C8.77793 9.21224 7.3725 8.82466 7.11499 7.62448C6.9971 7.07228 7.46247 5.83919 7.97283 5.5803C8.82602 5.14782 9.65905 6.03822 10.1958 6.58892C11.3918 7.81753 11.7812 9.35291 12.5909 10.9392C13.2068 9.28408 13.258 4.49236 15.1505 4.14967C15.7989 4.03145 16.4256 4.2649 16.8336 4.80213C17.4122 5.56084 17.2835 6.62633 16.694 7.34315C12.895 3.06472 14.3516 12.5943 12.1193 14.2239C11.5795 12.3743 11.1638 10.7072 9.9119 8.92492H9.91035Z" fill="white"/>
<path d="M69.9392 26.3649C70.0648 25.7453 70.1967 24.7427 70.7365 24.3162C72.9409 23.0502 75.246 22.1209 77.6303 21.1377L86.7299 17.3845C86.7594 17.9996 86.5686 19.0486 85.8907 19.3419L74.005 24.4599L69.9392 26.3634V26.3649Z" fill="white"/>
<path d="M38.2207 56.6775C37.034 57.4288 34.3907 59.657 35.2501 60.7315C36.2336 61.9586 40.7741 60.6567 42.3765 60.0551C40.7508 62.0574 38.1726 63.0226 35.6875 62.7428C34.659 62.6275 34.0587 61.8703 34.1549 60.9305C34.2898 59.5927 34.915 58.4808 35.6953 57.3899C35.1989 57.0232 34.7459 56.8392 34.5535 56.5653C33.7578 55.437 35.2935 53.4496 36.3018 52.7583C36.7641 52.441 37.6281 52.1492 38.0051 52.6924C38.2921 53.1069 37.9647 54.4463 37.6064 54.3221L36.5996 53.9749C36.3856 53.9016 35.7434 54.2592 35.6782 54.7172C35.5774 55.4355 36.6105 55.829 37.2977 55.6195C38.2626 55.3262 38.8459 54.6453 39.744 54.1575C39.8076 55.2709 39.1127 56.1149 38.2223 56.6775H38.2207Z" fill="white"/>
<path d="M222.1 57.2193C221.107 57.9226 218.695 59.7408 219.195 60.9694C219.334 61.3121 219.841 61.4782 220.318 61.5546C222.541 61.9122 224.478 61.0368 226.698 60.3289C224.937 62.2878 222.409 63.506 219.772 63.1049C218.686 62.9403 218.211 62.1442 218.295 61.1326C218.399 59.8695 219.004 58.831 219.807 57.7685C219.329 57.3435 218.712 57.2417 218.515 56.7733C217.86 55.217 220.476 52.022 222.005 52.9423C222.37 53.2835 222.108 54.5915 221.627 54.6543C221.214 54.6708 220.806 54.2069 220.449 54.4283C220.207 54.578 219.506 54.798 219.627 55.1871C219.911 56.1059 220.985 56.26 221.766 55.9114C222.578 55.5492 223.068 54.982 223.783 54.367C223.999 55.6884 223.07 56.5309 222.098 57.2193H222.1Z" fill="white"/>
<path d="M214.285 18.8421C214.457 16.6408 214.89 14.5996 214.317 12.4327C213.573 9.61037 211.885 7.25941 209.513 5.40228C209.45 4.60616 209.664 3.76663 210.236 2.98547C215.355 6.70422 217.252 13.3291 214.285 18.8421Z" fill="white"/>
<path d="M125.866 7.0274L130.711 4.16913C129 3.53313 127.379 3.74114 125.548 3.92969C125.904 3.0333 126.332 1.80919 127.289 1.44704C129.113 0.755667 131.169 1.22706 133.055 1.88251C131.775 5.59677 129.765 6.67872 125.866 7.0274Z" fill="white"/>
<path d="M166.632 59.2784C164.289 60.2601 162.175 61.161 159.948 62.2624C160.051 61.5576 160.256 60.5774 160.917 60.2661C165.081 58.3027 169.28 56.7179 173.592 55.006C173.647 55.6555 173.366 56.4546 172.775 56.703L166.632 59.2799V59.2784Z" fill="white"/>
<path d="M82.495 62.6545L78.5083 59.9279C79.1645 58.6559 79.7757 57.6099 80.5684 56.4725C81.8931 57.113 82.9976 57.8777 84.1161 58.7337C84.9708 59.3877 83.1357 61.5905 82.495 62.6545Z" fill="white"/>
<path d="M59.355 3.93425L45.856 9.69418C45.8017 8.63917 46.5028 7.97024 47.4708 7.57069L60.3571 2.27466C60.1911 2.70714 60.0949 3.61849 59.3534 3.93425H59.355Z" fill="white"/>
<path d="M193.695 60.3574C192.269 60.9545 191.083 61.4887 189.648 62.2115C189.666 60.9784 190.45 60.2421 191.579 59.7782L203.15 55.0179C203.448 55.8275 202.771 56.5548 201.966 56.8915L193.697 60.3574H193.695Z" fill="white"/>
<path d="M179.859 23.7191L175.888 21.1826C176.417 19.8417 177.058 18.7613 177.947 17.7257C179.357 18.4216 180.559 19.1339 181.715 20.1305C181.338 21.4474 180.683 22.5533 179.859 23.7206V23.7191Z" fill="white"/>
<path d="M148.079 14.6565L144.083 12.1155C144.675 10.8375 145.315 9.77651 146.144 8.64368C147.615 9.30662 148.808 10.1387 150.035 11.1084C149.56 12.3669 148.901 13.3381 148.08 14.655L148.079 14.6565Z" fill="white"/>
<path d="M34.3053 25.8067L30.3605 23.2193C30.9128 21.9743 31.4696 20.8803 32.2965 19.7505C33.6941 20.364 34.9258 21.1826 36.1405 22.2092C35.7589 23.5081 35.1415 24.5422 34.3053 25.8067Z" fill="white"/>
<path d="M57.9015 23.0907L57.9852 19.0292C58.0442 16.171 55.9733 13.7347 53.6309 12.0212C53.6448 11.3493 53.8682 10.7792 54.1443 10.1506C55.1899 10.5726 55.7142 11.3059 56.3704 12.0781C58.9594 15.1249 59.8421 19.3555 57.9015 23.0907Z" fill="white"/>
<path d="M164.569 41.2414C165.937 41.4868 165.79 39.6656 166.481 39.7285C166.353 40.9481 165.589 43.733 164.139 43.6867C163.622 43.6702 163.148 43.4293 162.867 42.8905C161.384 40.0412 163.323 35.1597 165.09 32.4077C165.34 33.5929 164.57 34.4923 164.232 35.5279C163.711 37.1246 163.128 38.7393 163.677 40.354C163.837 40.8224 164.234 41.1816 164.569 41.2429V41.2414Z" fill="white"/>
<path d="M97.6353 58.5152C97.6368 59.7214 96.8643 62.6275 95.2649 62.5497C93.7137 62.4749 93.3522 59.8111 93.5508 58.4733C93.9184 55.9817 94.7111 53.5424 96.2764 51.3456C96.2391 53.3883 93.588 57.33 95.0478 59.4939C95.2727 59.8276 95.6109 60.0895 95.9165 60.1224C96.8969 60.2272 96.9403 58.7726 97.6353 58.5137V58.5152Z" fill="white"/>
<path d="M67.2896 58.8519C67.2695 59.901 66.7141 62.3462 65.38 62.4136C64.9054 62.4375 64.485 62.21 64.1856 61.7805C62.6142 59.5284 64.7332 54.5795 66.0517 52.4755C66.1293 54.1141 63.2502 58.7951 65.3537 60.1359C65.6329 60.314 66.0393 60.308 66.3604 60.0701C66.7715 59.7558 66.6598 59.2051 67.2912 58.8519H67.2896Z" fill="white"/>
<path d="M192.212 9.0657C192.279 10.5966 191.626 12.8308 189.929 12.4956C189.625 12.4358 189.26 12.1559 189.079 11.7219C187.87 8.82776 189.766 4.92644 191.135 2.52161C191.075 4.04203 190.256 5.12996 189.953 6.49325C189.728 7.50487 189.159 10.0085 190.563 10.411C191.55 10.6939 191.79 9.54906 192.21 9.06719L192.212 9.0657Z" fill="white"/>
<path d="M231.361 13.172C231.561 14.1403 230.852 16.6947 229.186 16.3984C227.855 16.1605 227.737 13.5177 228.061 12.2771C228.545 10.4245 229.213 8.61676 230.373 7.09485C230.269 9.08217 228.012 11.8462 229.199 13.9397C229.451 14.3842 229.985 14.4351 230.331 14.3198C230.798 14.1642 230.917 13.6719 231.359 13.172H231.361Z" fill="white"/>
<path d="M27.5264 20.8729C27.6365 21.8546 26.9509 24.6665 25.4043 24.448C24.1633 24.2729 23.9244 22.0476 24.0981 20.9687C24.4332 18.8826 25.1685 16.8863 26.3552 15.0411C26.5863 15.6203 26.2063 16.1336 26.0061 16.6828C25.5144 18.0281 24.0314 21.8636 26.1659 22.4532C27.0439 22.3888 26.9509 21.5867 27.5264 20.8729Z" fill="white"/>
<path d="M55.6118 45.005C55.7204 45.9927 54.906 48.4798 53.6324 48.4394C53.2756 48.4275 52.9064 48.2269 52.6768 47.8498C51.2094 45.4495 52.9995 40.6892 54.4918 38.7034C54.0869 40.7446 53.1236 42.3338 53.0569 44.3226C53.029 45.1666 53.288 46.3683 54.2932 46.3623C55.0115 46.3578 55.0285 45.4076 55.6118 45.005Z" fill="white"/>
<path d="M167.794 23.5934C167.353 21.9413 166.959 20.37 167.074 18.8151C167.211 16.9655 168.158 15.5289 170.268 15.3403C170.356 14.9093 169.914 14.7717 169.685 14.6729C168.77 14.2808 168.231 15.8985 168.023 15.3313C167.232 13.1689 171.247 14.3556 167.198 7.69632C166.114 8.04799 164.854 7.70381 164.535 6.59192C164.345 5.93647 164.82 4.76173 165.406 4.45645C166.073 4.10927 166.821 4.78717 167.259 5.2002C168.628 6.49016 169.095 8.17968 169.81 9.87669C170.344 8.12282 170.645 3.18445 172.767 2.9929C173.634 2.91508 174.269 3.56904 174.472 4.18709C174.715 4.92186 174.529 5.78981 173.875 6.27467C173.484 5.6237 172.904 4.84105 172.171 5.23462C170.915 5.90953 170.66 10.8763 169.958 12.5045C171.079 13.1136 172.19 13.6418 172.811 14.7582C173.16 15.3837 172.654 16.7156 171.948 16.9146C170.634 17.2842 169.212 17.0912 168.163 18.028C167.567 18.5607 167.848 19.6382 168.023 20.3655C168.864 23.8313 170.522 29.2785 169.07 32.5737C169.015 29.4431 168.604 26.6357 167.791 23.5934H167.794Z" fill="white"/>
<path d="M242.915 54.8009C240.648 59.9189 234.915 60.8901 229.697 62.1157C230.185 61.5515 230.969 61.2881 231.743 60.911C234.611 59.5133 240.43 57.3 242.243 54.7336C242.46 54.4253 244.126 51.1705 245.422 51.4757C247.14 51.8813 247.26 54.8189 246.244 55.7093C245.352 56.4904 243.574 54.6812 242.915 54.8009ZM245.828 54.0078C245.484 53.0605 244.824 52.9632 244.271 53.3598C244.688 53.8462 245.284 54.2008 245.828 54.0078Z" fill="white"/>
<path d="M237.867 42.9623C238.781 40.7999 241.564 36.9345 243.577 35.8989C245.028 35.1537 246.698 35.4305 247.662 36.8178C249.101 38.8874 249.742 41.4943 249.346 44.0158C249.145 45.2968 248.633 46.6975 247.562 47.4368C245.906 48.5801 240.273 45.9029 238.709 44.4857C237.577 46.9444 236.106 50.2891 233.14 51.184C229.751 52.2075 226.108 51.1316 223.465 49.0275C222.731 48.4439 222.188 47.8932 221.431 47.4068C217.926 49.6366 214.825 52.212 210.427 51.7092C207.852 51.4144 206.024 49.87 205.075 47.5984C204.045 45.1337 203.611 42.5957 203.454 39.8841L202.497 23.2687C202.187 17.8934 201.433 11.888 199.669 6.82392C199.742 5.56987 200.587 4.26644 201.144 2.96301C203.657 6.85684 204.527 16.9147 204.777 21.5941L205.641 37.768C205.758 39.9514 206.071 41.9687 206.82 43.9605C207.776 46.497 210.21 47.8932 212.971 47.3545C215.033 46.9519 216.956 46.1034 218.585 44.8359C216.303 42.5807 213.301 40.116 210.258 42.4505C210.311 41.192 210.847 40.3076 211.14 39.1987C211.314 38.5417 211.727 37.8982 212.434 37.6124C218.756 35.0609 226.969 34.7272 232.731 38.8096C232.287 40.0606 231.988 41.4823 231.203 42.4475C229.402 43.4756 227.339 43.9545 225.53 45.3612C227.3 46.7798 229.478 47.5176 231.625 47.3545C234.535 47.1345 236.792 45.5063 237.869 42.9608L237.867 42.9623ZM222.485 42.8157C223.85 41.9552 225.127 41.4973 226.278 40.547C223.907 39.48 221.458 39.6057 219.114 39.9559L222.486 42.8142L222.485 42.8157ZM246.461 43.2511C246.323 41.7861 245.681 40.8179 244.795 39.9903C243.58 39.2481 242.086 39.6865 241.34 40.99C242.967 41.9776 244.519 42.9937 246.462 43.2511H246.461Z" fill="white"/>
<path d="M218.095 28.0245C215 29.3699 212.332 30.6164 209.394 32.1713C209.674 31.1626 209.918 29.8652 210.931 29.325C215.627 26.8214 220.423 24.9133 225.375 22.8647C233.52 19.4931 241.554 16.361 249.999 13.4548C249.903 14.4934 249.362 15.1892 248.702 15.9195C238.365 19.6652 228.277 23.5964 218.095 28.0245Z" fill="white"/>
<path d="M113.571 41.4688C115.985 38.422 119.086 36.3763 122.783 34.6284C117.516 34.3441 112.658 34.4264 107.639 34.576C108.527 31.6699 108.233 30.6747 110.715 29.503L115.7 27.1505C123.042 23.6847 122.151 15.8192 125.19 18.4305C125.787 16.7515 126.288 15.1488 127.407 13.7885C127.609 13.5431 127.976 13.4578 128.052 13.2213C127.947 13.552 127.81 10.3735 128.437 9.29456C130.587 10.1027 132.438 10.996 134.253 12.2695C133.807 12.72 133.328 12.2935 132.763 12.5688C135.76 15.3433 141.086 15.8087 142.398 19.918C142.739 20.985 142.398 22.0939 142.542 23.1534C143.126 27.4767 140.951 29.7963 142.085 34.0807C142.746 31.6549 142.999 29.506 143.855 27.3346C145.065 24.2638 146.729 21.5282 149.442 19.526C150.531 18.7209 153.04 17.4908 153.967 18.3288C154.822 19.1025 153.702 21.4415 153.203 22.5578C152.01 22.2256 150.913 22.4231 149.871 23.0442C145.434 25.6899 143.38 31.6489 142.918 36.4376C142.8 37.6558 144.795 37.6423 142.285 42.8889C140.321 39.7239 139.708 36.1279 140.298 32.5288L141.159 27.2777C141.405 25.7708 139.566 27.6174 136.767 27.8524C133.171 28.1531 129.461 27.6653 126.279 26.0087C124.342 25.0001 124.365 22.0176 123.544 21.8021C123.214 21.7153 122.869 21.9787 122.677 22.3229L120.484 26.2721C119.575 27.8673 118.452 29.0166 116.809 30.4772L135.028 30.8303C134.698 32.1068 134.166 33.1843 133.674 34.4294C127.578 36.5903 121.725 37.762 116.54 42.2724C115.417 43.2032 115.256 43.3484 114.358 44.2822C109.918 49.3013 107.729 57.4392 112.827 62.5871C116.328 66.1217 122.703 67.081 127.63 67.2591C132.768 67.4446 137.758 67.1528 142.853 66.6994C143.13 66.6739 143.358 66.7966 143.323 66.9478C143.298 67.0555 143.216 67.289 142.981 67.3638L131.327 71.108C128.282 72.0867 119.71 71.0242 115.65 69.3496C105.213 65.0473 107.562 50.4027 112.513 42.8815C112.87 42.3278 113.57 41.4718 113.57 41.4718L113.571 41.4688ZM132.205 20.0108C132.337 18.2584 131.634 16.7605 130.235 15.891C128.938 15.0844 125.989 17.6209 126.223 20.0812C126.347 21.3906 128.013 22.468 129.321 22.3348C130.671 22.1972 131.66 21.1885 132.205 20.0108ZM140.771 23.0427C140.513 21.7482 139.679 21.2409 138.872 20.6019L133.907 18.0355C133.773 20.0827 133.326 21.6046 132.273 23.3749C135.081 24.0782 138.072 24.1366 140.771 23.0412V23.0427Z" fill="white"/>
<path d="M124.644 56.7314C123.257 56.0236 122.027 55.0838 120.639 54.1605L122.528 50.6677C123.966 51.3501 125.28 52.1238 126.49 53.1788C126.105 54.4403 125.472 55.3592 124.643 56.7314H124.644Z" fill="white"/>
</svg>
