<svg width="104" height="34" viewBox="0 0 104 34" fill="none" xmlns="http://www.w3.org/2000/svg">
<path d="M46.3593 12.3858C46.8949 15.7667 47.961 21.4124 46.186 24.4743C45.8895 24.2799 45.8908 23.9648 45.8823 23.6641C45.8328 21.9655 45.6907 20.3752 45.421 18.6988L44.1007 10.5007C43.7873 8.55487 43.6009 6.71278 43.1696 4.80415C43.524 4.25295 43.8199 1.28956 44.5582 2.8616C45.0697 3.95029 47.1276 7.54642 46.7327 8.38593L45.6301 7.7819L46.3593 12.3852V12.3858Z" fill="#DEB14E"/>
<path d="M13.7066 11.0643C13.1677 11.3298 12.664 11.4968 12.0892 11.9227C12.1042 10.7277 12.75 10.0298 13.7457 9.54054C19.9545 6.49169 26.16 3.60657 32.5245 0.899522C33.2465 0.592288 33.7587 0.222434 34.5465 0C34.4227 0.495748 34.2956 1.21719 33.8342 1.50486C33.0621 1.98691 32.2625 2.33197 31.4076 2.72661L19.2227 8.34813L13.7066 11.0637V11.0643Z" fill="#DEB14E"/>
<path d="M58.0431 12.5646C58.0796 12.851 58.3741 13.0134 58.6654 13.0734C59.0987 13.1628 59.7119 14.0806 59.1997 14.3206C58.6914 14.4804 57.5687 13.8718 57.3478 13.3683C56.9952 12.5633 57.6162 11.5829 58.2542 11.1217C58.9703 10.6038 59.6441 10.2685 60.445 9.89802L72.8032 4.1793L79.2707 1.2146C79.1045 1.78993 78.9494 2.57073 78.421 2.84665C76.4465 3.87598 74.4453 4.61569 72.4155 5.56935L62.5002 10.2268L60.1687 11.4127C59.4675 11.7695 58.752 12.0069 58.0431 12.5653V12.5646Z" fill="#DEB14E"/>
<path d="M35.1753 30.8277C34.4944 30.1134 32.8418 29.6601 32.2423 28.9517L33.6264 26.5069C34.5413 26.8774 35.2242 27.364 36.0478 27.9034L37.2156 25.9824C38.1976 26.3738 39.0571 26.9446 39.9629 27.5969C39.7504 28.6405 39.2376 29.5159 38.7059 30.2948C37.935 29.6333 37.14 29.2035 36.2388 28.7788C35.7931 29.4774 35.5161 30.0978 35.1753 30.8284V30.8277Z" fill="#DEB14E"/>
<path d="M86.7051 15.828C85.4585 16.3864 84.4276 16.935 83.2821 17.6081C83.256 16.7119 83.7741 16.0798 84.5058 15.6989C86.5246 14.6487 88.5101 13.727 90.6103 12.815L98.8118 9.25348C98.7655 9.75901 98.5779 10.5065 98.0624 10.7381L86.7051 15.8274V15.828Z" fill="#DEB14E"/>
<path d="M52.5881 13.6305L51.5911 15.5502C50.6228 15.1321 49.7072 14.5724 48.791 13.9097L49.9516 11.5079C50.8378 11.8641 51.5318 12.3572 52.3509 12.806L53.4267 10.9359C54.298 11.3181 55.1542 11.7362 55.8945 12.3507C56.2731 12.6651 55.179 14.4028 54.902 14.8549L52.5881 13.6305Z" fill="#DEB14E"/>
<path d="M24.7551 14.5444C25.6094 13.3905 26.9504 12.9482 27.9637 11.9274C26.7751 11.7154 25.7084 12.0461 24.6058 12.3142C24.6677 11.3331 25.1877 9.95351 26.2499 9.74086C26.8383 9.62345 29.701 9.19684 29.8378 9.87263C29.9564 10.4597 29.5094 10.9704 29.2807 11.4721C28.9346 12.2307 28.53 13.0324 27.7871 13.4616C26.897 13.9756 25.9632 14.4361 24.7557 14.5437L24.7551 14.5444Z" fill="#DEB14E"/>
<path d="M100.611 27.0052C100.801 27.2172 100.708 27.4774 100.555 27.679C99.6797 28.8329 98.4084 29.7507 96.9663 30.0416C96.4229 30.1512 95.7334 30.0534 95.4493 29.6261C94.7175 28.5257 96.3981 27.2733 96.7363 26.4233C96.1153 26.4357 95.6403 26.6679 95.0766 26.9315C94.9932 26.5401 95.2037 26.15 95.5073 25.8676C96.058 25.3549 97.3541 24.9765 97.6844 25.4599C98.2839 26.3372 95.5327 28.4696 96.172 28.6405C97.6955 29.0475 99.4386 28.1474 100.611 27.0052Z" fill="#DEB14E"/>
<path d="M8.04712 16.7608C7.64637 16.7974 7.57078 14.9611 6.63699 14.4595C6.23493 14.2436 5.55332 14.4171 5.34675 13.8092C5.21512 13.4224 5.34805 12.3585 5.91628 12.395C6.94456 12.4609 7.51734 13.6324 7.93243 14.5404C8.08492 14.0375 8.40682 10.8477 9.67164 11.4263C10.3735 11.7473 10.4907 12.7166 9.97074 13.2502C9.65991 13.0675 9.59736 12.7779 9.27675 12.6696C8.34492 13.3852 8.70527 16.7015 8.04647 16.7615L8.04712 16.7608Z" fill="#DEB14E"/>
<path d="M52.3432 8.10551C51.315 9.35727 50.0925 10.2705 48.5983 10.7812C48.3116 10.8791 48.0815 11.2118 47.7394 10.9867C49.1424 9.93586 50.4724 9.00568 51.7502 7.72C50.9748 7.4917 50.5376 6.94246 50.7585 6.17796C50.9311 5.58046 51.7059 4.56613 52.5342 4.97056C52.6762 5.04035 52.8118 5.27518 52.8111 5.5361L52.8072 6.94963C53.3656 7.35015 53.3748 8.0181 52.9499 8.53798C52.7609 8.3449 52.6736 8.17987 52.3432 8.10551ZM52.0709 6.42388C52.1699 6.15187 52.0585 5.98684 51.9705 5.97705C51.8701 5.96597 51.5984 5.91248 51.5541 6.09773C51.5111 6.27907 51.9855 6.57065 52.0709 6.42388Z" fill="#DEB14E"/>
<path d="M34.0519 10.155C33.4739 9.49613 33.5091 8.40418 32.7154 8.06303C32.327 7.89604 31.8331 8.05063 31.5841 7.65469C31.0895 6.86736 31.8676 5.99393 31.9451 5.96588C32.7662 5.67104 33.5534 7.43812 34.0108 7.91952C34.1809 7.0487 34.2474 5.16551 35.0749 4.92873C35.3004 4.86415 35.6203 4.93786 35.8171 5.11463C36.2948 5.5445 36.3222 6.53273 36.0387 6.67298C35.6327 6.87323 35.6308 6.10743 35.1505 6.11983C34.3197 6.1407 34.8195 9.46547 34.0519 10.155Z" fill="#DEB14E"/>
<path d="M21.822 28.6719C21.3281 28.1898 21.0375 26.715 20.4464 26.4971C19.9877 26.3282 19.5263 26.3014 19.1973 25.8663C18.9314 25.5141 19.1308 24.3328 19.6906 24.4078C20.6999 24.5435 21.1874 25.6791 21.663 26.379C21.9061 25.4776 21.8638 24.7026 22.2906 24.0268C22.5617 23.5976 23.1755 23.323 23.5209 23.7483C23.8845 24.1958 23.9737 24.9225 23.5111 25.2845C21.9693 23.1906 22.5115 28.2642 21.8214 28.6719H21.822Z" fill="#DEB14E"/>
<path d="M6.21214 33.1466C6.14894 32.3267 6.84423 31.8153 7.45676 31.482L10.6556 29.7403C12.5304 28.7201 12.2254 26.8174 13.2745 26.9968C13.6838 27.0672 13.9294 27.4149 13.9751 27.6719C14.0493 28.0887 14.0604 28.6132 13.6479 28.7997C13.3143 28.9504 12.9448 28.8382 12.5408 28.8845C12.1785 29.5603 11.6722 30.0593 10.9906 30.4442L6.21149 33.1453L6.21214 33.1466Z" fill="#DEB14E"/>
<path d="M92.4767 10.6898C91.2347 7.52098 90.5941 8.96256 90.1041 8.08065C89.8128 7.5562 90.2937 6.8178 90.3309 6.79301C91.0666 6.31031 92.2056 7.9678 92.4532 8.68077C92.6402 7.95932 92.6572 6.20659 93.2834 5.93524C93.4965 5.84261 93.851 5.88957 94.0608 6.06048C94.5228 6.43751 94.6023 7.16808 94.1801 7.64557C92.6774 5.64561 93.4424 10.1413 92.4773 10.6892L92.4767 10.6898Z" fill="#DEB14E"/>
<path d="M67.1686 19.2715L61.4805 22.0314C61.4218 21.2793 61.9764 20.7503 62.6332 20.4313L67.9779 17.8365C68.1721 18.4177 67.7563 18.9865 67.1686 19.2715Z" fill="#DEB14E"/>
<path d="M62.2031 6.95382C61.8004 7.06993 61.8232 5.68509 60.9272 5.21348C60.6183 5.05106 60.2045 5.18413 59.9263 4.91929C59.6969 4.70077 59.6949 4.312 59.7738 4.04326C59.8409 3.8143 60.0253 3.35443 60.4065 3.45749C61.2699 3.69101 61.6629 4.52335 62.1223 5.23762C62.2545 4.47182 62.1809 3.80712 62.4409 3.13395C62.5921 2.74257 63.0196 2.34075 63.4503 2.61276C63.9592 2.93435 64.0433 3.77125 63.6328 4.18546C62.2226 2.35119 62.7472 6.79727 62.2024 6.95447L62.2031 6.95382Z" fill="#DEB14E"/>
<path d="M4.99423 10.4851C4.04611 10.9162 3.16575 11.4864 2.09186 11.5177C2.50174 10.9704 3.0654 10.8354 3.56651 10.547C4.63975 9.92996 5.69604 9.3442 6.56793 8.41989C6.43435 8.18963 6.07986 8.12309 5.98211 7.87913C5.65173 7.05006 6.62071 5.89744 7.24889 6.11988C7.42939 6.1838 7.60729 6.48451 7.5923 6.76239C7.49455 8.56405 8.08298 7.56211 7.61967 8.66254C7.54929 8.83019 7.26713 8.74147 7.0332 8.70038C6.49755 9.4153 5.84853 10.0963 4.99358 10.4851H4.99423Z" fill="#DEB14E"/>
<path d="M5.29592 23.6498C5.6074 24.0301 6.0453 22.9062 6.23688 22.882C6.56791 22.8409 6.34831 25.1944 5.32655 25.2029C4.92253 25.2062 4.48268 24.9505 4.3491 24.4736C3.90794 22.8951 4.6697 20.9597 5.37216 19.4627C5.44775 19.3009 5.83352 19.2167 5.81723 19.372C5.71036 20.3739 4.4905 22.6661 5.29592 23.6504V23.6498Z" fill="#DEB14E"/>
<path d="M45.1153 27.4201C45.4281 27.9818 44.9244 29.6549 44.1378 29.6458C43.0353 29.6327 43.2334 27.4834 43.5227 26.5715C43.7996 25.6994 43.9873 24.8461 44.45 24.004C45.0925 24.4841 43.9052 25.8885 44.0518 27.6752C44.0694 27.8904 44.1926 28.2877 44.4571 28.2016C44.7908 28.0933 44.7223 27.6354 45.1159 27.4201H45.1153Z" fill="#DEB14E"/>
<path d="M80.7075 28.6608C81.0301 29.167 80.355 30.7456 79.7392 30.7136C78.7689 30.6634 78.7683 28.8878 79.113 27.9146C79.3952 27.1181 79.5346 26.2949 80.0605 25.5311C80.3224 26.3269 78.8647 29.2622 80.1784 29.4625L80.7075 28.6602V28.6608Z" fill="#DEB14E"/>
<path d="M64.3429 14.346C64.7893 14.6363 65.033 15.0772 64.9991 15.5293C64.9678 15.9481 64.7293 16.4008 64.2986 16.618C64.0608 16.738 63.705 16.7582 63.5062 16.6095C63.355 16.4966 63.0703 16.2488 63.0931 15.9755C63.1641 15.1281 63.3954 14.2488 63.8744 13.4595C64.2159 13.7355 64.0145 14.1327 64.3436 14.346H64.3429ZM64.2067 15.3642C64.1122 15.2214 63.8451 15.1249 63.7323 15.1796C63.5825 15.2527 63.6463 15.4973 63.7369 15.5958C63.8412 15.7093 64.3527 15.5854 64.2067 15.3636V15.3642Z" fill="#DEB14E"/>
<path d="M72.006 20.5178C72.0868 20.9849 71.9839 21.7279 71.4841 22.0129C71.1048 22.2295 70.7608 21.7109 70.7047 21.3534C70.5575 20.4148 70.8155 19.4598 71.2045 18.619C71.9845 17.9641 70.8931 20.3685 71.3961 20.9307C71.5219 21.1493 71.7623 20.6959 72.0054 20.5178H72.006Z" fill="#DEB14E"/>
<path d="M57.7698 7.34862C57.9125 7.78044 57.7815 8.45818 57.3541 8.74715C56.9097 9.04786 56.4027 8.48753 56.3714 8.01331C56.3023 6.96767 56.619 6.00227 57.1469 5.0473C57.4271 5.50978 56.492 7.38188 57.2009 7.82023C57.4805 7.99309 57.5861 7.528 57.7705 7.34862H57.7698Z" fill="#DEB14E"/>
<path d="M96.3259 16.7061C96.2269 16.8404 95.787 16.9422 95.6899 16.817C95.2136 16.2005 95.3765 15.4354 95.5687 14.7335C95.671 14.3617 95.6508 13.9644 96.1408 13.9175C96.0907 14.2912 95.6091 15.8281 96.1487 15.8248C96.2823 15.8242 96.3429 15.5554 96.5937 15.4256C96.7527 15.8307 96.6113 16.3179 96.3253 16.7067L96.3259 16.7061Z" fill="#DEB14E"/>
<path d="M80.6471 11.9717C80.8714 12.3858 80.7336 12.8778 80.4161 13.2551C80.2184 13.4901 79.8706 13.4958 79.6035 13.4058C78.538 13.0497 79.2974 10.5769 80.0112 10.0947C80.2498 10.6194 79.2509 11.9766 80.0645 12.3433C80.226 12.4161 80.3971 12.1452 80.648 11.9708L80.6471 11.9717Z" fill="#DEB14E"/>
<path d="M16.3528 27.8969C16.5614 29.574 17.8477 30.587 19.4905 30.7259C23.0438 31.0254 27.1328 27.2055 29.3575 24.7039C29.8286 24.1742 30.013 23.4939 29.7902 22.8416C28.4459 23.2884 27.1765 23.4378 25.8602 23.1253C24.7172 22.8533 23.9659 21.8762 24.121 20.6603C24.2734 19.4679 24.7387 18.282 25.6034 17.4464C26.2518 16.8196 27.2508 16.3577 28.1038 16.7459C29.3959 17.3329 30.3076 18.4738 30.9605 19.7543C32.7199 19.1724 34.2017 18.1079 35.4757 16.7661C35.591 16.6447 35.793 16.5776 35.8992 16.6434C36.3345 16.9128 35.7064 18.1646 36.6995 19.4366C37.57 20.5507 39.0681 20.5527 40.172 19.7967C40.5988 19.5038 40.7878 19.2983 40.7259 18.7021C40.5493 17.012 40.1173 15.4132 39.8227 13.7296L38.3839 5.50542C38.2966 5.00511 38.1409 4.65743 38.3996 4.14277C38.6557 3.63267 38.6674 2.92036 39.0219 2.42722C39.2311 2.13694 39.4709 2.6627 39.5719 2.85708C40.4692 4.57981 41.4003 6.20664 41.9777 8.12767C41.4466 8.09962 41.2472 7.64105 40.7976 7.52364L42.2709 17.1001C42.4781 18.4464 41.9836 19.8508 41.4811 21.0602C40.9357 22.3739 39.695 23.0686 38.3351 23.0979C37.2351 23.1221 36.2016 22.777 35.5786 21.8671C35.1753 21.325 35.0417 20.7014 34.7165 20.0158C33.7241 21.0673 32.8105 21.9062 31.4499 22.3171C31.3515 24.383 30.6067 26.1872 29.2552 27.7599C27.8047 29.4481 26.1886 30.9282 24.3477 32.1754C22.4515 33.4604 19.3315 34.2875 17.3811 33.0083C15.6986 31.9046 14.989 29.9471 14.9896 27.9615C14.9903 26.1135 15.4972 24.3993 16.156 22.7105C16.216 22.5565 16.6428 22.3341 16.6663 22.5063C16.8644 23.929 15.9944 25.0281 16.3509 27.8956L16.3528 27.8969ZM28.3911 20.37C27.69 19.5325 26.6617 19.0106 26.0198 19.7027C25.2112 20.5749 28.1976 20.5846 28.3911 20.37Z" fill="#DEB14E"/>
<path d="M1.45586 30.1362C-1.25364 27.7018 0.390437 23.3712 1.79862 20.7098C2.03711 20.2591 2.15636 19.777 2.7083 19.4789C2.89857 19.7594 2.81321 20.1534 2.68028 20.4724C2.35967 21.2402 2.10554 21.9799 1.84553 22.7704C1.36072 24.2453 0.756655 27.2439 2.0293 28.3326C3.56259 29.6437 5.87328 27.6412 6.90547 26.4533L9.92514 22.9779C11.7849 20.8377 13.8884 19.0399 16.5868 17.8312C15.9352 16.8697 15.5168 15.9526 15.7488 14.8913C16.0974 13.3004 17.5499 12.2312 19.1868 12.6565C20.7103 13.0525 22.0579 14.0309 23.0432 15.2279C23.4016 15.6636 23.3579 16.0935 23.2028 16.5925L22.6724 18.3022C21.6682 18.6081 20.709 18.9388 19.744 19.3478C18.6811 19.7986 19.581 20.5044 18.7834 21.1312C18.5384 20.6929 18.5834 20.2578 18.2387 19.8925C15.7266 20.7568 13.5873 22.2656 11.8455 24.2616L7.90573 28.7775C6.32617 30.5883 3.67467 32.1303 1.45521 30.1362H1.45586ZM18.3071 17.2018C19.0415 16.8123 19.6006 16.6225 20.3304 16.3505C19.6807 15.5912 17.142 15.0577 17.1335 15.6689C17.1303 15.9089 17.963 17.0472 18.3065 17.2018H18.3071Z" fill="#DEB14E"/>
<path d="M99.2072 20.8988C94.0236 20.1261 86.4536 14.2888 85.064 21.1876C86.6372 21.1059 87.3763 21.1296 88.7765 21.4524C89.0823 21.182 89.9953 20.6631 90.4533 20.8187L92.2799 21.4409C93.1233 21.7279 93.9317 21.9679 94.6379 22.4393L90.253 23.9141C88.7512 24.4191 87.1599 24.714 85.5848 24.3405C84.2982 24.0348 83.2936 23.2295 82.3433 22.349C80.7036 20.8291 79.2455 19.2589 77.49 17.8572C74.8959 15.7864 72.3251 13.8821 69.4712 12.0943C70.2783 11.464 71.03 11.1653 71.8679 10.8016C75.7153 9.13089 79.577 7.67689 83.6181 6.51892C84.2771 6.32999 87.5728 5.61398 87.8465 6.0211C88.4227 6.87784 83.706 10.9283 84.196 12.8173C84.4581 12.6852 84.6303 12.498 84.7645 12.2963C85.7475 10.8177 86.8755 9.52805 87.9393 8.12665C88.6526 7.18683 89.2126 6.20408 89.3839 5.05161C89.8271 2.06402 84.487 3.97212 83.0434 4.43191C79.0439 5.70485 75.144 7.05727 71.3037 8.7443C70.4675 9.11147 69.6306 9.53031 69.091 10.2516C68.4336 11.1289 68.14 12.3407 68.2365 13.4303C68.2858 13.986 68.7873 14.4937 69.2043 14.8473C71.4371 16.7422 73.5524 18.6641 75.4751 20.8794C76.1297 21.6337 77.7353 23.4001 76.4012 24.1623C73.5195 25.8092 69.9579 25.0841 67.8247 22.4063C66.9459 23.5404 66.2645 24.6022 65.2614 25.4609C63.645 26.8445 61.4825 27.3714 59.5699 26.6041C57.0741 24.8209 56.9903 22.5007 56.505 19.6869C57.3709 19.2726 60.4281 16.3825 59.6994 15.4593C58.5542 16.4987 57.5015 17.3563 56.131 17.9895C55.7603 17.4585 55.8661 16.2178 55.3155 15.6947C54.8901 16.4568 54.2342 17.2569 54.2093 18.1584L54.1829 19.1127C51.5843 20.7086 48.534 22.4349 48.645 25.9709C48.6676 26.6814 49.0182 27.1654 49.7281 27.3568C52.1922 28.02 54.5633 27.0623 55.5348 24.6875C56.0647 27.1209 57.6335 29.5586 60.2404 29.833C61.8705 30.0045 63.4809 29.4323 64.7219 28.4426C65.5408 27.7891 66.0769 26.9883 66.6688 26.1858C66.8941 28.2519 67.6566 29.6076 69.5697 30.2957C69.5716 30.2959 69.5735 30.2974 69.5754 30.2976C70.0256 30.4602 70.5239 30.2533 70.7313 29.8216C71.0467 29.1657 71.1498 28.484 71.3608 27.7285C72.846 27.9043 74.2478 27.8671 75.5602 27.2478C77.5434 26.3123 78.5386 24.085 78.0503 21.9676C78.0167 21.8219 78.0884 21.728 78.1424 21.7013C78.2137 21.665 78.3528 21.6819 78.4345 21.7643L80.9718 24.333C83.3613 26.7524 85.6937 28.1172 89.1945 26.7801L94.3882 24.7963C96.9339 23.8237 100.033 23.3805 102.711 24.2138L104 21.6149L99.2071 20.9001L99.2072 20.8988ZM53.2151 24.458C52.492 24.6767 49.8674 24.8945 50.5994 23.7638C51.059 23.2011 51.613 22.7705 52.2177 22.3732L54.572 20.8253C54.8513 21.5177 55.0229 22.2596 55.0409 23.0444C54.6582 23.7664 53.9967 24.2216 53.2151 24.458ZM69.2795 27.4663C69.1022 27.3027 68.6628 26.5713 68.5611 26.4707C68.514 26.3519 68.7585 26.1456 68.9032 26.0168L69.709 27.2382C69.5951 27.2911 69.4326 27.6074 69.2795 27.4663Z" fill="#DEB14E"/>
</svg>
